<svg version="1.2" xmlns="http://www.w3.org/2000/svg" viewBox="0 0 100 100"><path d="M50 100.1C22.4 100.1.1 77.7.1 50 .1 22.3 22.4-.1 50-.1 77.6-.1 99.9 22.3 99.9 50c0 27.7-22.3 50.1-49.9 50.1z" style="fill:#006c35"/><path fill-rule="evenodd" d="M70 69.7c0 .2-.4.6-.6.8v.6h6.3c1.8 0 2.4.1 2.4 1.7 0 1.7-.4 2-1.1 2-.3 0-.7 0-1-.4h-2.4c-.2.2-.5.4-.8.4-.4 0-.7-.2-.8-.4h-2.1c-.3.3-.6.7-.8.7-.3 0-.9-.7-.9-.9 0-.2.3-.6.6-.8v-.6H31c-5 0-7.5 0-9.1-1.7h46.9v-.6c-.3-.2-.6-.6-.6-.8 0-.2.6-.9.9-.9.2 0 .9.7.9.9zm-.6 3.7.5.5H72c.1-.2.4-.4.8-.4.3 0 .6.2.8.4h2.1c-.1-.3-.1-.7 0-1.1h-6.3zm11.8-46.3q1.3-1.1 2.6-2.3c.1.7-.4 1.4-.9 1.9-.2.3-.6.6-1 .8q0 .1-.1.1l-.1.1-.1.1q-.1.1-.2.1c.1.2.2.4.2.6q0 .2-.1.5c-.2-.3-.3-.5-.5-.8.1.8.1 1.6.2 2.4q.2 3.5.5 7c-.1.1 0 .1.1.1l1.8 1.8q.7.7 1.3 1.5c.5.7.9 1.5 1 2.3.1.5 0 1.1-.2 1.5-.3-1.3-1-2.5-1.8-3.4q-1-1.1-2.1-2.1 0 1.3.1 2.5c0 1.1 0 2.2-.1 3.2 0 .2-.1.4-.1.6-.2.4-.3.9-.6 1.3q0-1.5-.1-3-.2-2.6-.4-5.3c0-.1 0-.2-.1-.4-.4-.4-1-.8-1.5-1.3q-1.3-1.1-2.7-2.2.3 2.8.5 5.6c.1.8.2 1.7.2 2.5V45c0 .4 0 .9-.2 1.4-.3.5-.9 1-1.5 1.2-.5.3-1.1.4-1.7.4q-.6 0-1.1-.2c-.6-.3-1.1-.8-1.3-1.3l-.2-.2q0-.2-.1-.3 0-.1-.1-.3 0-.1-.1-.3c0-.1 0-.3-.2-.4-.2-.1-.3 0-.5 0-.3.2-.7.3-.9.6-.8.8-1.2 1.7-1.4 2.7-.2.4-.3.8-.7 1.2-.2.2-.5.5-.9.5s-.7-.1-.9-.2c-.7-.3-1.1-.8-1.3-1.3-.1-.1-.2-.2-.3-.7-.2-.5-.2-1.3-.2-2.1.1-.1 0-.1-.1-.2-.2-.1-.3-.4-.3-.6 0-.8.1-1.7.6-2.4q.2-.4.5-.8c-.6-.4-1.5-.9-2.6-1.6.1.9.1 1.8.1 2.6V45c0 .2-.1.4-.2.6-.2.4-.3.9-.5 1.3-.1-.4-.1-.7-.1-1.1-.1-1.8-.2-3.6-.4-5.4q0-.6-.1-1.1c-1.3-.9-3.1-2-5.2-3.4q-.4.2-.9.3c.1-.1.2-.2.3-.2q.2-.1.4-.3-1.1-.7-2.3-1.5-.4.1-.8 0c-.6 0-1.1-.2-1.5-.6q-.4-.2-.6-.5V33v.1q-.4-.6-.7-1.2-.2-.1-.4-.3c-.2.8-.6 1.6-1.1 2.2-.4.4-.8.8-1.4 1-.6.2-1.4.3-2 .1-.7-.1-1.2-.6-1.5-1-.4-.7-.5-1.5-.4-2.3.1-.6.3-1.2.5-1.8 0-.2.1-.4 0-.6h-.1q-.1 0-.3.1c-.4.5-.7 1-.9 1.5q-.1.2-.1.4-.1.1-.1.3-.1.1-.1.3-.1.2-.1.4c-.1.7-.3 1.4-.7 2-.2.4-.6.7-1.1.8-.4 0-.9-.1-1.3-.3-.4-.3-.6-.8-.7-1.2-.2-.8-.1-1.6 0-2.4q.1-.7.3-1.4h.1c-.1.8-.2 1.6-.2 2.4 0 .5.1.9.3 1.4.2.2.4.5.8.6.4.2.8.2 1.2 0 .3-.2.5-.5.6-.8.2-.7.4-1.3.6-2q.3-1 .8-2 .3-.6.8-1.1.1-.2.3-.3C33.1 21.6 19.4 12.7 0 0l45.3 28.4v-.1q0-.2.1-.3 0-.2-.1-.4 0-.1-.1-.3-.1-.1-.1-.3-.4-.4-1-.7v-.6c.6.3 1.1.7 1.3 1.3q.2.4.1.8c0 .2 0 .4-.2.6l.8.5.1-.2h.3c0 .2.1.4.2.6l1.8 1.1c0-1-.1-2-.5-3-.1-.1-.2-.3-.1-.4 0-.4.2-.8.4-1.2 0 0 .1 0 .1-.1.2.6.5 1.1.6 1.6l.3 2.1c.1.5.1 1 .3 1.5q0 .1.1.3l2.8 1.7q.5 0 1-.3c.2-.1.5-.3.4-.6-.8-1.6-1.4-3.3-2-4.9-.1-.2-.2-.3-.2-.4.1-.5.3-.9.5-1.3.2.1.4.2.5.4.4.4.7.9 1 1.3v.4c-.1-.2-.3-.3-.6-.3v.2c.3.8.7 1.5 1 2.3.2.5.4 1 .4 1.6q0 .7-.3 1.5-.2.4-.6.8l1.5.9c.2-.2.4-.5.8-.6.1-.1.4-.1.5.1.1.1.1.3.1.5q-.2.4-.5.6l4.2 2.7q0-.8-.1-1.6c-.5-.4-1-.9-1.4-1.4-.6-.5-1.1-1.1-1.6-1.7-.7-.9-1.4-1.8-2.3-2.6-.1-.1-.1-.1-.1-.2q.1-.8.1-1.6 1 .6 1.9 1.2.7.4 1.3 1c.2.2.4.4.3.7q-.3-.1-.7-.3h-.2c0 .1.1.2.2.4q1 1.1 2.1 2.3l.3.3c-.1-.9-.2-1.8-.2-2.7q-.2-2.1-.3-4.1c-.1-.3-.1-.5-.2-.7 0 0 .1-.1.1-.2q.1-.1.2-.3.1-.1.2-.3l.2-.2q0-.2.1-.3c0-.1.1-.1.1-.1q.2.4.3.7.2.4.3.7.1.4.3.8.1.3.2.7c.1.2 0 .5-.1.7q-.2-.4-.5-.8c.2 2.4.4 4.9.5 7.3.2.2.3.3.5.4 1.4 1.3 2.9 2.6 4.4 3.9q.4-.4.8-.7l.8-.8q.4-.3.9-.7.4-.3.8-.7.1-.1 0-.1-.5-4.6-1-9.1c0-.3 0-.6-.1-.9l.8-1.4c.2.2.3.5.4.8q.4.9.7 1.9c0 .2.1.3.1.5q-.1.2-.1.4-.3-.4-.5-.8c.2 2.5.5 5.5.7 7.8q1.7-1.5 3.5-2.9l.4-.4q-.9-.9-1.6-1.8c-.2-.2-.4-.4-.5-.7-.4-.4-.8-.9-1.3-1.2q0-.9-.1-1.8c1.2.8 2.4 1.6 3.5 2.5q.2.1.3.3-.1-1.4-.3-2.8V27c-.1-.1-.2-.2-.1-.3q.4-.7.8-1.3.7 1.3 1.1 2.7c.1.1.1.3.1.4v.4q-.3-.3-.5-.6h-.1v-.1c.1 1 .2 2.1.4 3.1q1.3-1 2.6-2.1.6-.4 1.2-.9 0-.6-.1-1.2c0-.2-.2-.3 0-.4q.1-.2.2-.3l.2-.4q.1-.1.2-.3.1-.2.2-.3c.3.5.5 1.1.7 1.7zM65.1 40.6l-1-.8-.6-.6q-1.1-.9-2.1-1.8v1.1l3.6 2.3q.1-.1.1-.2zm4.1 5.8c.4.3.8.5 1 .8.5.6.6 1.3.3 1.9q0 .1-.1.1c.1-.3.1-.7 0-1-.2-.5-.6-.9-1.2-1.1v-.7zM42.5 35c.3.2.4.4.6.6q.6.8 1.1 1.7c.7 1.3 1.2 2.6 1.4 4 .1.5.2.9.2 1.3 0 .9.1 1.8.6 2.5.3.6.9 1.1 1.3 1.4.2.1.3.1.4 0 0 0 0-.4.1-.5.1-.3.3-.6.6-.8q.4-.4.9-.6l2.2-.8 1.8-.4q-3.8 0-7.7.1.1-.2.1-.4.1-.2.1-.4.1-.2.1-.4 0-.1.1-.3c.3-.3.6-.5 1-.8 1.4-.9 3.1-1.7 4.8-2.3-.2-.2-.4-.5-.5-.8-.1-.4.1-.8.4-1.2.2-.2.3-.4.6-.6.3-.1.6-.1.9 0 1 .3 1.9.9 2.7 1.5 0 0 .1.1.2.1q-.3.7-.5 1.4c-.8.1-1.6.2-2.3.4.1.4.2.8 0 1.2-.1-.1-.2-.1-.2-.1 0-.3-.2-.6-.4-.9-.9.3-1.9.6-2.8 1-.7.3-1.4.6-1.9 1.2h11.8q-.4.6-.8 1.3c-2.6.5-5.1 1-7.6 1.7-1.1.3-2.1.7-3.1 1.2-.1 0-.1.1-.1.2.2.2.5.3.7.4.5.2 1 .3 1.5.4q.6.1 1.1.3v1.6c-.3 0-.7-.1-1-.1-.6-.1-1.2-.1-1.8-.2-.8-.2-1.5-.6-2-1.1-.7-.5-1.1-1.2-1.4-1.8-.5-1-.7-2.1-.8-3.1 0 0 0 .2-.1.2q0 .1-.1.3 0 .2-.1.3 0 .2-.1.3 0 .2-.1.3c0 .1-.1.2-.2.3q-.2.2-.5.4l-.4.4q-.3.2-.5.4-.2.1-.5.3-1 .8-2.1 1.4c-.8.4-1.6.8-2.6 1-.5.1-1.1.1-1.5-.1-.5-.3-.8-.8-.9-1.2q-.2.1-.3.2l-.4.2q-.2.1-.3.2l-.4.2c-.4.2-.8.4-1.3.6-1.2.3-2.5.6-3.7.8q-1.4.2-2.7.5 1.2-.6 2.5-1.2c2.2-1 4.5-2.1 6.6-3.3.3-1.1.8-2.2 1.7-3.1-.1.1-.1.3-.2.4-.5.7-.9 1.6-1 2.5l2.8-1.8q.8-.6 1.5-1.3c.1-.1.3-.2.4-.4 0-.1 0-.2-.1-.4-.6-1.2-1.3-2.7-1.9-3.8l.6-1.6c.2.1.4.3.5.5q.6.6 1 1.3c.2.2.2.5.3.7-.3-.1-.4-.4-.7-.5v.1q.7 1 .9 2.1.2.6.2 1.3c-.1.4-.2.9-.4 1.3-.3.4-.6.7-.9 1.1-1.2 1-2.5 2-3.9 2.8 0 .1.1.1.1.1.5.3 1.1.2 1.7.2l1.2-.3c1-.4 1.8-1 2.7-1.6q1.6-1.2 3.1-2.5-.2-.3-.3-.7-.1-.3-.2-.7-.2-.3-.3-.7l-.2-.6-.6-1.5q-.6-.9-1.1-1.9l.4-1.4zm1.6 10.7c.3-.1.6 0 .8.1.1.2.1.4.1.6l-.3.3c-.3.1-.5 0-.7.1-.1 0-.2.1-.3.2-.1.1 0 .3 0 .4.1.4.3.9.3 1.4 0 .2 0 .3-.1.5 0-.3-.2-.5-.3-.8-.1-.5-.2-.9-.3-1.4 0-.2.2-.4.3-.5.2-.2.6-.3.9-.4-.1 0-.2-.1-.3-.1-.2.1-.3.2-.4.3 0-.3.1-.5.3-.7zm15.4 0v-.1h.1l-.3.3c-.2.3-.4.6-.3 1 0 .2.1.4.3.4.1-.1.2-.2.2-.3 0 .3 0 .6-.3.7-.3 0-.5-.2-.5-.4 0-.6.3-1.2.8-1.6zm-29-19zm.8-1.4q.8 1.5 1.3 3c0 .2-.1.4-.1.6l-.6-.8c.1.5.2 1 .2 1.4q.2 1.1.3 2.1.1 1 .3 2.1l.2 2q.1 1.1.2 2.1.5-.3.7-.7l.6-1c.1-.1.3-.2.4-.2.1 0 .2.1.2.2.1.2-.2.5-.2.7.1.2.3.4.5.5.4.1.9.1 1.3 0 .2 0 .5-.1.6-.2q-.1-.1-.1-.2t-.1-.2-.1-.2-.1-.2q.3-.6.6-1.1c.1-.1.1-.2.2-.3.1.5.2.9.2 1.3.1.7-.1 1.5-.5 2.1-.2.3-.6.6-1.1.7-.4.1-.8 0-1.2-.1q-.1-.1-.3-.2l-.2-.2-.2-.2q-.1-.2-.1-.3-.1.1-.2.3l-.3.3q-.1.1-.2.3-.1.1-.3.2.1.9.2 1.7c0 .6-.2 1.2-.4 1.7l-.4.8c-1.2 1.6-2.8 2.9-4.7 4-1.3.7-2.7 1.2-4.1 1.5-.8.2-1.6.4-2.3.4-.9 0-1.7-.1-2.5-.3-.7-.2-1.3-.6-1.7-1.2q-.5.1-1.1.1-.5.1-1 .1H13q1.9-.5 3.8-1.2c-.7-2.8 1-5.9 2.2-7.5-.9 1.4-1.4 2.8-1.5 4.2-.1 1 0 2 .5 2.9q2.3-.8 4.5-1.9c1.2-.6 2.3-1.3 3.4-2.1.5-.3 1-.7 1.4-1.2.1-.1.1-.2 0-.4l-.1-.1v-.2l-.1-.1q0-.1-.1-.2c-.7.2-1.5.4-2.3.4-.4 0-.8-.1-1.2-.2-.3-.2-.5-.5-.6-.7-.2-.4-.1-.8 0-1.2.1-.5.4-1.1.8-1.5.4-.3.8-.5 1.3-.5.6 0 1.1.2 1.5.5.5.4.8.9 1.1 1.4.5-.3 1-.5 1.3-.9.4-.3.8-.6 1.2-.8.2-.1.4-.1.4 0 .1.2 0 .4 0 .6-.2.2 0 .5.2.7.3.3.9.4 1.3.3q-.7-5.6-1.4-11.1c0-.1-.1-.2-.1-.4l.8-1.4zM36.4 40c.1-.1.2-.3.5-.2.2 0 .5.2.5.4q-.1.2-.3.3c0-.1-.1-.3-.3-.3-.3 0-.4.2-.5.4-.2.5-.2.9-.3 1.3q-.1.1-.2.1c0-.4-.1-.8-.4-1.1-.1-.1-.3-.1-.4-.1-.2-.1-.3-.3-.3-.4-.1-.2-.1-.3 0-.4.2 0 .3.1.5.2.3.3.6.6.8 1 0-.4.1-.8.4-1.2zm34.9-3.6c-.3.3-.5.5-.8.7l.3 2.1c0 1.2-.2 2.4-1.1 3.3V39c0-.4-.1-.8-.1-1.1l-1 .8c-.6.6-1.2 1.1-1.9 1.6.7.6 1.1 1.3 1.2 2.1.1.8-.2 1.6-.8 2.2-.6.6-1.4.9-2.3 1.1-.4 0-.8.1-1.2 0v.2q.1.1.1.3v.2q.1.1.1.3c.1.5.3 1.1.7 1.6.2.2.5.5.8.5.4.1.8-.1 1.1-.3.3-.2.4-.4.5-.7.3-.7.4-1.5.8-2.2.3-.5.7-1.1 1.3-1.5q.4-.3.9-.6c.2-.1.5-.2.8-.1.3 0 .4.2.5.4.3.4.4.9.6 1.3.2.4.4.7.8 1 .4.2.9.3 1.4.3.8-.1 2.2-.6 2.3-.8 0-.1-.2-1.3-.2-2q-.6-5-1.1-10.1l-.2-.2q-1.8 1.6-3.5 3.1zm1.8 2.5c.3 0 .6.1.8.2q.6.3.9.8c.1.2.2.4.2.6 0 .1-.1.3-.2.4-.1.1-.3.1-.5 0q-.2-.1-.5-.2c-.2.5-.7.9-1.3 1.3q-.5.3-1.2.6c-.2.1-.5.1-.8.2-.2.1-.5.1-.8.1.2 0 .3-.1.5-.2.8-.3 1.6-.7 2.3-1.2.3-.3.7-.5 1-.9H73c-.1-.4-.1-.7.1-1-.1-.1-.1-.2-.1-.4-.1-.1 0-.2.1-.3zm0 1.2c.1.1.4.2.6.2 0-.1.1-.2.1-.3-.1-.1-.2-.3-.4-.3-.2.1-.2.2-.3.4zm-14.8-1.5c.1-.1.4-.2.6-.2.1 0 .2.1.2.2.1.2.1.5 0 .7q.1.1.2.1v.2q-.1.1-.1.2v.1l-.3-.3-.4.4-.4.4q-.2.1-.4.3-.3.1-.5.2c-.4.1-.8.2-1.2.2.8-.3 1.5-.6 2.1-1.1l.1-.1.2-.2.1-.1q.1-.1.1-.2c-.1 0-.2-.1-.3-.2-.1-.2-.1-.4 0-.6zm.2.2q.1.2.3.3c0-.1.1-.2 0-.3h-.3zM19.9 26.6q.5-.6.9-1.3.7 1.4 1.1 3v.5c-.3-.2-.4-.5-.6-.7.1.8.2 1.6.2 2.3q.2 1.6.3 3.1c.6-.1 1.2-.4 1.6-.8.6-.7.9-1.4.9-2.2 0-1 0-2-.4-3-.1-.1-.2-.3-.2-.5 0-.4.2-.8.4-1.1 0-.1 0-.2.2-.2.2.4.4.9.5 1.4.2.7.3 1.5.4 2.3.1.5.1.9.2 1.4.2.6.6 1.2 1.3 1.6.4.3 1.1.5 1.7.4.4 0 .9-.2 1.2-.4.1-.2.2-.3.1-.5-.6-1.3-1.1-2.6-1.6-3.9q-.1-.1-.1-.3l-.2-.4q0-.1-.1-.3-.1-.2-.1-.3c-.1-.2 0-.3 0-.4q.2-.5.5-1c.2.1.3.2.4.4.5.5.8 1 1.1 1.5q0 .1-.1.2c-.1-.2-.3-.3-.6-.3v.2q.5 1 .9 2c.2.6.5 1.4.5 1.8 0 .5-.1 1.2-.3 1.7-.2.4-.6.9-1.1 1.2-.5.2-1 .2-1.5.1-.7-.1-1.2-.4-1.6-.8-.6-.6-.9-1.3-1.1-2h-.2c-.1.7-.4 1.4-.9 2-.4.6-.9 1.2-1.7 1.4q.2 2.7.4 5.3 0 1.3-.1 2.7c0 .1-.1.2-.1.3q-.1.1-.2.3 0 .1-.1.3 0 .1-.1.2-.1.2-.1.3-.1.1-.1.2c0-1.7-.2-3.3-.4-5q0-.5-.1-1.1 0-.5-.1-1.1 0-.5-.1-1.1v-1.1c-.7 0-1.3-.1-1.8-.5s-.7-.9-.9-1.5q-.1-.7-.1-1.5c.1-.6.3-1.2.5-1.9q.1-.1.1-.3c-.1 0-.1-.1-.1-.1-.1 0-.2 0-.2.1-.4.3-.6.6-.8.9-.4.7-.6 1.5-.7 2.3q-.2.7-.5 1.4c-.2.4-.4.7-.8 1-.4.2-.8.1-1.2 0-.5-.1-.9-.5-1-.8-.4-.7-.4-1.4-.4-2.1q.1-1.1.4-2.3h.2c-.2.9-.3 1.8-.3 2.7.1.4.2.8.4 1.1.2.3.5.6.9.7.3.1.8.1 1.1-.1.3-.2.4-.6.6-.9.2-.7.3-1.6.6-2.3q.5-1.2 1.2-2.2.4-.6.9-1.1c.1-.1.2-.2.4-.2.1 0 0 .1 0 .2 0 .4 0 .7-.2 1.1-.2.7-.4 1.4-.5 2.1-.2.5-.2 1.1.1 1.7.2.4.6.7 1.1.9l.8.2q-.2-3-.5-5.9c0-.3 0-.7-.2-1zM47.4 36q0-.1.1-.1 0-.1.1-.1 0-.1.1-.1 0-.1.1-.1c-.1.2-.1.4 0 .6q.1.4.2.7c.1.2.3.2.5.3.1 0 .3-.1.2-.2q0-.1-.1-.2 0-.1-.1-.2 0-.1-.1-.2 0-.1-.1-.2.1-.2.2-.5h.2c.1.3.3.6.5.9 0 .3-.1.7-.2.9-.1.3-.4.3-.7.3-.3 0-.5-.3-.7-.5-.1.3-.4.5-.7.6-.3.1-.6-.1-.7-.3-.2-.2-.2-.4-.2-.7 0-.3.1-.7.5-.9h.1-.1c-.2.3-.2.8 0 1.1 0 .1.2.2.3.2.2 0 .4-.1.5-.3q0-.5.1-1zM16 35.3c.3-.1.7.1.9.3q.5.4.8.9.1.2.1.3c0 .2-.1.3-.2.5-.1.1-.3 0-.5 0q-.2-.2-.5-.2c-.2.5-.7.9-1.3 1.2q-.6.4-1.3.7-.6.1-1.1.2-.2.1-.4.1.1-.1.2-.1 1.2-.5 2.3-1.2c.5-.3 1-.6 1.3-1q-.3-.1-.5-.1c-.1-.3-.1-.7.1-.9-.1-.1-.1-.3-.1-.4-.1-.2 0-.3.2-.3zm.7.7v.7c.3.1.5.2.8.1.1 0 0-.2-.1-.2-.2-.2-.5-.4-.7-.6zm-.6.1c-.1.1-.2.2-.2.3.2.2.4.2.6.3q0-.1.1-.2c0-.2-.1-.3-.2-.4-.1 0-.3-.1-.3 0zm38.6 10.1c.3-.2.6-.2.9-.2.3 0 .6 0 .9.1.1.1 0 .3-.2.4-.5.2-1 .5-1.5.9-.1.1 0 .2.1.3.2.1.5.1.7.1.6 0 1.1-.2 1.6-.4q.2-.2.4-.3-.1.2-.2.3-.2.1-.3.1l-.2.2q-.2.1-.3.2c-.3.2-.6.3-1 .4-.3 0-.6 0-.9-.1-.3-.2-.4-.5-.3-.7q.1-.2.3-.4c.3-.3.7-.5 1.1-.7H55c-.2 0-.3.1-.4.2 0-.1 0-.3.1-.4zm-2.2-8.7c-.1 0-.2.1-.2.2s.1.1.2.2l.2.2q0 .1.1.1l.2.2.2.2q.7-.2 1.5-.4c-.4-.3-.8-.6-1.3-.7q-.1-.1-.2-.1h-.5q-.1.1-.2.1zm11.4-.6 4.8-2.4c0 .2-.1.5-.4.7q-2.3 1.1-4.6 2.3l.2-.6zm-8-2.1c0-.2-.2-.3-.4-.3q-.2 0-.3.1l.6.4q.1-.1.1-.2zm-20.8-1.7q.7-.4 1.4-.7c0 .2-.1.5-.4.6l-3.2 1.6q.1-.3.3-.6.9-.5 1.9-.9zm50-6.4q.4-.8.8-1.5.6 1.6 1.1 3.2.1.3.1.5v.5l-.2-.2-.1-.1q0-.1-.1-.2 0-.1-.1-.2.1 1.1.2 2.1 0 1.1.1 2.1.1 1.1.2 2.1t.2 2.1c.1.9.2 1.8.2 2.7.1 1.6 0 3.3-.6 4.9q-.4.9-1 1.7c-.5.6-1.2 1.2-2.1 1.6-1.5.7-3.2 1.1-4.9 1.3-.1 0-.2 0-.2-.1q2.3-.9 4.4-2.1c.7-.4 1.3-.8 1.9-1.3.7-.6 1.2-1.3 1.4-2.1.2-.8.2-1.6.1-2.4q-.2-2.7-.5-5.5-.3-4.2-.7-8.5c0-.2-.2-.3-.2-.5-.1-.1 0-.1 0-.1zM65 31.8q.2-.2.4-.3c-.2.2-.1.5 0 .7q.1.3.2.7c.2.1.4.2.6.1.1 0 .1 0 .1-.1l-.4-.8c0-.2.1-.3.2-.5h.2c.1.3.3.6.4.9v.7c-.1.2-.2.4-.4.4-.1.1-.3.1-.5 0-.3 0-.5-.2-.6-.4-.1.2-.4.4-.7.5-.2.1-.6 0-.7-.1-.2-.2-.2-.5-.2-.7 0-.3 0-.5.1-.7.1-.2.2-.3.4-.4q-.1.1-.1.3-.1.1-.1.3v.3q0 .1.1.3c.1.1.2.2.3.2.3 0 .5-.2.6-.3V32c0-.1 0-.1.1-.2zm-38.7-2.4c.6.3 1 .7 1.2 1.3.2.4.2.9.1 1.3l-.2.2c.1-.4.1-.9-.1-1.3s-.6-.7-1.1-.9q0-.3.1-.6zm16.9-.2-.4 1.2c-.1.6-.3 1.2-.1 1.8.2.5.6.9 1.2 1.1q.5.3 1.1.3c.6 0 1.2 0 1.7-.2.6-.3 1-.8 1.3-1.3q.1-.1.2-.3.1-.2.1-.4-.7-.5-1.5-1-.1.2-.3.3c-.2.1-.4.1-.6 0q-.4-.2-.6-.4c-.1.2-.3.4-.7.5-.2.1-.5 0-.6-.1-.2-.2-.3-.4-.3-.6 0-.3 0-.6.2-.9v-.1q.1 0 .1-.1.1 0 .1-.1h.2c-.2.3-.3.6-.2.9 0 .2.1.4.3.5.3 0 .5-.2.6-.3q.1-.3.1-.7-.8-.5-1.7-1c0 .3-.2.6-.2.9zm21.3-.7q1.2-.5 2.5-.8c0 .1-.1.3-.3.4l-3.6 1.2c-.3.2-.5.3-.7.4.2.1.3.2.5.2v.4c-.2-.1-.5-.2-.7-.3q0-.2.1-.5c0-.1.2-.2.3-.3.6-.3 1.2-.5 1.9-.7zm-38-1.4h.1c-.1.1-.1.2-.1.3q.1.3.2.5c0 .1.2.2.2.2.1 0 .3 0 .3-.1-.1-.1-.2-.3-.3-.5.1-.1.1-.2.1-.3h.2c0 .2.2.4.3.6 0 .2-.1.4-.2.6 0 .1-.2.1-.4.1s-.3-.2-.5-.3c0 .2-.3.4-.5.4s-.4-.1-.5-.3q-.1-.3 0-.6c.1-.2.2-.3.4-.4-.2.2-.2.4-.1.7 0 .1.1.2.2.2s.3-.1.4-.2v-.7c0-.1.2-.1.2-.2zm7-.4zm.3.1c.4.3.8.7 1 1.2.2.4.2.8 0 1.3q0 .1-.1.2v-.1c.1-.4 0-.8-.1-1.1-.3-.4-.7-.8-1.1-1v-.6c.1 0 .2.1.3.1zm3.9-.5c.2-.2.5-.4.8-.3.1 0 .3.1.3.2q.2.4.1.8c.2.2.4.3.5.6.2.3 0 .7-.1 1-.2.4-.5.7-.6 1.2 0 .1.1.2.2.2.2 0 .3-.2.3-.4.1 0 .2 0 .2.1.1.2-.1.4-.1.5-.1.2-.2.3-.4.4-.2 0-.3-.1-.4-.2-.2-.3-.1-.7.1-1 .2-.4.5-.9.5-1.4q0-.4-.3-.6c-.3.6-.8 1.1-1.3 1.6-.2.3-.6.4-1 .6l-1 .4c.7-.4 1.3-.9 1.9-1.3.4-.5.9-.9 1-1.5-.2-.1-.5-.2-.7-.5v-.4zm.3.1c-.1 0 0 .1 0 .1q.3.1.5.2c0-.1 0-.3-.1-.4-.1 0-.3 0-.4.1zm26.7-.3c.1-.1.2-.3.4-.2.2 0 .4.1.5.2.1.1.1.2 0 .3 0 .1-.1.1-.2.2-.1-.1-.1-.3-.3-.3-.3 0-.4.3-.5.5-.2.4-.2.8-.3 1.2q-.1.1-.2.1c0-.4-.1-.9-.5-1.2-.2 0-.4 0-.5-.2-.1-.2-.2-.4-.1-.6.2 0 .3.1.5.2.3.3.6.6.8.9.1-.3.1-.7.4-1.1zm-50.8.1c.1-.1.2-.3.4-.4-.3.6-.6 1.1-.7 1.6-.1.2-.1.4.1.6.1.1.4.1.6.1.2-.1.3-.3.4-.4h.1c-.1.4-.3.8-.6 1.1-.3.2-1 .1-1.1-.2-.1-.3-.1-.5 0-.8.1-.5.4-1.1.8-1.6zm31.8 3.7c.1.1.2.1.4.2h.2l-.6-.4v.2zM14 42.2c.2-.2.3-.4.6-.6-.4.5-.7 1-.8 1.6-.1.2-.1.4.1.6.1.1.3.2.5.1.3 0 .4-.3.5-.4.1.1 0 .2 0 .4-.1.3-.3.6-.6.8-.2.1-.6 0-.8-.1-.3-.2-.3-.5-.2-.8.1-.6.4-1.1.7-1.6zm10.3-4.1c-.2.1-.5.2-.5.4s.3.2.5.2q.8.2 1.7 0c-.3-.3-.7-.5-1.2-.6h-.5zm3.8 1.5zm-.4 2.2c-.1.3-.2.6-.4.8-1.1 1.1-2.4 2-3.9 2.8l-1 .6q-.5.2-1 .5l-1 .4q-.6.2-1.1.4.4.2.8.2c.7.2 1.4.1 2.1 0 2.3-.3 4.4-1 6.2-2.1q1.8-1 3.3-2.4c.3-.3.7-.7.7-1.1q-.1-1.1-.2-2.1c-.5.1-1.1.2-1.6-.1-.5-.3-.7-.9-.8-1.4q-.7.8-1.7 1.3.1 1.2-.4 2.2zm27.8-16.1c.1-.1.2-.3.4-.4-.3.5-.6 1-.7 1.5-.1.2-.1.5.1.7q.3.1.5 0c.3 0 .4-.2.5-.4q.1.1 0 .2c-.1.3-.2.7-.5.9-.3.3-1 .1-1.1-.2-.2-.4 0-.7.1-1q.3-.7.7-1.3zM14.1 40.2q2.4-1.2 4.7-2.4c0 .3-.1.6-.4.7q-2.3 1.1-4.5 2.2v.1h-.1q.1-.3.3-.6zm68-8.7c.8.4 1.3 1 1.7 1.6.3.6.3 1.3 0 1.9q0 .2-.2.2c.2-.4.2-.8 0-1.3-.2-.6-.8-1.2-1.5-1.5v-.9zm-7.4 17.3q2.7-1 5.3-2c-.1.2-.2.5-.5.6q-2.5 1-4.9 1.9-.1.1-.3.1.1-.2.3-.5 0-.1.1-.1zM76 32.3q.1.2.1.5l.2.2.2.2.2.2q.2.1.3.2c1.1 1 2.3 2 3.4 3q-.3-3.8-.5-7.5l-1 .8-1 .8q-.4.4-.9.8l-1 .8zM73.6 30q.1.2.3.3.1.2.3.4.1.1.2.3l.3.3q0-.6-.1-1.2v.1c-.3-.1-.7-.2-1-.2zm.3 9.7v.7c.3 0 .5.1.7.1.1 0 .1-.2.1-.2-.3-.3-.5-.4-.8-.6z" style="fill:#fff"/></svg>