<svg version="1.2" xmlns="http://www.w3.org/2000/svg" viewBox="0 0 100 100"><defs><clipPath clipPathUnits="userSpaceOnUse" id="a"><path d="M50 100C22.35 100 0 77.65 0 50S22.35 0 50 0s50 22.35 50 50-22.35 50-50 50z"/></clipPath></defs><g clip-path="url(#a)"><path d="m0 0 1.6 4.3L0 8.8v4.5l6.3 10.5L0 34.4v6.2L6.3 50 0 59.4v6.2l6.3 10.6L0 86.7V100l4.3-1.6 4.5 1.6h4.5l10.5-6.3 10.6 6.3h6.2l9.4-6.3 9.4 6.3h6.2l10.6-6.3 10.5 6.3H100l-1.6-4.3 1.6-4.5v-4.5l-6.3-10.5 6.3-10.6v-6.2L93.7 50l6.3-9.4v-6.2l-6.3-10.6 6.3-10.5V0l-4.3 1.6L91.2 0h-4.5L76.2 6.3 65.6 0h-6.2L50 6.3 40.6 0h-6.2L23.8 6.3 13.3 0z" style="fill:#eee"/><path fill-rule="evenodd" d="M86.7 0 65.6 21.1V0zM100 34.4H78.9L100 13.3zM0 13.3l21.1 21.1H0zM34.4 0v21.1L13.3 0zM13.3 100l21.1-21.1V100zM0 65.6h21.1L0 86.7zm100 21.1L78.9 65.6H100zM65.6 100V78.9L86.7 100z" style="fill:#0052b4"/><path fill-rule="evenodd" d="M59.4 0v40.6H100v18.8H59.4V100H40.6V59.4H0V40.6h40.6V0zm-25 34.4h-8.8L.1 8.8V0zM100 0 65.6 34.4v-8.8L91.2 0zM34.4 74.4 8.8 100H0l34.4-34.4zm40-8.7L100 91.2v8.8L65.6 65.7z" style="fill:#d80027"/></g></svg>