<svg xmlns="http://www.w3.org/2000/svg" width="411" height="411"><path d="M57.631-.381A1820.817 1820.817 0 0 1 72.54-.392c3.932.007 7.865-.004 11.798-.012 7.69-.013 15.38-.01 23.07-.002 6.253.007 12.506.008 18.758.005l2.702-.002c1.812 0 3.623-.002 5.435-.003 16.966-.008 33.932.002 50.897.018 14.544.013 29.087.01 43.63-.003a33937.346 33937.346 0 0 1 56.14-.01l2.69.001c6.242.003 12.484-.002 18.726-.009 7.612-.008 15.222-.006 22.833.01 3.88.008 7.76.011 11.64.001 4.213-.01 8.425.002 12.638.017l3.686-.02c13.552.093 27.948 3.93 38.1 13.46 12.436 14.048 15.876 28.243 15.852 46.699l.007 3.902c.006 3.564.006 7.128.004 10.692 0 3.848.006 7.696.01 11.545.009 7.535.011 15.07.012 22.606 0 6.128.003 12.256.006 18.383.009 17.385.013 34.77.012 52.154v5.681c0 15.194.01 30.388.023 45.583.015 15.612.022 31.225.02 46.837 0 8.76.003 17.522.014 26.282.01 7.46.011 14.92.005 22.381-.004 3.803-.004 7.606.005 11.41.01 4.13.003 8.262-.005 12.393l.016 3.606c-.07 17.162-3.766 31.08-15.943 43.67-13.002 11.864-27.468 14.432-44.583 14.378l-3.921.011c-3.563.01-7.125.008-10.688.004-3.853-.002-7.707.007-11.56.014-7.539.013-15.077.015-22.615.012-6.131-.001-12.262 0-18.393.005l-2.65.001-5.329.004c-16.64.01-33.28.009-49.922.003-15.202-.006-30.404.006-45.607.025-15.633.02-31.266.027-46.899.024-8.767-.002-17.534 0-26.302.014-7.464.012-14.928.014-22.392.002-3.804-.006-7.607-.008-11.41.005-4.135.012-8.27.002-12.405-.01l-3.591.022C40.849 411.293 25.915 407.42 14 396 2.935 383.028-.313 370.513-.26 353.736c-.005-1.318-.008-2.636-.012-3.994-.01-3.64-.008-7.279-.004-10.918.002-3.933-.007-7.865-.014-11.798-.013-7.697-.015-15.394-.012-23.091.001-6.259 0-12.518-.005-18.776l-.001-2.703-.004-5.435c-.01-16.981-.009-33.962-.003-50.943.006-15.521-.006-31.042-.025-46.563-.02-15.951-.027-31.903-.024-47.854.002-8.95 0-17.9-.014-26.849-.012-7.62-.014-15.239-.002-22.858.006-3.884.007-7.768-.005-11.652-.01-3.563-.007-7.125.007-10.687a696.13 696.13 0 0 0-.019-5.654c.1-15.83 4.747-29.019 15.721-40.602C27.632 2.507 41.57-.469 57.631-.38ZM23.25 28.875c-5.004 6.95-7.368 13.105-7.384 21.723l-.014 3.398v3.718l-.01 3.961c-.01 3.628-.014 7.255-.017 10.882-.004 3.913-.013 7.826-.022 11.74-.02 9.448-.03 18.896-.039 28.345l-.015 13.354a67304.665 67304.665 0 0 0-.044 55.923l-.002 2.892a29643.37 29643.37 0 0 1-.066 46.37c-.033 15.876-.05 31.752-.054 47.628-.002 8.91-.01 17.822-.036 26.733-.022 7.59-.03 15.178-.02 22.768.004 3.87.002 7.739-.017 11.609-.021 4.202-.01 8.403.002 12.605l-.033 3.678C15.567 367.903 18.683 377.55 27 386c9.708 8.387 20.901 9.45 33.29 9.381l3.93.014c3.57.013 7.14.007 10.71-.003 3.862-.007 7.724.004 11.585.012 7.553.013 15.106.01 22.66.002 6.14-.007 12.28-.008 18.421-.005l2.653.002 5.336.003c16.66.008 33.319-.002 49.979-.018 14.283-.013 28.566-.01 42.849.003a32723.905 32723.905 0 0 0 55.125.01l2.641-.001c6.13-.003 12.262.002 18.393.009 7.474.008 14.949.006 22.423-.01 3.811-.008 7.622-.011 11.433-.001 4.136.01 8.272-.002 12.409-.017l3.627.02c12.405-.087 22.148-3.196 31.286-11.713 8.777-9.237 9.549-20.426 9.517-32.597l.014-3.916c.012-3.57.012-7.142.01-10.713 0-3.858.01-7.715.02-11.573.016-7.553.022-15.105.023-22.658.001-6.142.005-12.284.012-18.426a47691.786 47691.786 0 0 0 .025-55.131v-2.85c-.001-15.228.018-30.457.046-45.686.029-15.653.042-31.305.04-46.957 0-8.781.005-17.563.027-26.344.018-7.478.023-14.956.009-22.433-.006-3.812-.007-7.623.01-11.434.02-4.142.007-8.284-.009-12.426l.032-3.606c-.09-10.997-2.217-21.488-9.546-30.004-9.7-9.47-20.013-11.387-33.175-11.322l-3.972-.016c-3.618-.014-7.236-.01-10.855-.003-3.91.005-7.82-.008-11.73-.018-7.653-.017-15.305-.018-22.958-.013a12372.182 12372.182 0 0 1-21.352-.005l-5.404-.004c-16.88-.014-33.76-.009-50.64.003-15.43.01-30.861-.003-46.292-.027-15.858-.024-31.716-.034-47.573-.027-8.898.003-17.796 0-26.693-.017-7.575-.014-15.15-.015-22.724.002-3.861.009-7.723.011-11.584-.004-4.194-.017-8.386-.002-12.58.016l-3.668-.03c-12.903.112-22.622 4.093-31.53 13.406Z"/><path d="m205.778 142.369 2.864-.038 3.08.04 3.2-.007c2.237 0 4.474.014 6.71.04 3.394.033 6.785.02 10.179 0 2.179.007 4.358.017 6.537.03l3.038-.015c13.032.213 23.427 5.582 32.864 14.331 8.67 9.016 11.83 21.006 11.75 33.25-1.484 13.3-6.523 24.484-17 33-12.28 8.99-24.553 9.424-39.187 9.188-1.637-.016-3.273-.03-4.909-.042-3.968-.032-7.936-.084-11.904-.146l.08 2.766c.085 3.402.147 6.802.195 10.204.025 1.47.059 2.939.102 4.408.061 2.118.09 4.234.111 6.352l.08 3.857c-.718 4.312-2.173 5.75-5.568 8.413-3 .625-3 .625-6 0-2.937-2.05-4.734-3.683-5.46-7.282-.186-2.931-.204-5.825-.171-8.763l-.022-3.377c-.017-3.683.003-7.364.024-11.047 0-2.559-.003-5.118-.007-7.677-.003-5.364.011-10.727.04-16.09.031-6.194.031-12.389.014-18.583a3252.13 3252.13 0 0 1 .008-17.9c.005-2.536.004-5.072-.002-7.608-.005-3.543.015-7.085.043-10.628l-.02-3.18c.057-4.366.156-7.143 2.288-11.016 2.604-2.126 3.72-2.476 7.043-2.48ZM213 158v58l16.375.25 5.103.11c9.492.121 17.149-.496 25.108-6.22 6.415-6.78 9.929-12.955 10.664-22.327-.697-10.628-5.002-18.175-12.937-25.188C242.873 155.541 229.2 158 213 158ZM141.965 142.504c3.095.754 4.013 1.99 6.035 4.496 1.502 3.34 2.611 6.793 3.743 10.273l1.06 3.165c1.155 3.452 2.291 6.909 3.427 10.367l2.398 7.204c1.674 5.033 3.34 10.068 5 15.106a5892.211 5892.211 0 0 0 5.777 17.436c1.864 5.599 3.722 11.199 5.577 16.8.788 2.379 1.577 4.757 2.367 7.136 1.104 3.325 2.2 6.653 3.296 9.981l.99 2.976c3.954 12.07 3.954 12.07 2.053 16.869C182 267 182 267 180 268c-3.596.4-5.434.355-8.532-1.59-3.011-2.94-3.86-5.297-5.144-9.293l-.651-1.986c-.677-2.08-1.331-4.168-1.986-6.256-.457-1.41-.916-2.82-1.376-4.23C159 234.41 159 234.41 159 232l-37 1c-3.455 10.391-3.455 10.391-6.88 20.792-.44 1.306-.88 2.61-1.323 3.915l-.658 2.047c-1.335 3.89-2.451 6.272-6.139 8.246-4.009.682-5.521.316-8.938-1.938-2.557-3.797-2.169-5.157-1.563-9.495.9-4.613 2.37-9.008 3.872-13.455l1.05-3.182a2682.29 2682.29 0 0 1 3.446-10.328c.8-2.402 1.598-4.803 2.396-7.204 1.67-5.02 3.347-10.038 5.029-15.055a5395.517 5395.517 0 0 0 5.795-17.397c1.855-5.595 3.72-11.186 5.589-16.776.793-2.375 1.583-4.75 2.37-7.127 1.1-3.313 2.21-6.623 3.325-9.931l.982-2.985.926-2.727.792-2.37c2.23-4.876 4.613-5.373 9.894-5.526ZM140 177c-3.504 8.193-6.158 16.611-8.75 25.125l-1.246 4.055c-1.007 3.272-2.005 6.546-3.004 9.82h26c-1.279-5.755-2.521-10.929-4.383-16.441l-.664-1.98a2023.48 2023.48 0 0 0-2.078-6.142l-1.418-4.212c-1.148-3.41-2.3-6.818-3.457-10.225h-1ZM310 143c3.185 1.76 3.833 2.499 5 6a79.25 79.25 0 0 1 .14 4.617l.018 2.872.003 3.145.015 3.317c.015 3.628.022 7.257.027 10.885l.017 7.552c.01 4.605.016 9.211.019 13.817.004 6.775.022 13.55.05 20.326.025 5.872.033 11.743.035 17.615.003 2.497.01 4.993.024 7.49.017 3.49.015 6.98.008 10.47l.028 3.134c-.051 8.847-.051 8.847-3.384 12.76-2.853 1.427-4.835 1.31-8 1-2.66-1.324-2.66-1.324-5-4-.765-3.7-.672-7.364-.631-11.13l-.022-3.441c-.017-3.758.003-7.515.024-11.273 0-2.608-.003-5.215-.007-7.823-.005-5.468.011-10.935.04-16.403.031-6.319.031-12.637.014-18.956-.016-6.082-.01-12.163.008-18.245.005-2.587.004-5.174-.002-7.76-.005-3.613.015-7.225.043-10.838l-.02-3.253c.093-7.201.093-7.201 2.368-10.546 3.21-1.957 5.502-1.792 9.185-1.332Z"/></svg>