<svg version="1.2" xmlns="http://www.w3.org/2000/svg" viewBox="0 0 411 411" width="100" height="100"><style>.a{fill:#fff}</style><path fill-rule="evenodd" class="a" d="M57.6-.4c-16-.1-30 2.9-42.3 13.8A56.9 56.9 0 0 0-.5 54l.1 1.4v1.4l.1 1.4V104.8l-.1 43V234l.1 43v76.7q-.4 5.7.4 11.4.7 5.7 2.6 11.2 1.8 5.4 4.7 10.4 2.8 5 6.6 9.3a59.9 59.9 0 0 0 43.1 15.4l3.5-.1H106.9l42.2.1H233.4l42.2-.1h75.1c17.2 0 31.6-2.6 44.6-14.4a57.9 57.9 0 0 0 15.9-43.7v-44.7l-.1-41.3.1-41.3v-70.2l.1-23.3-.1-23.2V59.8c0-18.5-3.5-32.7-16-46.7a55.4 55.4 0 0 0-38-13.5H57.6zM23.2 29c9-9.4 18.6-13.4 31.6-13.4h94.5l30.3.1H352.8c13.2-.1 23.5 1.9 33.2 11.3 7.3 8.6 9.5 19 9.5 30v15.1l.1 11.6-.1 11.5v11.6l-.1 29.7-.1 29.8V351.1c0 12.2-.8 23.4-9.5 32.6a42.7 42.7 0 0 1-31.3 11.7H60.3c-12.4 0-23.6-1-33.3-9.4a39.8 39.8 0 0 1-11.5-29.8v-64.4l.1-30.3.1-30.3V154l.1-14V84.4l.1-11.7v-22A34 34 0 0 1 23.2 29z"/><path fill-rule="evenodd" class="a" d="M310 143v.1c-3.7-.5-6-.7-9.2 1.3-2.3 3.4-2.3 3.4-2.4 10.6V167.3l-.1 9.2.1 9.3v18l-.1 8.9.1 8.9v31.3a46 46 0 0 0 .6 11.1c2.3 2.7 2.3 2.7 5 4 3.2.3 5.1.4 8-1 3.3-3.9 3.3-3.9 3.3-12.8v-58l-.1-14.8v-7.6l-.1-10.8V150.1l-.1-1.1c-1.2-3.5-1.8-4.2-5-6zm-168-.5c-5.3.2-7.7.7-9.9 5.5l-.8 2.4-.9 2.7-1 3-2.8 8.4-2.9 8.5-2.8 8.4-2.8 8.5-1.4 4.4-1.5 4.4-1.4 4.3-1.5 4.4-5 15-2.4 7.2-.9 2.6-.9 2.5-.8 2.6-.9 2.6-1 3.2c-1.5 4.5-3 8.9-3.9 13.5-.6 4.4-1 5.7 1.5 9.4 3.5 2.3 5 2.7 9 2 3.7-2 4.8-4.4 6.1-8.2l.7-2 1.3-4L122 233l37-1c0 2.4 0 2.4 3.3 12.6l1.4 4.3 2 6.2.6 2 .8 2.6 1.1 2.4 1.5 2.3q.8 1.1 1.8 2c3.1 2 4.9 2 8.5 1.6 2-1 2-1 3.6-3.7 2-4.8 2-4.8-2-16.8l-1-3-2.8-8.5-2.8-8.5-2.8-8.4-2.8-8.5-1.5-4.4-1.4-4.3-1.5-4.4-1.4-4.4-5-15.1-2.4-7.2-3.4-10.4-1.1-3.1A90 90 0 0 0 148 147c-2-2.5-3-3.7-6-4.5zm-2 34.5h1l3.5 10.2 1.4 4.2.5 1.5.6 1.6.5 1.5.5 1.6.6 2c1.9 5.4 3.1 10.6 4.4 16.4h-26l3-9.9 1.2-4c2.6-8.5 5.3-16.9 8.8-25.1zm65.8-34.6-.1.1c-3.2 0-4.4.3-7 2.5a20.6 20.6 0 0 0-2.3 11V203.9l-.1 8.7.1 8.6V252c-.1 2.9 0 5.7.1 8.7.8 3.6 2.5 5.3 5.5 7.3 3 .6 3 .6 6 0 3.4-2.7 4.9-4.1 5.5-8.4v-3.8l-.1-5.3-.1-5.2-.1-5.3-.2-5.2V232h4.2l4.2.1h4.2l4.2.1c14.6.2 26.9-.2 39.2-9.2q3.7-3 6.7-6.8 3-3.7 5.2-8 2.2-4.2 3.5-8.8 1.3-4.6 1.6-9.4a46.4 46.4 0 0 0-11.7-33.3q-3.2-3.3-7.1-5.9-3.8-2.6-8-4.5-4.3-1.8-8.8-2.8-4.5-1-9.1-1.1H227.7l-4.3-.1-4.3.1h-4.2zM213 158c16.2 0 29.9-2.4 44.3 4.6 7.9 7 12.3 14.6 12.9 25.2a33.2 33.2 0 0 1-10.6 22.3c-8 5.8-15.6 6.4-25.2 6.2h-5L213 216z"/></svg>