<svg version="1.2" xmlns="http://www.w3.org/2000/svg" viewBox="0 0 512 512" width="100" height="100"><style>.a{fill:#fff}</style><path fill-rule="evenodd" class="a" d="M288.8-.2c-52.8.5-107.1 27-141.6 66.6L145 69a150 150 0 0 0-23.3 31.6c-5.6 12-9.6 20-21.6 26.2-39.7 20.3-69.4 65.9-83.4 106.8A209.4 209.4 0 0 0 29 393.8l1.1 2.1c2.2 5.2 1.8 8.4 0 13.7l-.9 2.6-2 5.8-3.2 9.3-2 5.9-1.9 5.8-2 5.9-2 5.9-1.8 5-1.7 5-1.7 5.1-1.7 5-3.2 9.5-2.1 6-.9 2.8-.5 1.3-.4 1.3-.5 1.2-.4 1.3c-1.6 5.4-2.6 11.2.2 16.3 4.9 2.7 10.4 2 15.7.5l10.5-2.9 2.5-.6 27-7.1 13-3.4 16-4.2 6.1-1.6 8.8-2.3 2.6-.7c6.1-1.6 14.5-5 20.5-2.4a162.6 162.6 0 0 0 49 16.3c53.3 9.6 108.9-.3 154.1-30.9l1.8-1.3c27.9-19 51.2-45.2 66.6-75.3l1.4-2.7c9.5 2.1 18.9 4.5 28.3 7l3.8 1 3.8 1 3.7 1 3.8 1 19.3 5.1 4 1.1 4 1 4 1.1 4 1.1 6 1.6 8.7 2.3 2.7.7c4.3 1.1 7.8 2.1 12.3 1.7 3.4-.9 4.7-1.7 6.6-4.7a35 35 0 0 0-1.9-15.7l-.8-2.4-2.8-8.2-2-5.9-5.2-15.4-8.5-25.2-3-8.9-1.9-5.5-.9-2.7c-1.1-3-2.1-6-3-9.1-1.6-5.8-2.6-9.3.4-14.7l.5-1 .6-1 .6-1 .5-1 1.2-2.1c19.2-35.4 24.4-81.6 17.8-120.8l-.6-3.4a202.9 202.9 0 0 0-18.8-56.8L483 111c-7-13.3-14.8-25.5-24.4-37.1L457 72c-4.1-4.9-8.3-9.5-13.1-13.7-1.9-1.6-3.8-3.2-5.5-4.9l-.8-.9-.8-.9-.9-.8-.8-.9C395.9 13.5 343.4-.8 291.2-.3zM77.5 168.6c42.8-42.7 103.7-65.9 164.3-55.2l3.2.7c46.9 9 87.9 33.6 117.1 71.4l1.9 2.6c14.7 19.3 26.4 43 31.6 66.8l.4 2.2c9.1 42.9 5.2 86.6-14.9 125.9l-1.1 2.1a190.5 190.5 0 0 1-32.7 46c-39.8 38.9-87.8 56.6-142.9 56.2h-2.3c-13-.1-41.3-1.5-51.1-11.2 6.8-1.4 13.6-2.9 20.3-4.5l2-.5c3.8-1 3.8-1 6.7-2 2-3 2-3 2.3-5v-2c0-3.4-.3-4-2.3-7a30.2 30.2 0 0 0-15.5 0l-2.3.6-7.8 1.8-5.2 1.1c-28.2 6.3-28.2 6.3-84.5 21.4l-11.4 3-4.3 1.2c-8.6 2.3-17.1 4.5-26 5.9 0-3.1.8-5.5 1.8-8.4l.7-2.3 1.6-4.8 2.7-7.9 7.7-22.6 1.2-3.6 1.2-3.5 1.1-3.5 1.2-3.6 1.8-5.3 2.7-7.7.8-2.4c2.2-6.5 4.9-13.8 2.4-20.5l-1-1.5-.9-1.6-.9-1.5-1-1.6a182.7 182.7 0 0 1-16.7-132.4l.6-2.3a194 194 0 0 1 24-55l2-3a196 196 0 0 1 21.5-26.5zM262 21.1c12-2.8 23.9-3.3 36.1-3.3h2.4c9.4-.1 18.5.1 27.7 1.7l2.8.6a187.5 187.5 0 0 1 102.6 53.6l1.8 2c5.5 5.9 10.7 11.9 15.5 18.3l2.1 3.1a182.7 182.7 0 0 1 24.3 46.8l.7 2.2q1.8 5.1 3.3 10.2a187.2 187.2 0 0 1-16.9 140.4l-2 3.3c-2.4 5.3-1.6 10.1.2 15.6l.7 2 2.3 6.8 1.6 4.8 4.4 12.8 1.7 5.2 1.8 5.3 1.8 5.2 1.7 5.2 2.5 7.3a336 336 0 0 1 7.9 25.9c-3 .1-3 .1-6-.7l-3.9-1-6.6-1.8-4.8-1.2-10-2.6-3.3-.9-3.2-.8-3.3-.8-3.2-.9-10.2-2.6-4.8-1.3-6.9-1.8-2.2-.5c-5.3-1.4-10.4-3.1-15.6-5.1.9-3.5 1.7-6.9 2.7-10.3a220.8 220.8 0 0 0 7.2-101.5c-9.3-53-40.7-99.6-83.9-130.8l-2-1.4a192.8 192.8 0 0 0-84.4-33.7l-2.6-.3c-34.2-4.4-65.9.3-99 9.4l-2 .6c-.1-2.1-.1-2.1 1.2-3.9a195.3 195.3 0 0 1 117.5-80.6z"/><path fill-rule="evenodd" class="a" d="M326.8 269.8c-14.3-9-31-7.6-43.8 3.2a37.4 37.4 0 0 0-10.4 28.3c.2 9.7 4.7 17.1 11.5 23.8 8.6 7 16.3 8.5 27.2 8.2 10.9-1 18.1-6.9 25-15a37.1 37.1 0 0 0 5.3-26.3c-1.8-9.6-7-16.6-14.9-22.3zm-33.1 18.9a18.3 18.3 0 0 1 18.1-6.3c4.4 1.3 6.9 3.8 9.6 7.5 2.6 4.4 3.2 8 2.3 13.1-1.4 5-3.9 8-8.4 10.5a19.5 19.5 0 0 1-15.2.6c-4.4-3.2-7.2-5.7-9-11-.5-5.4-.4-9.8 2.6-14.4zm-59.5-18.1c-16.1-10.9-34.2-7.7-48 5.2a44 44 0 0 0-7.1 30.3 38.1 38.1 0 0 0 16.7 22.7l2.3 1.3 3.6 1.9a37 37 0 0 0 25.6-.9l1.8-1c4.3-2.3 7.8-4.7 11-8.3a39.6 39.6 0 0 0 7.7-30.3 39.7 39.7 0 0 0-13.6-20.9zm-33.7 17.2c4.6-4.9 9.9-6.4 16.6-5.7 5.2 1.7 8.9 5.4 11.9 9.9a18 18 0 0 1-.4 14.2 18.5 18.5 0 0 1-10.5 8.9c-5.4.7-9.9.4-14.4-2.6a19.9 19.9 0 0 1-7-11.6c-.3-5.1.8-8.9 3.8-13.1zm-61.1-18a35.8 35.8 0 0 0-41.3 1.3 34.9 34.9 0 0 0-13.3 24.3 40 40 0 0 0 9.8 28.5 36.1 36.1 0 0 0 25.4 9.6c9.6-.1 18.2-3.6 25.2-10.4 7.7-9.3 10-19.1 8.9-31a38 38 0 0 0-14.7-22.3zm-32.1 17.7a19 19 0 0 1 15.8-5.4c5.2 1.7 8.9 5.4 11.9 9.9a18 18 0 0 1-.4 14.2 18.5 18.5 0 0 1-10.5 8.9c-5.3 1-9.9.4-14.4-2.6a19.8 19.8 0 0 1-7-11.5c-.1-5.7 1-9.3 4.6-13.5z"/></svg>