<svg xmlns="http://www.w3.org/2000/svg" width="512" height="512"><path d="m288.75-.238 2.447-.03c52.236-.503 104.717 13.756 143.885 50.205a218.377 218.377 0 0 1 3.32 3.43c1.736 1.774 3.574 3.348 5.473 4.946 4.816 4.19 9.03 8.799 13.125 13.687l1.572 1.871C468.206 85.473 476 97.655 483 111l1.163 2.197C493.407 130.915 499.415 150.38 503 170l.645 3.375c6.557 39.253 1.362 85.437-17.872 120.79l-1.14 2.129a119.152 119.152 0 0 1-2.27 3.99c-2.972 5.433-1.97 8.934-.363 14.716.923 3.073 1.938 6.107 2.981 9.14l.888 2.62c.63 1.863 1.264 3.724 1.898 5.584 1.006 2.95 2.004 5.903 3 8.856 2.83 8.392 5.669 16.78 8.525 25.163 1.752 5.142 3.49 10.288 5.22 15.437.66 1.954 1.324 3.906 1.993 5.856.937 2.73 1.857 5.466 2.773 8.203l.84 2.41c1.724 5.226 2.623 10.22 1.882 15.731-1.94 2.985-3.185 3.773-6.59 4.721-4.463.365-8.044-.593-12.33-1.763-.877-.23-1.755-.458-2.659-.694-2.895-.76-5.785-1.535-8.675-2.31-2.023-.534-4.046-1.067-6.069-1.598a5073.863 5073.863 0 0 1-15.979-4.238c-6.432-1.712-12.869-3.41-19.305-5.108a6944.497 6944.497 0 0 1-15.047-3.985c-9.417-2.503-18.827-4.938-28.346-7.025l-1.363 2.719C380.237 424.823 356.936 450.987 329 470l-1.849 1.268c-45.148 30.597-100.77 40.538-154.077 30.955-16.4-3.175-34.346-7.918-48.936-16.292-6.013-2.619-14.438.74-20.494 2.354l-2.689.7c-2.906.758-5.81 1.525-8.713 2.292l-6.099 1.596c-5.335 1.396-10.668 2.8-16 4.205-4.349 1.144-8.699 2.283-13.048 3.422-9.001 2.356-18 4.716-26.998 7.086l-2.488.653c-3.514.927-7.018 1.872-10.507 2.89-5.313 1.491-10.771 2.147-15.727-.567-2.728-5.083-1.757-10.881-.153-16.255a335.748 335.748 0 0 1 1.731-5.062l.951-2.817c.678-2.004 1.363-4.006 2.053-6.006 1.092-3.165 2.167-6.335 3.238-9.508a6026.1 6026.1 0 0 1 6.867-20.164 6826.048 6826.048 0 0 0 7.963-23.417c1.06-3.123 2.134-6.242 3.21-9.36l1.941-5.736.918-2.623c1.762-5.274 2.239-8.499.001-13.729l-1.099-2.123C3.793 343.779-.73 286.807 16.75 233.555c13.97-40.847 43.684-86.433 83.367-106.723 11.967-6.27 15.971-14.225 21.589-26.231C127.53 88.897 136.39 78.73 145 69l2.234-2.605C181.734 26.796 236.01.295 288.75-.238ZM262 21l-2.348.52c-49.073 11.161-88.69 39.826-117.507 80.59-1.318 1.807-1.318 1.807-1.145 3.89l1.973-.549C176.028 96.34 207.723 91.592 242 96l2.596.33c29.82 4.096 59.964 16.175 84.404 33.67l1.977 1.412c43.226 31.235 74.588 77.829 83.908 130.82 5.474 34.588 3.059 68.102-7.222 101.526-1.002 3.388-1.836 6.807-2.663 10.242 5.145 1.998 10.213 3.691 15.562 5.085l2.146.563c2.311.604 4.624 1.203 6.937 1.801l4.854 1.265c3.375.88 6.752 1.756 10.129 2.63a6221.9 6221.9 0 0 1 12.986 3.38c3.334.87 6.669 1.736 10.004 2.601 1.597.415 3.193.831 4.79 1.248 2.225.58 4.45 1.156 6.677 1.73l3.837.996c3.04.812 3.04.812 6.078.701-2.21-8.768-5.036-17.287-7.947-25.839-.832-2.446-1.658-4.894-2.483-7.342a7654.025 7654.025 0 0 0-7.054-20.852c-1.452-4.27-2.893-8.542-4.328-12.818-.546-1.62-1.096-3.238-1.65-4.855-.773-2.26-1.533-4.524-2.29-6.79l-.695-1.996c-1.805-5.475-2.576-10.25-.155-15.594l1.977-3.289c23.98-42.202 29.621-93.72 16.914-140.366-1.003-3.453-2.115-6.86-3.289-10.259l-.745-2.165C471.397 127.17 463.386 111.314 453 97l-2.191-3.055c-4.79-6.453-9.952-12.444-15.434-18.32l-1.846-1.981C406.452 45.094 369.47 26.964 331 20l-2.804-.537c-9.28-1.627-18.37-1.82-27.759-1.776l-2.405.006c-12.227.047-24.068.584-36.032 3.307ZM77.475 168.52C69.435 176.71 62.478 185.537 56 195l-2.078 3.031C42.978 214.936 35.22 233.604 30 253l-.644 2.354c-11.265 42.581-5.386 93.935 16.746 132.412a201.085 201.085 0 0 0 3.746 6.18c2.518 6.675-.198 13.973-2.44 20.464l-.799 2.383c-.862 2.57-1.738 5.134-2.613 7.7-.605 1.795-1.209 3.59-1.812 5.387a5395.48 5395.48 0 0 1-4.769 14.112c-2.558 7.545-5.105 15.095-7.645 22.647-.889 2.636-1.784 5.269-2.68 7.902l-1.627 4.826c-.377 1.098-.377 1.098-.76 2.22C23.717 484.518 23 486.882 23 490c8.81-1.41 17.356-3.57 25.965-5.887l4.325-1.152c3.786-1.008 7.571-2.02 11.355-3.034 56.292-15.082 56.292-15.082 84.49-21.355 1.737-.39 3.473-.785 5.207-1.187 2.595-.6 5.194-1.182 7.795-1.76l2.31-.546c5.162-1.115 10.421-1.655 15.553-.079 1.998 2.997 2.276 3.633 2.25 7l.016 2.063C182 466 182 466 180 469c-2.984 1.063-2.984 1.063-6.75 2l-1.998.505c-6.712 1.67-13.475 3.117-20.252 4.495 9.736 9.736 38.06 11.122 51.074 11.203l2.295.022c55.047.396 103.036-17.306 142.881-56.225 13.264-13.606 24.003-29.185 32.75-46l1.055-2.026C401.197 343.654 405.018 299.91 396 257l-.449-2.143c-5.191-23.79-16.87-47.51-31.551-66.857l-1.914-2.55C332.804 147.672 291.82 123.041 245 114l-3.281-.652c-60.523-10.685-121.455 12.52-164.244 55.172Z"/><path d="M326.75 269.75c7.885 5.66 13.014 12.654 14.82 22.293 1.046 9.315.265 18.423-5.257 26.27-6.873 8.121-14.084 14.007-24.97 15.03-10.963.264-18.684-1.211-27.198-8.25-6.84-6.676-11.307-14.095-11.525-23.802.029-11.173 2.453-20.081 10.38-28.291 12.816-10.848 29.512-12.17 43.75-3.25Zm-33.188 18.813c-2.992 4.668-3.06 9.055-2.562 14.437 1.825 5.273 4.607 7.797 9 11 5.397 1.8 10.1 1.695 15.25-.625 4.47-2.52 6.923-5.46 8.348-10.48.899-5.074.303-8.66-2.313-13.102-2.65-3.698-5.156-6.186-9.613-7.457-7.586-1.187-12.844.69-18.11 6.226ZM234.121 270.496c7.05 5.643 11 12.4 13.629 20.942 1.135 11.637-.638 20.79-7.73 30.3-3.222 3.609-6.768 6.006-11.02 8.262l-1.824 1.027c-7.389 3.478-17.89 3.432-25.551.848-1.797-.84-1.797-.84-3.625-1.875l-2.266-1.254C186.661 323.233 182.293 315.88 179 306c-1.015-11.707.691-20.284 7.125-30.313 13.792-12.892 31.872-16.103 47.996-5.19Zm-33.738 17.234c-2.98 4.218-4.125 7.937-3.805 13.098.949 4.883 3.334 8.164 6.984 11.547 4.586 3.057 9.087 3.37 14.438 2.625 4.78-1.794 8.02-4.403 10.5-8.875 2.107-4.983 2.22-9.048.438-14.188-3.013-4.567-6.697-8.19-11.938-9.937-6.653-.652-12.004.794-16.617 5.73ZM139.313 269.75c7.009 5.788 13.202 13.047 14.687 22.25 1.056 11.916-1.204 21.707-8.941 30.992-6.97 6.798-15.513 10.271-25.184 10.445-9.567-.14-18.302-2.956-25.348-9.64-7.272-8.556-10.07-17.318-9.828-28.457.93-10.322 5.647-17.523 13.301-24.34 12.06-8.707 28.842-10.15 41.313-1.25Zm-32.063 17.625c-3.628 4.232-4.796 7.855-4.625 13.504.83 4.696 3.413 8.388 6.95 11.512 4.516 2.99 9.137 3.636 14.425 2.609 4.778-1.832 8.01-4.386 10.5-8.875 2.107-4.983 2.22-9.048.438-14.188-3.013-4.567-6.697-8.19-11.938-9.937-6.773-.511-10.639.96-15.75 5.375Z"/></svg>