<svg xmlns="http://www.w3.org/2000/svg" viewBox="0 0 512 512"><path d="M49.333-.508c1.857-.005 3.715-.01 5.573-.019 5.085-.016 10.17-.008 15.254.004 5.491.01 10.983-.005 16.474-.016a11802 11802 0 0 1 32.25-.002c8.738.009 17.475.01 26.213.006l3.77-.002 7.584-.004c23.02-.011 46.04 0 69.06.021 21 .02 42.002.018 63.003-.001a49610.899 49610.899 0 0 1 82.143-.012c8.726.003 17.452-.003 26.178-.012 10.636-.011 21.272-.008 31.908.013 5.425.01 10.85.015 16.275.001 4.97-.012 9.938-.005 14.907.016 1.795.005 3.59.002 5.384-.007C479.3-.592 490.495.972 501 11c9.559 10.013 11.602 20.58 11.508 34.08a1498.081 1498.081 0 0 1 .015 15.61c-.01 4.118.005 8.236.016 12.353.018 8.055.014 16.11.002 24.164a9603.975 9603.975 0 0 0-.004 22.474l.004 5.69c.011 17.766-.002 35.533-.023 53.3a19332.8 19332.8 0 0 0 .003 45.694 27906.298 27906.298 0 0 1 .014 58.782l-.002 2.817c-.003 6.538.003 13.075.012 19.613.011 7.972.008 15.943-.013 23.915-.01 4.064-.015 8.128-.001 12.192.012 3.726.005 7.451-.016 11.177-.007 1.975.006 3.95.02 5.924C512.43 370.8 509.377 380.225 501 389c-10.602 10.121-21.9 11.596-36.028 11.454a1881.686 1881.686 0 0 1-17.598-.049c-4.483-.025-8.966-.027-13.449-.032-8.475-.012-16.95-.045-25.424-.085-9.654-.045-19.308-.067-28.963-.087-19.846-.041-39.692-.112-59.538-.201.111 3.813.241 7.625.375 11.437l.094 3.24c.353 9.64.74 18.58 7.949 25.73 5.474 4.84 10.847 5.907 17.895 6.968 9.159 1.502 17.326 3.937 23.253 11.668 4.835 6.955 6.744 12.748 6.77 21.277l.02 2.367c.01 1.642.015 3.285.015 4.927.004 2.51.04 5.02.078 7.53.006 1.6.01 3.201.012 4.801l.043 2.267c-.027 3.149-.2 5.328-1.956 7.985-3.818 2.701-7.236 2.357-11.81 2.31l-2.872.02c-3.185.016-6.369.003-9.553-.01a3725.566 3725.566 0 0 1-25.434.02c-6.48-.01-12.959 0-19.438.006-11.579.008-23.158-.005-34.737-.025-10.5-.018-21-.015-31.5.003-12.192.022-24.383.03-36.575.018a6430.44 6430.44 0 0 0-19.363.006c-6.067.012-12.134.004-18.202-.02-2.23-.005-4.46-.003-6.69.006-3.038.01-6.075-.003-9.112-.023l-2.692.027c-5.923-.076-5.923-.076-9.117-2.34-2.147-3.243-2.025-6.384-1.984-10.144l-.012-2.34c-.003-1.633.005-3.266.022-4.9.02-2.473 0-4.944-.026-7.418-.014-8.187.016-15.265 4.547-22.393l1.146-1.963c4.175-6.915 11.248-10.886 18.854-13.037 3.557-.669 7.137-1.188 10.723-1.68 7.886-1.241 12.631-4.997 17.277-11.32 2.655-5.31 3.096-10.971 3.316-16.836l.127-3.223.12-3.316.13-3.387c.106-2.746.208-5.492.307-8.238l-2.484.011c-19.974.089-39.947.155-59.921.196-9.66.02-19.32.049-28.979.095-8.422.04-16.844.065-25.267.074-4.456.006-8.913.018-13.37.047-4.201.027-8.402.035-12.604.03-1.536 0-3.071.008-4.606.024C31.404 400.605 20.904 398.455 11 389 1.441 378.987-.602 368.42-.508 354.92a1498.082 1498.082 0 0 1-.015-15.61c.01-4.118-.005-8.236-.016-12.353a6628.96 6628.96 0 0 1-.002-24.164c.009-6.549.01-13.097.006-19.646l-.002-2.828-.004-5.69c-.011-17.766.002-35.533.023-53.3a19332.8 19332.8 0 0 0-.003-45.694 27906.298 27906.298 0 0 1-.014-58.782l.002-2.817a9961.19 9961.19 0 0 0-.012-19.613c-.011-7.972-.008-15.943.013-23.915.01-4.064.015-8.128.001-12.192-.012-3.726-.005-7.451.016-11.177.007-1.975-.006-3.95-.02-5.924C-.43 29.2 2.623 19.775 11 11 22.293.22 34.467-.588 49.333-.508ZM23.37 23.641c-7.5 8.314-7.52 16.953-7.491 27.71l-.003 3.472c-.001 3.178.002 6.356.007 9.533.004 3.48.003 6.96.002 10.44 0 6.755.004 13.508.01 20.262.008 7.813.009 15.626.01 23.44.005 20.625.019 41.251.032 61.877L16 320h480l.125-139.438.055-44.048c.007-13.016.007-13.016.01-26.031.003-5.803.01-11.606.021-17.409.013-6.694.019-13.388.016-20.082-.001-3.424 0-6.847.011-10.27.01-3.67.008-7.34.003-11.01l.017-3.22c-.038-9.623-.753-18.026-7.899-25.12-7.222-6.517-14.23-7.495-23.819-7.5l-2.223-.006c-2.46-.005-4.919-.002-7.378 0l-5.342-.007c-4.895-.006-9.79-.006-14.684-.004-5.278 0-10.557-.006-15.835-.01-10.341-.009-20.683-.011-31.024-.012-8.405 0-16.81-.003-25.215-.006-23.825-.009-47.65-.013-71.475-.012h-7.79a89898 89898 0 0 1-62.544-.023c-21.402-.015-42.803-.022-64.205-.02-12.017 0-24.035-.003-36.052-.014-10.231-.01-20.463-.011-30.694-.005-5.22.004-10.44.004-15.66-.005-4.78-.008-9.56-.006-14.34.002-1.728.002-3.457 0-5.185-.005-17.141-.438-17.141-.438-31.523 7.896ZM16 336c-1.484 20.625-1.484 20.625 6 39 7.65 7.595 14.773 9.123 25.46 9.129l2.223.005c2.46.005 4.919.002 7.378 0l5.342.007c4.895.006 9.79.006 14.684.004 5.278 0 10.557.006 15.835.01 10.341.009 20.683.011 31.024.012 8.405 0 16.81.003 25.215.006 23.825.009 47.65.013 71.475.012h7.79a89898 89898 0 0 1 62.544.023c21.402.015 42.803.022 64.205.02 12.017 0 24.035.003 36.052.014 10.231.01 20.463.011 30.694.005 5.22-.004 10.44-.004 15.66.005 4.78.008 9.56.006 14.34-.002 1.728-.002 3.457 0 5.185.005 15.913.433 15.913.433 29.894-6.255 12.058-12.144 9-24.261 9-42H16Zm192 64-1 33-6 15h110l-5-11c-2.996-11.983-1.626-24.654-2-37h-96Zm-51.937 69.75C150.57 478.404 152 485.44 152 496h208c.93-14.116.93-14.116-4.29-26.578-5.43-5.054-12.066-5.671-19.173-5.683l-2.177-.011c-2.39-.01-4.779-.007-7.168-.003l-5.161-.015c-4.662-.014-9.323-.014-13.984-.012-3.896.001-7.793-.003-11.69-.008-9.195-.011-18.39-.012-27.586-.006-9.474.006-18.948-.006-28.423-.027a9046.92 9046.92 0 0 0-24.436-.02c-4.86.001-9.72-.001-14.58-.015-4.572-.013-9.144-.01-13.715.002-1.674.002-3.347 0-5.02-.009-14.435-.562-14.435-.562-26.534 6.135Z"/><path d="M139.844 79.369c2.272-.005 4.544-.013 6.815-.022 6.126-.018 12.25-.005 18.376.014 6.421.017 12.843.008 19.265.003 10.768-.005 21.537.011 32.306.04a8309 8309 0 0 0 33.222.02c13.374-.019 26.748-.017 40.123.002 5.101.007 10.203.006 15.304-.002 5.996-.007 11.992.005 17.988.032 2.203.007 4.406.007 6.608 0 3-.009 6 .007 9 .03l2.657-.026c5.881.081 5.881.081 9.03 2.447 1.582 2.265 2.005 3.36 1.962 6.093l.031 2c-.808 3.043-2.017 4.093-4.531 6a60.464 60.464 0 0 1-8.752.506l-2.707.018c-3 .016-6 .003-9-.01-2.149.006-4.297.013-6.446.022-4.631.015-9.263.018-13.894.011-7.33-.01-14.66.007-21.989.028-11.602.03-23.204.042-34.806.045-20.75.007-41.502.036-62.252.085-7.28.017-14.558.022-21.838.019-4.54 0-9.082.007-13.624.017-2.097.002-4.195.002-6.293-.003-24.857-.22-24.857-.22-46.274 11.387-8.39 9.192-10.626 19.798-10.398 31.758.487 10.524 5.612 18.744 13.117 25.867 9.869 8.09 21.751 9.412 34.059 9.375l2.61.004c2.867.003 5.735 0 8.602-.003l6.192.006c4.437.004 8.874.006 13.311.006 7.029.001 14.057.014 21.086.03l3.6.007 7.29.016c16.354.035 32.708.062 49.062.06a9689.69 9689.69 0 0 1 33.129.05c5.836.019 11.67.028 17.506.016 5.497-.012 10.992 0 16.489.03 2.005.006 4.011.004 6.017-.007 21.005-.107 37.216 4.552 52.922 19.289 14.157 14.714 17.914 31.811 17.597 51.484-.26 6.87-1.503 12.57-4.316 18.887l-1.098 2.645c-5.853 12.916-15.913 22.888-28.214 29.668l-1.757.986c-9.55 4.997-19.71 6.15-30.337 6.105l-3.562.02c-3.844.019-7.688.015-11.532.01l-6.02.01c-6.287.015-12.575.013-18.862.002-6.479-.011-12.956.003-19.435.03a3334.6 3334.6 0 0 1-16.742.022c-3.325-.003-6.65.001-9.976.017-3.698.014-7.396.004-11.094-.013l-3.328.029-3.05-.03h-2.645c-3.13-.668-4.345-2.064-6.348-4.501-.531-2-.531-2-.5-4l-.031-2c.827-3.115 1.904-4.083 4.531-6 3.442-.612 6.858-.543 10.345-.514l3.19-.022c3.487-.02 6.974-.01 10.461-.003 2.43-.01 4.859-.022 7.288-.036 6.408-.032 12.816-.043 19.225-.047 10.224-.008 20.449-.044 30.673-.092 3.56-.012 7.118-.012 10.677-.01 19.985-.034 36.987-.546 52.082-15.155 9.855-10.536 12.689-22.579 12.368-36.601-.628-12.485-6.687-22.387-15.621-30.832-11.764-9.937-24.917-11.859-39.8-11.813l-2.605-.004c-2.85-.003-5.7 0-8.55.003l-6.167-.006c-4.414-.004-8.827-.006-13.241-.006a9774.85 9774.85 0 0 1-20.972-.03l-3.583-.007-7.252-.016c-16.263-.035-32.525-.062-48.787-.06a9587.96 9587.96 0 0 1-32.96-.05c-5.805-.019-11.61-.028-17.414-.016-5.465.012-10.928 0-16.393-.03a672.86 672.86 0 0 0-5.984.007c-16.466.084-29.77-1.924-42.98-12.66l-2.492-1.875c-9.48-8.033-16.623-20.871-17.7-33.36-.57-17.204.852-30.953 12.192-44.765l2.352-2.992c2.529-3.01 5.31-5.286 8.523-7.57l2.992-2.192c13.366-7.896 26.916-7.964 41.977-7.877Z"/><path d="m139.09 207.71 2.819-.02c3.081-.02 6.162-.024 9.243-.026l6.416-.02c4.485-.012 8.97-.016 13.454-.015 5.752 0 11.503-.027 17.254-.061 4.418-.022 8.835-.026 13.252-.025 2.12-.003 4.241-.012 6.362-.027 2.964-.02 5.927-.014 8.891-.002l2.662-.034c5.937.062 5.937.062 9.075 2.38 1.997 2.883 2.407 4.615 2.482 8.14-.69 2.983-1.76 5.774-2.875 8.621l-.958 2.549a1138.626 1138.626 0 0 1-3.167 8.267c-.729 1.914-1.456 3.828-2.183 5.743a3415.548 3415.548 0 0 1-4.538 11.867 1803.148 1803.148 0 0 0-5.505 14.551c-1.346 3.595-2.7 7.186-4.057 10.776-.642 1.702-1.28 3.405-1.916 5.11-.887 2.372-1.787 4.74-2.692 7.106l-.778 2.109c-1.543 3.99-2.87 6.754-6.331 9.301-3.065.597-6.089.546-9.203.518l-2.82.02a911.9 911.9 0 0 1-9.227-.007l-6.411.012c-4.48.006-8.958-.003-13.437-.022-5.743-.022-11.486-.01-17.23.015-4.413.014-8.826.01-13.239 0-2.118-.003-4.236 0-6.354.01-2.959.01-5.917-.006-8.876-.028l-2.657.024c-5.903-.082-5.903-.082-9.088-2.359-2.263-3.388-2.119-6.316-1.458-10.183 1.252-4.39 2.857-8.62 4.496-12.879a1827.144 1827.144 0 0 1 5.178-13.68c1.248-3.275 2.48-6.557 3.715-9.837 2.388-6.341 4.804-12.67 7.231-18.996 1.346-3.52 2.677-7.043 4.005-10.568l2.41-6.317 1.09-2.918 1.02-2.649.872-2.3c2.733-5.158 8.037-4.152 13.073-4.147ZM140 224a22395.34 22395.34 0 0 0-6.396 16.736l-2.165 5.66a8956.389 8956.389 0 0 0-3.158 8.268l-.935 2.44C123.439 267.359 119.752 277.683 116 288h70c4.785-11.962 9.533-23.888 13.993-35.968.834-2.26 1.673-4.518 2.513-6.776 2.614-7.049 5.184-14.1 7.494-21.256h-14c-.76 1.986-1.519 3.973-2.3 6.02l-2.235 5.778a995.767 995.767 0 0 0-1.539 4.013 969.95 969.95 0 0 1-2.227 5.771l-1.349 3.507c-2.076 4.476-2.076 4.476-4.35 5.911-3.23.388-3.23.388-7.188.398l-2.117.01a466.85 466.85 0 0 1-4.428-.017c-2.26-.016-4.516 0-6.775.02-1.435-.003-2.87-.007-4.305-.013l-3.957-.01C150 255 150 255 148.076 253.696c-1.933-3.047-1.552-6.266-1.076-9.696.95-3.587 2.194-7.03 3.5-10.5l1.012-2.781A860.455 860.455 0 0 1 154 224h-14Zm32 0a1312.33 1312.33 0 0 0-2.5 6.312l-1.406 3.551c-1.259 3.055-1.259 3.055-1.094 6.137h5a5199.03 5199.03 0 0 0 3-7.438l.867-2.142c1.483-3.117 1.483-3.117 2.133-6.42h-6ZM452.96 38.75A102.426 102.426 0 0 1 460 44l2.492 1.875C471.894 53.841 477.414 65.097 480 77c1.747 22.225-3.382 41.432-17.5 58.938A376.093 376.093 0 0 1 458 141l-2.18 2.54c-20.97 24.104-20.97 24.104-31.757 25.398C410.926 167.544 394.935 147.656 387 138c-14.33-18.195-21.42-37.746-19-61 1.647-9.54 5.925-17.526 12-25l1.875-2.492c16.836-19.869 49.073-23.768 71.086-10.758Zm-60.772 25.5C384.971 74.251 383.495 84.976 385 97c3.517 16.062 13.766 28.556 25 40l2.559 2.64c3.333 3.394 6.57 6.58 10.441 9.36 4.763-2.188 8.185-5.46 12-9l2.613-2.414c12.726-12.204 25.207-28.045 25.68-46.424C463.404 78.636 460.867 69.288 452 60c-8.739-8.342-18.063-11.64-30.08-11.47-12.503.56-21.787 6.29-29.733 15.72ZM81.313 351.492l3.263-.034 3.565.024 3.765-.02c3.405-.015 6.81-.012 10.215 0 3.564.01 7.128.001 10.692-.005 5.986-.007 11.971.002 17.957.022 6.918.021 13.837.014 20.756-.008 5.941-.018 11.883-.02 17.824-.01 3.548.006 7.096.007 10.644-.006 3.955-.014 7.91.005 11.865.027l3.565-.024 3.263.034 2.833.005c3.229.655 4.43 1.981 6.48 4.503.531 2 .531 2 .5 4l.031 2c-.773 2.912-2.232 4.093-4.531 6-2.48.503-2.48.503-5.313.508l-3.263.034-3.565-.024-3.765.02c-3.405.015-6.81.012-10.215 0-3.564-.01-7.128-.001-10.692.005-5.986.007-11.971-.002-17.957-.022a3279.26 3279.26 0 0 0-20.756.008c-5.941.018-11.883.02-17.824.01-3.548-.006-7.096-.007-10.644.006-3.955.014-7.91-.005-11.865-.027l-3.565.024-3.263-.034-2.833-.005c-3.229-.655-4.43-1.981-6.48-4.503-.531-2-.531-2-.5-4l-.031-2c1.353-5.094 4.973-6.5 9.844-6.508Z"/><path d="M435.438 65.5c5.824 3.52 10.544 8.99 12.562 15.5.805 7.836 1.125 15.62-4 22-4.804 5.045-9.162 8.606-16.27 9.336-8.516.094-14.406-.218-20.695-6.207-6.382-6.904-7.515-12.33-7.34-21.684.696-7.862 4.353-11.995 10.207-17 7.065-4.867 17.692-5.421 25.536-1.945Zm-16.813 17.125c-2.112 3.087-2.237 4.703-1.625 8.375 1.5 2.5 1.5 2.5 4 4 3.672.612 5.288.487 8.375-1.625 2.112-3.087 2.237-4.703 1.625-8.375-1.5-2.5-1.5-2.5-4-4-3.672-.612-5.288-.487-8.375 1.625ZM43 223.482l2.11-.02a508.72 508.72 0 0 1 6.89.007l4.797-.012c3.349-.006 6.698.003 10.047.022 4.29.022 8.58.01 12.872-.015 3.301-.014 6.602-.01 9.903 0 1.582.003 3.164 0 4.746-.01 2.212-.01 4.423.006 6.635.028l3.813.01c3.762.6 4.921 1.502 7.187 4.508 1.176 3.685 1.335 5.283-.313 8.812C110 239 110 239 108 240c-2.256.113-4.515.16-6.773.177l-2.11.02c-2.307.02-4.614.031-6.922.041l-2.386.013c-4.167.02-8.335.035-12.502.044-4.307.011-8.613.046-12.92.085-3.309.026-6.618.035-9.928.038-1.588.005-3.176.017-4.763.035-2.222.025-4.442.024-6.664.017l-3.831.018c-3.762-.574-4.928-1.499-7.201-4.488-.531-2-.531-2-.5-4l-.031-2c1.591-5.99 6.036-6.504 11.531-6.518Zm19.531 23.987 3.116-.012c2.172-.003 4.344.005 6.516.022 3.325.02 6.648 0 9.974-.026 2.11.003 4.221.008 6.332.016l3.015-.025c6.878.094 6.878.094 10.116 2.44 1.69 2.553 2.327 4.04 2.4 7.116-2.277 5.639-2.277 5.639-5 7-1.49.11-2.984.159-4.478.177l-2.812.039-3.046.022-3.124.025c-2.184.014-4.368.024-6.552.032-3.343.017-6.684.061-10.027.105-2.12.01-4.24.019-6.36.026l-3.033.053c-6.936-.022-6.936-.022-10.197-2.38-1.476-2.26-1.913-3.422-1.871-6.099l-.031-2c1.985-7.474 8.738-6.583 15.062-6.531Zm-21.031 104 3.188-.016L48 351.5l3.313-.047 3.187.016 2.906.013c3.307.66 4.503 1.93 6.594 4.518.531 2 .531 2 .5 4l.031 2c-.775 2.918-2.222 4.093-4.531 6-2.594.518-2.594.518-5.5.531l-3.188.016L48 368.5l-3.313.047-3.187-.016-2.906-.013c-3.307-.66-4.503-1.93-6.594-4.518-.531-2-.531-2-.5-4l-.031-2c1.379-5.19 5.09-6.508 10.031-6.531ZM79 271.5c.998-.015 1.995-.03 3.023-.047 7.268.04 7.268.04 10.606 2.43 1.654 2.554 2.298 4.057 2.371 7.117-2.277 5.639-2.277 5.639-5 7-3.619.293-7.246.278-10.875.313l-3.05.087c-7.376.064-7.376.064-10.74-2.17-1.39-2.32-1.877-3.548-1.835-6.23l-.031-2c2.03-7.645 9.047-6.6 15.531-6.5Z"/></svg>