<svg xmlns="http://www.w3.org/2000/svg" width="512" height="499"><path d="m142.555.482 2.646-.02a805.4 805.4 0 0 1 8.674.007c2.006-.003 4.013-.007 6.019-.012 4.207-.006 8.413.003 12.62.022 5.397.022 10.794.01 16.191-.015 4.144-.014 8.287-.01 12.43 0 1.991.003 3.982 0 5.972-.01 2.78-.01 5.558.006 8.338.028l2.504-.024c5.552.083 5.552.083 8.067 2.4 1.271 2.768 1.28 4.859 1.172 7.892l-.083 2.984L227 16l3.438-.14c16.639-.488 16.639-.488 23.515 5.976 3.67 3.894 5.42 7.044 7.047 12.164l2.224-.02c6.943-.06 13.887-.106 20.83-.135 3.57-.016 7.139-.037 10.708-.071 3.45-.033 6.898-.05 10.348-.059 1.945-.008 3.89-.031 5.836-.055 9.344-.002 16.44 1.104 23.515 7.598 4.866 5.508 6.666 12.063 6.662 19.308l.006 2.701-.009 2.94.003 3.143c.001 3.48-.004 6.961-.01 10.442l.001 7.48c0 5.37-.003 10.74-.008 16.111-.008 7.765-.011 15.53-.012 23.294a65466.93 65466.93 0 0 1-.019 37.793c-.009 12.237-.016 24.474-.02 36.711v2.286l-.005 11.354c-.01 31.393-.028 62.786-.05 94.179l2.14-.011c17.22-.089 34.44-.155 51.66-.196 8.328-.02 16.655-.049 24.983-.095 7.262-.04 14.524-.065 21.786-.074 3.842-.006 7.684-.018 11.526-.047 3.624-.027 7.247-.035 10.871-.03a552.08 552.08 0 0 0 5.844-.045c10.766.05 19.615 2.106 27.538 9.705 5.443 5.907 7.893 11.832 7.92 19.838l.025 3.602-.002 3.91a2578.058 2578.058 0 0 1 .044 15.395c0 2.347.005 4.692.01 7.038.019 8.194.027 16.388.026 24.582-.002 7.62.02 15.24.051 22.859.026 6.556.037 13.113.036 19.67 0 3.909.005 7.818.026 11.727.02 3.68.02 7.361.005 11.042-.003 1.98.014 3.96.03 5.94-.062 9.054-1.676 15.842-6.644 23.44-6.825 6.528-13.6 9.87-22.99 9.884l-3.802.013-4.164-.002-4.391.01c-3.976.01-7.951.012-11.927.012l-7.457.006c-8.68.009-17.359.013-26.038.012-8.079 0-16.157.01-24.236.026-6.944.013-13.887.018-20.83.018-4.144 0-8.288.002-12.431.013-3.902.01-7.803.01-11.704.003a858.29 858.29 0 0 0-4.28.007c-1.958.008-3.917.002-5.875-.005l-3.311.002c-2.755-.2-4.945-.582-7.587-1.251-5.737-1.35-11.364-1.256-17.232-1.212l-3.706.004c-3.373.005-6.746.019-10.12.037-3.646.016-7.292.022-10.938.028-6.313.013-12.625.032-18.937.056-9.134.034-18.27.053-27.404.068-14.834.023-29.667.053-44.501.09l-2.688.006c-12.594.032-25.188.069-37.781.108l-2.69.009-2.685.008c-14.78.046-29.562.077-44.342.095-9.112.012-18.223.036-27.334.078-6.242.027-12.484.04-18.726.042-3.6.001-7.2.01-10.8.035-3.905.027-7.81.024-11.715.018l-3.437.039c-7.738-.05-13.04-1.258-19.058-6.437l-1.633-1.945-1.68-1.93c-3.25-4.936-3.696-9.746-3.702-15.548l-.01-2.188c-.01-2.42-.005-4.841 0-7.261l-.014-5.258c-.012-4.817-.012-9.633-.01-14.45 0-5.194-.01-10.389-.02-15.583-.017-10.177-.022-20.353-.023-30.53-.001-8.27-.005-16.541-.012-24.812a86256.33 86256.33 0 0 1-.025-70.328v-7.665c.001-20.515-.018-41.031-.046-61.547-.029-21.059-.042-42.118-.04-63.177 0-11.826-.006-23.652-.027-35.477a9565.68 9565.68 0 0 1-.009-30.202c.007-5.137.007-10.274-.01-15.412-.016-4.702-.014-9.405.004-14.108.003-1.7 0-3.402-.012-5.103-.061-10.03-.003-17.467 7.011-25.359L16 39l1.875-1.688c7.132-4.404 15.294-3.572 23.371-3.507l4.14.008c3.612.008 7.224.027 10.835.05 3.694.02 7.388.03 11.082.04 7.232.02 14.465.055 21.697.097l.928-2.879c2.068-6.02 5.95-9.792 11.502-12.816 6.067-2.93 11.57-2.88 18.195-2.618l3.332.069c2.682.058 5.362.14 8.043.244l-.105-2.266-.083-2.984-.105-2.953C131.483.393 136.12.419 142.555.482ZM144 14l-1 11-1 2c-3.339 1.113-5.909 1.142-9.426 1.176l-3.853.072a798.13 798.13 0 0 1-8.032.094l-3.865.084-3.528.044c-4.836.778-8.013 3.008-11.144 6.721-1.622 3.955-1.628 7.511-1.59 11.746l-.06 2.381c.004 5.35.863 8.513 4.498 12.682 3.612 2.576 6.08 3.376 10.496 3.388l3.31.03 3.6-.014 3.815.02c3.447.019 6.893.018 10.34.012 2.88-.003 5.76.003 8.64.009 6.796.014 13.592.012 20.389.001 7.004-.011 14.008.003 21.013.03 6.02.022 12.04.028 18.062.022 3.592-.003 7.185 0 10.778.017 4.007.018 8.014.004 12.022-.013l3.594.029c6.277-.056 10.2-.253 14.941-4.531 3.708-4.362 3.55-8.902 3.563-14.375l.11-2.5c.042-5.699-1.189-8.678-5.087-12.834-2.894-2.356-5.786-2.444-9.367-2.572l-2.801-.114-2.918-.105c-1.906-.069-3.813-.142-5.719-.219l-2.56-.092C219 28 219 28 216 27c-1.96-3.921-1.603-8.634-2-13h-70ZM23 50c-3.086 4.046-3.376 7.12-3.38 12.142l-.014 2.156c-.012 2.39-.003 4.78.006 7.17-.004 1.728-.01 3.456-.016 5.185-.014 4.754-.01 9.508-.003 14.263.005 5.125-.008 10.25-.018 15.376-.017 10.044-.018 20.087-.013 30.13.004 8.16.003 16.322-.002 24.483l-.003 3.517-.004 7.071c-.014 22.119-.009 44.237.003 66.355.01 20.245-.003 40.49-.027 60.736-.024 20.777-.034 41.553-.027 62.33.003 11.67 0 23.338-.017 35.007-.014 9.934-.015 19.867.002 29.8.009 5.07.011 10.14-.004 15.21-.014 4.64-.01 9.279.01 13.918.004 1.68 0 3.36-.01 5.041-.013 2.281-.001 4.56.016 6.842v3.842c.598 4.088 1.922 6.232 4.501 9.426 3.241 2.16 4.099 2.25 7.836 2.246l3.037.012 3.345-.017 3.547.005c3.254.002 6.508-.004 9.762-.014 3.508-.008 7.015-.006 10.522-.004 6.078.001 12.156-.005 18.234-.017 8.788-.016 17.576-.021 26.364-.024 14.257-.004 28.515-.017 42.772-.036a58442.404 58442.404 0 0 1 56.985-.05c35.532-.021 71.064-.056 106.596-.101l-.643-1.747c-1.631-4.619-2.732-8.605-2.738-13.552l-.026-3.542.019-3.798c-.004-1.356-.01-2.712-.016-4.068-.014-3.66-.009-7.318.001-10.977.008-3.844 0-7.687-.004-11.53-.006-6.453.002-12.905.016-19.358.016-7.442.01-14.883-.006-22.325-.013-6.41-.015-12.818-.007-19.227.004-3.819.005-7.638-.005-11.457-.009-3.592-.002-7.184.015-10.776.006-1.934-.003-3.868-.013-5.802.061-8.383.878-16.215 6.094-23.091l1.325-1.828C319 317 319 317 320.909 316.082c4.414-2.156 4.414-2.156 6.835-6.228.28-2.766.303-5.437.245-8.216l.03-3.195c.022-3.54-.013-7.076-.047-10.615.004-2.534.012-5.069.023-7.603.017-6.173-.003-12.345-.04-18.518-.041-7.188-.041-14.376-.039-21.564.002-12.825-.035-25.65-.093-38.475-.056-12.445-.084-24.89-.082-37.336v-2.323l.001-2.318c.003-14.168-.02-28.335-.056-42.503-.012-5.01-.017-10.021-.019-15.032-.003-6.743-.028-13.487-.068-20.23a1314.78 1314.78 0 0 1-.015-7.434c.002-3.377-.02-6.753-.05-10.13l.02-2.987c-.062-4.297-.15-6.716-2.437-10.441-3.945-3.604-7.506-4.185-12.733-4.161h-3.336l-3.568.032-3.677.008c-3.872.011-7.744.037-11.615.062-2.627.01-5.254.02-7.881.027-6.436.022-12.871.056-19.307.098l-.358 2.668-.501 3.52-.484 3.48c-1.5 7.609-5.316 13.02-11.657 17.332-6.545 3.657-12.682 3.425-20.06 3.388l-3.955.016c-3.564.014-7.128.009-10.692-.001-3.74-.008-7.48 0-11.22.004-6.28.006-12.56-.002-18.84-.016-7.246-.016-14.493-.01-21.74.006-6.235.013-12.47.015-18.706.007-3.718-.004-7.436-.005-11.154.005-4.148.01-8.295-.004-12.443-.02l-3.705.018c-8.345-.063-15.646-.855-22.102-6.782-4.553-5.35-6.573-11.007-7.02-17.965l-.221-3.226L88 47a4656.63 4656.63 0 0 0-22.767-.155c-3.524-.016-7.049-.037-10.573-.071-4.056-.04-8.112-.054-12.168-.067l-3.817-.047h-3.578l-3.136-.02c-3.606.439-5.9 1.406-8.961 3.36Zm302.625 278.437c-2.801 4.417-3.875 7.975-3.886 13.204l-.021 3.407.007 3.71-.015 3.928c-.014 3.55-.014 7.1-.012 10.649.001 2.967-.003 5.934-.008 8.901a8582.81 8582.81 0 0 0-.006 21.008c.006 7.214-.006 14.429-.027 21.643-.018 6.203-.024 12.405-.02 18.607.001 3.701-.001 7.402-.015 11.102-.015 4.13-.006 8.259.006 12.388l-.023 3.697c.043 7.08.26 12.742 5.114 18.28l1.781 1.414 1.781 1.46c3.432 2.325 6.514 2.298 10.53 2.319l3.675.026 4.038.013 4.248.025c4.653.026 9.306.041 13.958.055l4.81.017c6.67.021 13.34.04 20.009.051 9.55.016 19.101.05 28.652.107 6.72.038 13.439.058 20.159.063 4.01.004 8.021.016 12.032.048 3.777.03 7.553.037 11.33.025 1.382 0 2.764.008 4.145.025 7.824.095 14.288.082 20.133-5.609 5.103-6.166 4.562-12.532 4.502-20.276a1295.76 1295.76 0 0 0 .003-14.9c-.015-3.803-.008-7.605-.004-11.407.002-6.383-.011-12.765-.034-19.148-.027-7.372-.029-14.743-.017-22.115.01-7.103.005-14.205-.01-21.308-.005-3.018-.005-6.036 0-9.054.004-3.555-.006-7.11-.028-10.664-.008-1.922-.001-3.844.006-5.765-.005-8.123-.005-8.123-3.418-15.363-6.411-6.133-11.274-7.305-19.8-7.195l-2.535.008c-2.66.011-5.318.037-7.978.062-1.807.01-3.615.02-5.423.027-4.422.022-8.843.057-13.264.098l-.031 2.548c-.098 7.93-.2 15.86-.308 23.791a8788.38 8788.38 0 0 0-.158 12.231c-.048 3.936-.1 7.872-.156 11.807-.02 1.5-.039 3-.056 4.501a1852.68 1852.68 0 0 1-.086 6.312c-.015 1.197-.03 2.394-.047 3.627A44.41 44.41 0 0 1 438 395c-4.167.617-6.684.805-10.336-1.43-2.627-2.117-5.146-4.325-7.664-6.57a688.031 688.031 0 0 0-4.978-4.14c-2.35-1.941-4.686-3.901-7.022-5.86-2.768 1.284-4.983 2.673-7.277 4.68l-1.807 1.566-1.853 1.629c-2.35 2.048-4.704 4.088-7.063 6.125l-2.71 2.36c-3.188 2.284-5.467 2.073-9.29 1.64-2.841-2.841-2.277-4.764-2.319-8.745l-.03-2.099c-.031-2.294-.048-4.588-.065-6.883-.019-1.589-.038-3.178-.059-4.766-.051-4.186-.09-8.372-.128-12.557-.04-4.27-.091-8.54-.141-12.81-.097-8.38-.181-16.76-.258-25.14-5.408-.1-10.815-.172-16.223-.22-1.837-.02-3.674-.047-5.51-.082a672.76 672.76 0 0 0-7.954-.089l-2.46-.062c-6.943-.003-12.33 1.863-17.228 6.89ZM388 322v53c5.983-4.486 5.983-4.486 11.688-9.313 2.734-2.339 4.56-3.875 8.312-3.687 5.95 2.567 10.263 6.772 14.96 11.172 1.708 1.94 1.708 1.94 3.04 1.828v-53h-38Z"/><path d="m141.035 419.74 3.824-.022 4.203.007c1.474-.004 2.947-.01 4.42-.015 4.005-.014 8.009-.014 12.013-.012 3.34.001 6.68-.003 10.02-.008 7.878-.011 15.756-.012 23.633-.006 8.134.006 16.268-.006 24.402-.027 6.978-.018 13.956-.024 20.935-.02 4.17.001 8.34-.001 12.51-.015 3.92-.013 7.84-.011 11.76.002 1.44.002 2.881 0 4.321-.009 1.963-.01 3.926 0 5.889.01h3.332C285 420 285 420 286.85 421.34c1.826 2.635 1.595 4.548 1.15 7.66-2.128 2.793-3.315 3.877-6.808 4.503l-3.303.005-3.798.034a7304.6 7304.6 0 0 1-4.16-.024c-1.461.005-2.923.012-4.386.02-3.969.02-7.937.012-11.906 0-4.153-.01-8.306-.001-12.459.005-6.974.007-13.948-.002-20.922-.022-8.064-.021-16.127-.014-24.191.008-6.923.018-13.845.02-20.767.01-4.135-.006-8.27-.007-12.405.006-3.888.012-7.775.004-11.662-.02a433.043 433.043 0 0 0-4.281.006c-1.947.01-3.894-.006-5.841-.023l-3.303-.005c-3.502-.627-4.717-1.66-6.808-4.503.063-3.625.063-3.625 1-7 3.502-2.335 4.894-2.253 9.035-2.26ZM140.99 329.733l3.795-.026 4.17.002c1.462-.006 2.924-.012 4.386-.02 3.973-.018 7.946-.022 11.919-.024 3.315-.001 6.63-.009 9.945-.016 7.82-.016 15.641-.021 23.461-.02 8.072.002 16.143-.02 24.214-.051 6.927-.026 13.853-.037 20.78-.036 4.138 0 8.276-.005 12.415-.026 3.891-.02 7.782-.02 11.674-.005 1.428.002 2.857-.003 4.286-.015 1.949-.015 3.898-.004 5.848.01l3.306-.004c3.498.62 4.682 1.701 6.811 4.498.445 3.112.676 5.025-1.15 7.66-2.653 1.922-4.62 1.72-7.878 1.728l-3.82.03-4.199-.014-4.415.02c-4 .019-8 .018-12 .012-3.337-.003-6.675.003-10.013.009-7.873.014-15.745.012-23.619.001-8.125-.011-16.25.003-24.377.03-6.973.022-13.946.028-20.92.022-4.166-.003-8.332 0-12.498.017-3.918.015-7.835.011-11.753-.008-1.439-.003-2.877 0-4.315.01-1.963.013-3.925 0-5.888-.016h-3.329c-3.516-.623-4.73-1.646-6.826-4.501.062-3.625.062-3.625 1-7 3.491-2.327 4.865-2.255 8.99-2.267ZM139.953 152.74l3.845-.022 4.243.007 4.45-.015c4.034-.014 8.07-.014 12.104-.012 3.365.001 6.73-.003 10.095-.008 7.937-.011 15.874-.012 23.81-.006 8.196.006 16.391-.006 24.587-.027 7.03-.018 14.059-.024 21.088-.02 4.202.001 8.403-.001 12.604-.015 3.95-.013 7.901-.011 11.852.002 1.451.002 2.903 0 4.355-.009 1.978-.01 3.956 0 5.934.01h3.358C285 153 285 153 286.853 154.34c1.821 2.636 1.591 4.55 1.147 7.66-2.123 2.78-3.312 3.875-6.79 4.506l-3.276.009-3.768.038-4.127-.02c-1.45.008-2.9.016-4.351.027-3.939.022-7.876.02-11.814.01-3.288-.005-6.576.002-9.864.01-7.756.017-15.513.013-23.27-.004-8.001-.017-16.002 0-24.004.032-6.87.026-13.74.034-20.611.025-4.104-.005-8.206-.003-12.31.018-3.858.018-7.716.012-11.575-.012-1.416-.005-2.831-.002-4.246.01-12.03.1-12.03.1-15.379-2.99C131 161 131 161 131.063 157.813c1.73-5.193 3.814-5.063 8.89-5.073ZM139.953 242.74l3.845-.022 4.243.007 4.45-.015c4.034-.014 8.07-.014 12.104-.012 3.365.001 6.73-.003 10.095-.008 7.937-.011 15.874-.012 23.81-.006 8.196.006 16.391-.006 24.587-.027 7.03-.018 14.059-.024 21.088-.02 4.202.001 8.403-.001 12.604-.015 3.95-.013 7.901-.011 11.852.002 1.451.002 2.903 0 4.355-.009 1.978-.01 3.956 0 5.934.01h3.358c2.722.375 2.722.375 4.579 1.71 1.785 2.6 1.525 4.605 1.143 7.665-1.545 2.037-2.721 2.86-5 4-1.927.104-3.858.144-5.788.154l-3.734.026-4.12.013-4.321.025c-4.738.026-9.475.041-14.213.055l-4.89.017c-6.78.021-13.559.04-20.338.051-9.721.016-19.441.05-29.162.107-6.832.038-13.665.058-20.497.063-4.082.004-8.164.016-12.246.048-3.84.03-7.68.037-11.521.025-1.409 0-2.818.008-4.227.025-11.976.142-11.976.142-15.324-2.946C131 251 131 251 131.063 247.813c1.73-5.194 3.814-5.064 8.89-5.074ZM62.723 222.93c4.731 1.545 7.302 4.555 10.652 8.132l1.941 2.01A487.59 487.59 0 0 1 80 238c4.815-2.18 7.906-5.895 11.402-9.744 2.596-2.726 4.117-4.11 7.797-5.22C102 223 102 223 104.938 224.5 107 227 107 227 107.07 230.191c-1.456 5.182-4.253 7.663-8.132 11.246l-2.01 1.928A400.323 400.323 0 0 1 92 248c2.17 4.8 5.879 7.862 9.744 11.314 2.996 2.836 4.155 4.294 5.22 8.416C107 271 107 271 105.5 273.5c-2.5 1.5-2.5 1.5-5.691 1.535-5.2-1.413-7.66-4.216-11.246-8.098-.955-.994-.955-.994-1.928-2.01A400.323 400.323 0 0 1 82 260c-4.8 2.17-7.862 5.879-11.314 9.744-2.829 2.989-4.316 4.157-8.416 5.256-3.27 0-3.27 0-5.77-2.063-1.917-3.754-1.766-4.928-.5-8.937 2.117-2.714 4.554-5.026 7.063-7.375l2.01-1.941A487.59 487.59 0 0 1 70 250c-2.18-4.815-5.895-7.906-9.744-11.402-2.72-2.59-4.112-4.139-5.256-7.797 0-2.801 0-2.801 2.063-5.738C60 223 60 223 62.722 222.93ZM61.188 400.313c5.43.979 8.018 3.849 11.812 7.687 1.02 1.002 1.02 1.002 2.063 2.023 1.663 1.643 3.307 3.301 4.937 4.977 4.041-1.6 6.68-4.487 9.625-7.563 6.105-6.322 6.105-6.322 10.813-6.75 3.562.313 3.562.313 5.5 2 1.258 2.74 1.375 4.322 1.062 7.313-1.377 1.945-1.377 1.945-3.281 3.77l-2.051 2.001c-.715.674-1.43 1.348-2.168 2.041l-2.168 2.1A579.743 579.743 0 0 1 92 425c2.17 4.8 5.879 7.862 9.744 11.314 3.004 2.844 4.153 4.276 5.19 8.42C107 448 107 448 106 450.438c-2 1.562-2 1.562-5.129 2.128-5.655-.827-8.05-3.972-11.808-8.066l-2.073-2.168A402.874 402.874 0 0 1 82 437c-2.929 1.31-4.87 2.67-7.023 5.04l-1.657 1.757a375.665 375.665 0 0 0-3.367 3.68c-4.19 4.406-4.19 4.406-8.215 5.023C59 452 59 452 56.563 450.375 55 448 55 448 54.813 445.25 57.51 437.865 64.457 432.39 70 427c-1.85-4.865-5.987-7.99-9.744-11.402-2.749-2.619-4.113-4.102-5.19-7.832C55 405 55 405 56 402.625c2-1.625 2-1.625 5.188-2.313ZM110.313 131.438C113 132 113 132 116 134c1.125 2.625 1.125 2.625 1 6-1.313 1.83-1.313 1.83-3.098 3.766l-1.945 2.133L110 148l-1.629 1.792C103.991 154.601 99.5 159.304 95 164l-2.742 2.866a969.186 969.186 0 0 1-7.354 7.57c-.972.996-1.94 1.996-2.905 3a440.174 440.174 0 0 1-4.128 4.216l-2.408 2.469c-2.98 2.273-4.714 2.906-8.463 2.879-5.676-3.43-8.72-9.126-12.213-14.598a378.835 378.835 0 0 0-3.344-5.095l-2.119-3.295-1.935-2.986c-1.652-3.6-1.767-6.107-1.389-10.026 2.009-2.306 3.445-2.854 6.375-3.625 6.858 1.633 11.41 11.564 15.086 17.05C69 167 69 167 69 169c9.6-8.033 18.828-16.951 26.938-26.5 8.626-10.086 8.626-10.086 14.374-11.063ZM110.34 308.403c2.66.597 2.66.597 5.098 2.785C117 314 117 314 116.787 316.44c-.864 2.81-1.827 4.175-3.814 6.317l-1.92 2.087L109 327l-2.017 2.132c-4.607 4.815-9.3 9.545-13.99 14.28a1017.91 1017.91 0 0 0-5.117 5.22 1115.72 1115.72 0 0 1-7.442 7.556l-2.293 2.376c-5.303 5.283-5.303 5.283-9.508 6.05-5.075-1.183-7.446-5.194-10.133-9.356a480.776 480.776 0 0 1-2.5-4.133c-.831-1.374-1.664-2.746-2.5-4.117l-1.233-2.028c-1.266-1.979-2.63-3.844-4.04-5.722C45.29 334.962 45.152 333.09 46 328c2.125-2.125 2.125-2.125 5-3 3.37.454 5.361 1.263 7.609 3.856 1.673 2.378 3.234 4.798 4.766 7.269l1.652 2.574A534.396 534.396 0 0 1 69 345c3.09-1.37 5.142-2.919 7.48-5.348l2.003-2.062 2.134-2.223 4.528-4.629c2.372-2.434 4.739-4.872 7.096-7.321 2.278-2.364 4.576-4.708 6.876-7.05l2.122-2.234c4.934-4.985 4.934-4.985 9.101-5.73ZM418.136 450.725l3.247-.029 3.52.003 3.601-.013c2.518-.006 5.036-.006 7.553-.002 3.861.003 7.721-.02 11.582-.045 2.442-.003 4.884-.003 7.326-.002l3.513-.028 3.256.019 2.869-.002c2.397.374 2.397.374 4.207 1.71 1.83 2.56 1.508 4.608 1.19 7.664-2 3-2 3-5 4a89.588 89.588 0 0 1-4.851.193l-2.984.049c-4.493.044-8.986.085-13.479.108-2.37.017-4.741.044-7.111.082-3.419.055-6.836.077-10.255.091l-3.207.07c-7.327-.022-7.327-.022-11.324-2.926C410 459 410 459 410.062 455.812c1.607-4.82 3.322-5.064 8.074-5.087Z"/></svg>