<svg version="1.2" xmlns="http://www.w3.org/2000/svg" viewBox="0 0 512 512" width="100" height="100"><style>.a{fill:#fff}</style><path fill-rule="evenodd" class="a" d="M275 122.7c-8.2-4.1-17.2-9.9-26.2-5.6l-2.2 1.1-5.3 2.6-12.4 6.2-4.5 2.1-4.6 2.2-4.5 2.2-4.5 2.2-5.1 2.5-5 2.4-5.1 2.5-5 2.4q-12.7 6-25.3 12.4c-5.9 3-11.9 5.9-17.9 8.7l-2 .9-1.9.8-1.9.9-1.9.9-1.9.8-3.6 1.6-3.4 1.6c-3 1.3-5.7 2.8-8.4 4.6-3.2 3.3-3.2 3.3-3 15v47.4l.1 5.8V296.7l.1 11.5V320.1c0 3.2 0 3.2.4 5.9 1.6 2.6 2.7 3.8 5.2 5.4l2.7 1.2 3 1.4 1.6.8 1.7.7 1.6.8 1.7.8 3.5 1.6 4.1 1.9 4.1 2 4.1 1.9 4.1 2 1.6.8 1.5.7 1.6.8 1.5.7 3.2 1.5 9.3 4.5 8.2 3.9 8.1 3.9 8.2 4 8.2 3.9 5.5 2.7 16.3 7.9 7.1 3.4 3.3 1.6 3.1 1.6 3 1.4c4.2 2 7.9 3.8 12.6 2.4l3.1-1.4 1.4-.7 1.5-.6 1.5-.7 1.4-.7 2.4-1.1 4.6-2.2 4.6-2.2 4.6-2.2 4.6-2.2 4-1.9 4-2 4.1-1.9 4-2 3.1-1.5 15-7.2 4.6-2.1 4.6-2.2 4.6-2.2 4.5-2.2 2.1-1 4.2-2 4.2-2 4.1-2 4.2-2.1 5.9-2.8 2.2-1.1 2.1-1 2.2-1.1 2.1-1 2.7-1.3 2.6-1.2 2.4-1.2 4.1-2.2c3.1-2 4.8-3 5.6-6.8V321l.1-5.7V199.1l-.1-4.3.1-4.1-.1-3.7c0-3.2 0-3.2-.6-6a32.3 32.3 0 0 0-7.4-5.3l-2.5-1.2-3-1.4-6.4-3-3.5-1.7-18.1-8.7-20.9-10-2.6-1.3-5.1-2.4-20.6-10-9.1-4.5-6.1-3-8.9-4.4zm93.6 77.8c2.5-1.2 5.7-3.5 8.4-3.5v122a2725 2725 0 0 0-29.8 14.2l-9.1 4.4-4.5 2.2-4.6 2.2-4.5 2.1-4.6 2.2q-12.6 6-25.1 12.3C279.5 366 279.5 366 264 373V251l34.2-16.4 28.8-13.9 4.8-2.3 4.7-2.2 4.8-2.3 4.8-2.4 2.5-1.2 12.8-6.3 1.8-.8 1.8-.9 1.8-.9 1.8-.9zm-77.7-24.7c14.5-8.3 28.2-18.8 44.1-8.3a96 96 0 0 0 15.6 8.8l1.8.9 1.8.8 1.8.9 1.8.9 3.2 1.7 5 2.5v2c-7 3-13.9 6.3-20.8 9.6l-1.9 1-1.9.9-2 1-1.9.9-2 1-4.5 2.1-4.5 2.2-4.5 2.1-4.5 2.2q-10.4 4.9-20.7 10l-6.1 3-9.3 4.6-9.1 4.5-2.8 1.4-2.7 1.3-2.5 1.2c-3.8 1.9-7.4 3.6-11.6 2.3L250 236l-6.1-2.9-2.4-1.2-5-2.4-1.9-.9-1.9-.9-2-1-1.9-.9-5.2-2.5-2.4-1.2-2.4-1.1-2.1-1.1a20.4 20.4 0 0 1-6.7-4.9l9.9-4.8 9.9-4.7 9.9-4.8 9.9-4.8 17.4-8.4 2.8-1.3 5.4-2.6a191 191 0 0 0 15.7-7.8zm-39.5-42.7c2.9-1.4 4.3-2.7 7.2-1.4l2.2 1.1 2.5 1.1 2.6 1.3 5.6 2.7 2.2 1.1 2.1 1.1 2.2 1 2.2 1.1 5.7 2.8 2.8 1.3 2.6 1.3 2.5 1.2c3 1.5 5.6 3.1 8.2 5.2-3.9 2.5-8 4.5-12.1 6.4l-2.3 1.1-2.3 1.1-2.3 1.1-2.2 1.1-17.5 8.3-31.1 15-15.6 7.5-3.5 1.8-6.9 3.3-3.1 1.5-3 1.5c-4 1.9-7.8 3.9-12.2 2.7l-2.2-1.1-2.4-1.2-2.6-1.3-5.5-2.7-8.7-4.3-5.6-2.8-2.7-1.3-2.6-1.3-2.5-1.2a53.1 53.1 0 0 1-8.1-5.2c5.2-2.2 10.2-4.5 15.2-6.9l6.5-3.2 3.4-1.6 3.3-1.6 3.2-1.6 3.3-1.5 3.3-1.6 7.4-3.5 7.4-3.6 7.4-3.6 7.4-3.5 12.8-6.2 7.2-3.5 9.1-4.4 3.3-1.6 3.3-1.6zM134.9 197c9.1 4 18.1 8 27 12.3l2.9 1.3 9.7 4.7 10.7 5.2 9.2 4.5 15.8 7.5 3 1.5 5.9 2.7c15 7.4 15 7.4 29.8 15.3v121c-2.1.1-2.1.1-4.4-1l-3.4-1.6-25.1-12.1-18.5-8.9-62.6-30.4z"/><path class="a" d="M470 161c3.6 2.9 4.9 5.8 6.4 10.1l1.3 3.6 1.2 4 .7 2c4.2 12.9 7.3 25.9 9.4 39.3l.4 2.3a234 234 0 0 1-40 167.9c-6 8.2-12.3 16.1-19.2 23.5l-5.5 6.2c-31.3 35.9-79 57.8-124.7 67.1l-2.5.5A226 226 0 0 1 207 486l-3.2-.7A234 234 0 0 1 97 429l-1.1-1-1.1-.9-1-1-1.1-.9-1.8-1.6L84 418l-.2 1.7-.4 4.4-.5 4.4-.4 4.5-.5 4.4-.6 6.6-1 9.4-.3 3c-.5 4.9-.9 8.7-4.1 12.6-2.8 1.4-4.9 1.3-8 1-2.7-2.1-3.9-3.2-4.4-6.6l.1-2.8.1-3.3q.5-8.1 1.4-16.3l.4-3.6.9-7.5 1.2-11.4.8-7.3.4-3.4c1.4-13.1 1.4-13.1 4.8-16.5 3.1-1.8 5.1-1.4 8.7-1.1l3.8.4 3.8.4 6.6.6 17.7 1.8 7.6.8 11.1 1.1 3.4.4c10 1.1 10 1.1 13.6 5.3.6 3.9.6 6-1.4 9.4-8 4.8-23.2.6-32.2-.4l-5.4-.6-13-1.4c3.9 4 7.9 7.9 12.3 11.4 2.7 2.2 5.5 4.4 8.2 6.8 42.6 36.5 101.8 51.5 157 47.4A218.6 218.6 0 0 0 398 422l2.4-2.1A224.6 224.6 0 0 0 473 288l.4-2.2c6.3-35.4 1.3-75.7-12.2-108.8a22.4 22.4 0 0 1-2.2-12c2.9-4.5 5.9-4.7 11-4zm-56.3-80.8c4.6 4.2 9 8.4 13.3 12.8 1.5-1.5 1.3-2.9 1.5-5l.3-2.6.3-2.9.6-5.9 1-9.3.9-9 .3-2.8c.6-5.4 1.6-9.7 4.1-14.5 2.8-1.4 4.9-1.3 8-1 2.2 1.6 2.2 1.6 4 4 .4 3 .4 3 .3 6.4l-.1 3.8-.3 4.3-.3 4.2-.4 4.3-.4 4.2-.4 3.6-.9 7.5-1.2 11.4-.8 7.3-.4 3.4-.3 3.2-.3 2.8c-.7 3.9-1.7 6.8-4.5 9.6-9.1.8-18.2-.2-27.2-1.2l-3.6-.4-7.5-.9-11.4-1.2-7.3-.8-3.4-.4-3.2-.3-2.8-.3c-2.8-.5-5.1-1.2-7.6-2.5-2.3-3.5-2.5-4.9-2-9 2-2.5 3.2-3.8 6.4-4.5 9.5.3 18.9 1.4 28.3 2.5l5.1.6L414 103v-2l-1.7-.7a24.8 24.8 0 0 1-6.5-5.6A204 204 0 0 0 331 49l-2-.8a218 218 0 0 0-162.1 6.5c-24 11-44.9 25.1-63.9 43.3l-1.5 1.4c-8 7.6-14.9 15.7-21.5 24.6l-1.9 2.6A228.3 228.3 0 0 0 38 229l-.3 2.1c-4.4 33.1.2 69.7 12.5 100.6A23 23 0 0 1 52 343c-1.1 2.3-1.1 2.3-3 4-3.4 1.1-3.4 1.1-7 1-6-4.2-7.4-10.7-9.5-17.4l-1.2-3.6a262 262 0 0 1-6.2-23.1l-.6-2.6a225.8 225.8 0 0 1-3.9-45.7v-2.8c.2-60 23.5-117.7 65.4-160.8l1.8-1.8c8.5-8.9 17.3-16.9 27.2-24.2l3.1-2.3A241.2 241.2 0 0 1 221 22l2.3-.4c67.8-11.2 140.1 13 190.4 58.6z"/><path class="a" d="M177.2 251.7a151 151 0 0 1 7 3.4l2.6 1.2 5.4 2.7 2 1 2 1 2.1 1 2.1 1 5.2 2.6 2.4 1.2 2.3 1.1 2 1c1.7 1.1 1.7 1.1 3.7 4.1.4 3.4.4 3.4 0 7-2.1 2.5-2.1 2.5-5 4a38 38 0 0 1-15.7-4.9l-2.4-1.2-5.1-2.5-7.7-3.8-5-2.4-2.3-1.1-2.2-1.1-1.9-1a17.9 17.9 0 0 1-4.7-4 15 15 0 0 1 1-10c3.9-1.9 8.2-1.6 12.2-.3z"/></svg>