<svg xmlns="http://www.w3.org/2000/svg" width="512" height="512"><path d="m275.012 122.719 2.795 1.377c2.964 1.46 5.922 2.932 8.88 4.404 2.05 1.013 4.102 2.024 6.153 3.035 3.022 1.49 6.044 2.98 9.064 4.472 6.842 3.381 13.701 6.72 20.596 9.993l5.133 2.441 2.571 1.224c6.962 3.325 13.905 6.69 20.849 10.053 6.046 2.926 12.1 5.833 18.174 8.7l3.459 1.639c2.15 1.018 4.304 2.03 6.46 3.037l2.916 1.383 2.536 1.19c2.83 1.57 5.057 3.084 7.402 5.333.63 2.761.63 2.761.635 5.997l.043 3.722-.031 4.074c.007 1.432.016 2.865.027 4.297.022 3.889.013 7.777-.002 11.665-.013 4.07-.001 8.138.007 12.207.009 6.833-.003 13.665-.027 20.498-.027 7.9-.019 15.8.009 23.7.023 6.783.026 13.565.013 20.348-.008 4.05-.009 8.102.007 12.153.015 3.809.005 7.616-.024 11.425a332.48 332.48 0 0 0 .006 4.194c.014 1.908-.006 3.816-.028 5.723l-.006 3.236c-.846 3.713-2.51 4.713-5.629 6.761-2.079 1.204-2.079 1.204-4.15 2.207l-2.385 1.167-2.55 1.224-2.684 1.305a2930.652 2930.652 0 0 1-8.606 4.16c-1.976.957-3.952 1.916-5.927 2.874A6585.386 6585.386 0 0 1 344 352l-2.054.99a4035.956 4035.956 0 0 1-18.307 8.753c-5.01 2.387-10.012 4.792-15.014 7.195l-3.129 1.5a5100.547 5100.547 0 0 0-16.14 7.777A2323.862 2323.862 0 0 1 271 387l-2.368 1.12a396.647 396.647 0 0 1-5.882 2.692l-3.078 1.395c-4.69 1.392-8.359-.362-12.61-2.437l-2.916-1.413-3.146-1.545-3.318-1.61c-2.35-1.142-4.698-2.285-7.045-3.43-5.428-2.647-10.87-5.267-16.309-7.89l-5.516-2.663a12538.415 12538.415 0 0 0-32.751-15.751c-3.1-1.486-6.197-2.973-9.295-4.46l-3.138-1.506a5373.87 5373.87 0 0 1-6.206-2.985 1469.308 1469.308 0 0 0-16.445-7.798l-3.475-1.633a918.048 918.048 0 0 0-6.621-3.078l-2.998-1.414-2.644-1.229c-2.574-1.57-3.678-2.79-5.239-5.365-.383-2.727-.383-2.727-.394-5.914l-.035-3.667.01-4.013-.027-4.233c-.022-3.83-.025-7.661-.023-11.492 0-3.198-.008-6.396-.017-9.595-.019-7.545-.022-15.09-.015-22.637a4156.21 4156.21 0 0 0-.053-23.35c-.031-6.683-.042-13.367-.038-20.05.002-3.992-.004-7.983-.028-11.974a992.56 992.56 0 0 1 0-11.26c.003-1.377-.002-2.754-.016-4.13-.114-11.705-.114-11.705 3.002-14.945 2.748-1.815 5.393-3.311 8.404-4.65l3.405-1.542 3.637-1.61a2181.02 2181.02 0 0 0 7.625-3.465l1.94-.881c6.051-2.761 12.001-5.711 17.935-8.717 8.375-4.23 16.79-8.35 25.265-12.375a2104.967 2104.967 0 0 0 20.21-9.758 3815.241 3815.241 0 0 1 18.123-8.787c4.163-2.01 8.301-4.063 12.426-6.15 1.742-.853 3.484-1.705 5.226-2.555l2.228-1.178c8.973-4.268 18.044 1.549 26.222 5.647Zm-23.559 10.414-2.955 1.422-3.248 1.57-3.373 1.625c-3.01 1.45-6.02 2.903-9.029 4.357l-7.277 3.514-12.758 6.16a11152.38 11152.38 0 0 1-29.633 14.254 7000.04 7000.04 0 0 0-13.047 6.274l-3.427 1.65c-2.159 1.039-4.317 2.08-6.475 3.122-5.034 2.422-10.072 4.773-15.231 6.919 2.61 2.043 5.174 3.712 8.138 5.192l2.438 1.223 2.608 1.288 2.704 1.34c1.884.93 3.77 1.858 5.656 2.783 2.886 1.42 5.762 2.86 8.638 4.299 1.833.902 3.667 1.803 5.502 2.703l2.601 1.313 2.447 1.184 2.137 1.056c4.426 1.285 8.255-.75 12.21-2.682l2.977-1.443 3.194-1.569 6.813-3.308 3.507-1.71c5.216-2.538 10.448-5.04 15.68-7.544 10.356-4.967 20.7-9.96 31.04-14.96 5.82-2.813 11.645-5.615 17.483-8.392a2760.905 2760.905 0 0 1 9.084-4.31c4.173-1.983 8.244-3.97 12.143-6.463-2.629-2.064-5.198-3.715-8.202-5.177l-2.477-1.212-2.645-1.279-2.734-1.332c-1.9-.926-3.803-1.85-5.706-2.771a3690.929 3690.929 0 0 1-8.77-4.266l-5.54-2.693-2.664-1.298-2.448-1.184-2.164-1.049c-2.945-1.32-4.34.016-7.197 1.394Zm39.425 42.692c-5.078 2.882-10.33 5.352-15.628 7.8-1.822.866-3.642 1.734-5.46 2.605l-2.8 1.338c-5.795 2.776-11.58 5.574-17.365 8.37A13721.39 13721.39 0 0 1 210 215c2.058 2.23 3.93 3.643 6.658 4.961l2.195 1.072 2.358 1.127 2.44 1.184c1.701.824 3.404 1.645 5.109 2.463a2218.59 2218.59 0 0 1 7.795 3.765l4.968 2.4 2.346 1.134c2.038.978 4.083 1.938 6.131 2.894l2.717 1.314c4.2 1.262 7.825-.398 11.616-2.272l2.507-1.229c.886-.44 1.771-.882 2.683-1.336l2.817-1.386c3.014-1.483 6.025-2.975 9.035-4.466 3.103-1.529 6.206-3.055 9.31-4.582 2.03-.999 4.06-1.998 6.09-2.999 6.888-3.393 13.79-6.75 20.725-10.044a2764.688 2764.688 0 0 0 17.992-8.621l1.978-.957a7279.5 7279.5 0 0 0 7.78-3.77c6.869-3.334 13.75-6.601 20.75-9.652v-2l-4.984-2.527-3.24-1.644a475.3 475.3 0 0 0-7.143-3.511c-5.445-2.629-10.703-5.235-15.653-8.748-15.827-10.532-29.545-.046-44.102 8.255ZM135 197v122c31.245 15.326 31.245 15.326 62.594 30.422 6.174 2.937 12.326 5.919 18.48 8.897 12.537 6.069 12.537 6.069 25.113 12.056l3.356 1.586c2.32 1.169 2.32 1.169 4.457 1.039V252c-14.834-7.864-14.834-7.864-29.875-15.25l-5.844-2.77-3.066-1.451c-5.258-2.5-10.499-5.037-15.74-7.572-3.078-1.488-6.157-2.974-9.237-4.46-3.559-1.72-7.117-3.438-10.674-5.16-3.25-1.574-6.5-3.143-9.751-4.712l-2.816-1.367c-8.92-4.297-17.934-8.23-26.997-12.258Zm233.617 3.55a5571.957 5571.957 0 0 0-7.189 3.512c-4.268 2.09-8.54 4.172-12.81 6.254l-2.555 1.246A2356.36 2356.36 0 0 1 327 220.75c-9.63 4.588-19.238 9.22-28.84 13.866-11.37 5.498-22.766 10.935-34.16 16.384v122c15.548-6.933 15.548-6.933 30.813-14.375 8.31-4.205 16.67-8.283 25.08-12.284a2966.41 2966.41 0 0 0 18.227-8.742c3.023-1.462 6.046-2.925 9.068-4.39 9.911-4.793 19.86-9.495 29.812-14.209V197c-2.704 0-5.934 2.349-8.383 3.55Z"/><path d="M470 161c3.612 2.884 4.932 5.75 6.402 10.074l1.252 3.675c.43 1.312.857 2.625 1.284 3.939l.664 2.018c4.232 12.907 7.27 25.87 9.398 39.294l.39 2.287c9.502 57.254-6.654 120.929-39.973 167.947-5.967 8.213-12.285 16.026-19.233 23.43-1.908 2.041-3.707 4.13-5.497 6.274C393.4 455.767 345.733 477.66 300 487l-2.538.543c-28.534 5.875-62.12 4.752-90.462-1.543l-3.234-.715C163.485 476.032 127.324 456.935 97 429a733.42 733.42 0 0 0-4.313-3.813l-1.8-1.582c-2.256-1.92-4.571-3.758-6.887-5.605l-.17 1.713a3855.04 3855.04 0 0 1-1.801 17.666c-.227 2.196-.449 4.393-.666 6.59-.314 3.162-.644 6.32-.976 9.48l-.285 2.971c-.524 4.834-.943 8.671-4.102 12.58-2.84 1.42-4.855 1.315-8 1-2.656-2.052-3.866-3.208-4.434-6.559l.106-2.879.111-3.226c.355-5.46.854-10.89 1.46-16.328l.388-3.605c.271-2.493.545-4.985.823-7.477.422-3.81.83-7.622 1.237-11.434l.801-7.297.367-3.437c1.48-13.101 1.48-13.101 4.812-16.424 3.16-1.81 5.151-1.47 8.753-1.1l3.78.36L90 391l6.559.6c5.91.585 11.815 1.198 17.721 1.82 2.537.263 5.075.52 7.613.77 3.695.364 7.387.75 11.08 1.142l3.434.326c10.02 1.107 10.02 1.107 13.593 5.342.622 3.87.559 6.01-1.375 9.438-8.01 4.767-23.231.558-32.25-.438l-5.355-.578c-4.34-.469-8.68-.943-13.02-1.422 3.925 4.015 7.86 7.86 12.25 11.375 2.778 2.226 5.544 4.446 8.234 6.777 42.598 36.578 101.846 51.548 157 47.422C320.354 469.47 363.888 451.528 398 422l2.438-2.102C439.817 385.19 463.903 339.526 473 288l.402-2.181c6.29-35.38 1.283-75.764-12.217-108.808-1.674-4.158-2.695-7.439-2.185-12.011 2.941-4.47 5.869-4.733 11-4ZM413.726 80.239C418.263 84.382 422.715 88.596 427 93c1.504-1.504 1.31-2.944 1.525-5.042l.274-2.6.287-2.835.633-5.91c.329-3.113.655-6.227.973-9.341.31-3 .632-6 .956-8.999l.275-2.797c.591-5.36 1.55-9.685 4.077-14.476 2.84-1.42 4.855-1.315 8-1 2.175 1.618 2.175 1.618 4 4 .434 2.988.434 2.988.328 6.424l-.111 3.78a312.459 312.459 0 0 1-1.46 17.019l-.388 3.603c-.27 2.485-.545 4.97-.823 7.454-.423 3.803-.831 7.608-1.237 11.413-.266 2.427-.533 4.853-.801 7.28l-.367 3.434-.363 3.199-.31 2.799c-.705 3.907-1.64 6.768-4.468 9.595-9.052.775-18.225-.234-27.223-1.242l-3.603-.39c-2.485-.27-4.97-.544-7.454-.822-3.803-.423-7.608-.831-11.413-1.237-2.427-.266-4.853-.533-7.28-.801l-3.434-.367-3.199-.363-2.799-.31c-2.786-.502-5.06-1.206-7.595-2.468-2.327-3.491-2.503-4.892-2-9 1.981-2.517 3.17-3.838 6.356-4.46 9.525.3 18.936 1.343 28.394 2.46l5.04.578c4.07.467 8.14.942 12.21 1.422v-2l-1.738-.73c-2.7-1.516-4.346-3.308-6.45-5.582C385.188 73.7 358.31 59.188 331 49l-1.999-.754c-51.928-19.325-111.799-15.996-162.13 6.445C142.87 65.714 122.041 79.773 103 98l-1.507 1.425C93.494 107.015 86.566 115.148 80 124l-1.926 2.582C56.144 156.982 43.322 192.066 38 229l-.317 2.103c-4.38 33.073.264 69.686 12.488 100.598 1.524 3.925 2.19 7.09 1.829 11.299-1.063 2.313-1.063 2.313-3 4-3.375 1.063-3.375 1.063-7 1-5.954-4.213-7.37-10.671-9.5-17.375l-1.178-3.632c-2.417-7.636-4.539-15.296-6.26-23.118l-.566-2.572c-3.097-15.155-3.906-30.251-3.871-45.678l.002-2.776C20.79 192.834 44.12 135.093 86 92l1.758-1.836C96.275 81.284 105.062 73.26 115 66l3.098-2.29C148.778 41.759 183.813 27.894 221 22l2.287-.39c67.816-11.255 140.074 13.032 190.44 58.629Z"/><path d="M177.207 251.72c2.389 1.037 4.71 2.159 7.035 3.33l2.575 1.257c1.783.875 3.563 1.757 5.34 2.646a845.026 845.026 0 0 0 8.195 4.03c1.735.854 3.47 1.71 5.203 2.568l2.477 1.212 2.288 1.152 2.013 1.003C214 270 214 270 216 273c.437 3.438.437 3.438 0 7-2.063 2.5-2.063 2.5-5 4-5.93-.303-10.455-2.34-15.672-4.93l-2.437-1.185c-1.69-.824-3.377-1.653-5.062-2.486-2.58-1.274-5.166-2.531-7.755-3.786-1.645-.805-3.29-1.61-4.933-2.418l-2.34-1.136-2.175-1.082-1.908-.94c-1.9-1.147-3.265-2.361-4.718-4.037-.711-3.46-.585-6.83 1-10 3.87-1.935 8.184-1.593 12.207-.28Z"/></svg>