<svg xmlns="http://www.w3.org/2000/svg" width="512" height="512"><path d="M313 0c4.028 1.8 7.465 4.393 11 7 1.378.992 2.757 1.983 4.137 2.973 3.093 2.224 6.177 4.46 9.258 6.703a537.058 537.058 0 0 0 12.48 8.762c5.985 4.087 11.94 8.214 17.875 12.375a1285186984.84 1285186984.84 0 0 0 7.686 5.389C379.622 46.137 383.81 49.068 388 52a232807.6 232807.6 0 0 1 7.5 5.25L423 76.5l2.502 1.751 4.978 3.486c5.157 3.61 10.318 7.217 15.481 10.82 2.527 1.766 5.05 3.54 7.57 5.314a395.309 395.309 0 0 0 8.063 5.54c9.187 6.273 9.187 6.273 10.406 12.589-.62 6.52-2.893 11.039-6.938 16.063-.991 1.288-1.981 2.578-2.968 3.87l-1.543 2.004c-3.101 4.125-5.957 8.422-8.846 12.696C445.001 160.5 445.001 160.5 442 162c-3.836.355-6.146.547-9.438-1.563-2.14-3.338-1.875-5.52-1.562-9.437 1.258-2.605 1.258-2.605 3.125-5.188l2.164-3.058 1.263-1.742a567.553 567.553 0 0 0 5.096-7.235c3.437-4.935 6.89-9.859 10.352-14.777-6.43-5.122-13.044-9.9-19.813-14.563l-6.132-4.246-3.083-2.132a2963.826 2963.826 0 0 1-13.16-9.184l-2.462-1.725-4.898-3.432C399.302 80.81 395.15 77.905 391 75l-5-3.5-2.5-1.75L356 50.5a583004266.983 583004266.983 0 0 0-7.48-5.237 9943.025 9943.025 0 0 0-12.836-8.974C327.064 30.271 318.457 24.246 310 18c-3.531 4.314-6.804 8.792-10.063 13.313l-1.74 2.412a869.99 869.99 0 0 0-11.968 17.101 1616.417 1616.417 0 0 1-11.041 15.924 1285188253.344 1285188253.344 0 0 0-5.39 7.686C266.863 78.622 263.932 82.81 261 87a232807.6 232807.6 0 0 1-3.5 5l-1.75 2.5-21.002 30.003-3.48 4.973c-3.014 4.306-6.03 8.61-9.05 12.91l-1.886 2.69c-1.179 1.68-2.358 3.36-3.539 5.04l-1.637 2.333-1.412 2.01c-2.622 3.82-5.174 7.686-7.744 11.541h47l1-5c8.977-20.204 24.754-37.454 45.344-46.004L302 114l2.531-.965C316.58 109.098 330.564 109.43 342 115c11.53 6.644 18.816 17.528 22.313 30.188.814 4.36.765 8.694.73 13.113l-.01 2.246c-.007 1.818-.02 3.636-.033 5.453l1.672-.027c5.792-.089 11.584-.149 17.377-.193 2.156-.02 4.312-.047 6.468-.082 3.115-.049 6.23-.071 9.346-.089l2.877-.062c11.472-.004 20.82 4.103 28.944 12.113 6.53 7.149 9.447 14.406 9.43 24.036v2.012c0 2.186-.008 4.372-.016 6.558l-.005 4.556c-.003 3.992-.013 7.983-.024 11.975-.01 4.075-.015 8.15-.02 12.226-.01 7.993-.028 15.985-.049 23.977l2.38.457c9.253 1.918 17.248 8.682 22.495 16.356 5.776 10.718 5.624 21.86 5.571 33.73-.008 2.885.02 5.769.052 8.654.057 14.846-1.558 26.77-12.38 37.705C453.805 364.828 448.43 369 441 369l.027 2.508c.08 7.84.141 15.68.18 23.52.021 4.03.05 8.06.095 12.09.044 3.896.067 7.793.078 11.69.007 1.479.021 2.957.043 4.436.17 12.069-1.367 22.161-9.298 31.682-11.955 11.67-25.737 12.227-41.516 12.242l-3.826.01c-2.656.005-5.312.008-7.968.007-3.394 0-6.79.014-10.184.031-3.257.014-6.514.013-9.772.014l-3.68.022-3.43-.01-3.006.005c-4.077-.367-6.84-1.344-9.743-4.247-.69-7.126-.69-7.126 1.655-10.098 2.976-2.414 4.532-2.4 8.332-2.4l3.663-.03 3.952.024c1.36-.007 2.72-.017 4.08-.028 3.584-.027 7.167-.033 10.75-.031 5.714.002 11.427-.013 17.14-.056 1.981-.01 3.963 0 5.945.009 8.814-.05 16.7-1.013 24.483-5.39 1.142-1.782 1.142-1.782 2-4l1.532-2.725c1.611-3.595 1.862-6.004 1.9-9.923l.06-3.942.02-4.215.054-4.346c.047-3.797.077-7.595.104-11.393.03-3.881.076-7.762.121-11.644.086-7.604.153-15.208.209-22.812l-2.304.027c-7.222.08-14.443.141-21.665.18-3.711.021-7.423.049-11.134.095-3.592.044-7.184.067-10.776.078-2.014.01-4.029.041-6.043.073-10.737.003-21.061-1.754-30.078-7.953l-2.563-1.719c-11.67-8.529-18.44-19.157-22.042-33.129-2.22-14.921-.217-30.113 8.605-42.652 9.74-12.24 21.234-20.612 37-23 4.743-.262 9.474-.233 14.223-.195l4.064.008c3.536.008 7.072.027 10.608.05 3.62.02 7.24.03 10.86.04 7.082.02 14.164.055 21.245.097-.038-8.207-.098-16.413-.184-24.62-.04-3.81-.072-7.621-.087-11.433-.015-3.683-.05-7.365-.097-11.048-.015-1.4-.023-2.8-.024-4.2.021-12.08.021-12.08-6.02-22.207-4.767-4.27-9.127-5.74-15.428-5.75l-3.562-.019-3.901.01-4.154-.014a2974.28 2974.28 0 0 0-11.413-.01c-4.103 0-8.206-.01-12.309-.02-8.038-.016-16.077-.022-24.115-.023-6.534-.001-13.068-.005-19.602-.012a53853.56 53853.56 0 0 0-55.57-.025H262.478c-16.206.001-32.412-.018-48.618-.046-16.639-.029-33.277-.042-49.916-.04-9.341 0-18.683-.006-28.025-.027-7.954-.018-15.908-.023-23.862-.009-4.057.007-8.115.007-12.173-.01-3.716-.016-7.432-.014-11.149.004-1.977.004-3.954-.01-5.931-.027-7.528.059-13.613.516-19.316 5.973-6.57 7.488-6.64 15.343-6.622 24.876l-.007 2.783c-.006 3.067-.005 6.133-.004 9.2l-.01 6.61c-.01 5.977-.012 11.954-.012 17.931l-.006 11.208a48160.93 48160.93 0 0 0-.012 37.092v4.037c0 10.802-.01 21.605-.023 32.407a24568.2 24568.2 0 0 0-.02 33.314c0 6.23-.003 12.459-.014 18.688-.01 5.86-.01 11.718-.003 17.577.002 2.147 0 4.295-.007 6.442-.008 2.937-.003 5.874.005 8.81l-.016 2.56c.045 7.732.803 15.26 5.708 21.514 5.7 5.514 13.025 6.627 20.659 6.63l3.66.012 3.927.003c2.044.012 4.087.027 6.13.042 5.03.038 10.06.07 15.09.067 3.507 0 7.014.023 10.521.062 1.98.016 3.962.005 5.943-.005l3.65.05 3.212.01c2.763.633 2.763.633 5.14 2.947C142 456 142 456 141.937 459.625c-1.254 4.518-1.254 4.518-3.937 6.375-3.095 1.032-5.245 1.133-8.49 1.145l-3.41.02-3.694.003-3.809.01c-2.666.005-5.333.008-8 .007-3.387 0-6.775.014-10.162.031-3.26.014-6.52.013-9.779.014l-3.644.022c-13.607-.036-26.04-1.96-36.414-11.451-7.355-8.29-9.902-16.892-9.865-27.718l-.014-3.014c-.013-3.33-.011-6.66-.01-9.99-.006-2.388-.012-4.777-.02-7.166-.016-5.813-.022-11.627-.023-17.441-.001-4.728-.005-9.456-.012-14.184-.017-13.417-.026-26.833-.025-40.249v-4.383c.001-11.724-.018-23.447-.046-35.17a14285.49 14285.49 0 0 1-.04-36.145c0-6.76-.005-13.52-.027-20.28-.02-6.359-.02-12.718-.005-19.078.002-2.33-.003-4.661-.015-6.992-.015-3.189-.006-6.377.01-9.566l-.032-2.776c.094-8.848 2.751-16.53 8.901-23.024l2.21-2.398C54 174 54 174 57.108 172.333c3.216-2.093 3.216-2.093 3.626-5.748a96.89 96.89 0 0 0-.024-4.136l.013-2.287c.008-2.493-.026-4.983-.058-7.475.001-1.733.005-3.466.013-5.2.013-4.562-.006-9.124-.035-13.686a2427.67 2427.67 0 0 1-.04-21.907c0-2.55-.026-5.1-.054-7.651l.001-4.692-.043-2.148c.027-3.41.272-5.118 2.395-7.844C66.417 86.947 68.707 87.523 73 88c2.674 1.812 2.96 2.878 4 6 .09 2.315.118 4.633.114 6.95v2.13c0 2.32-.009 4.642-.016 6.963l-.005 4.83c-.003 4.236-.013 8.473-.024 12.71-.01 4.323-.015 8.646-.02 12.97-.01 8.482-.028 16.965-.049 25.447h20V29H77l.14 8.355c.032 2.678.056 5.355.08 8.033.02 1.857.047 3.715.082 5.572.048 2.674.071 5.347.089 8.02l.062 2.507c.002 4.001-.154 6.026-2.294 9.514C72.385 73.57 70.765 74 67 74c-4.565-2.13-4.565-2.13-6-5a78.052 78.052 0 0 1-.193-4.63l-.049-2.914c-.044-4.404-.085-8.808-.108-13.212a747.132 747.132 0 0 0-.082-6.966 837.476 837.476 0 0 1-.091-10.044l-.07-3.135c.024-8.054.024-8.054 3-11.739 4.013-3.653 6.807-3.51 12.013-3.514l2.346-.013c2.607-.014 5.215-.02 7.823-.026l5.592-.025c6.134-.026 12.267-.041 18.401-.055l6.328-.017c8.771-.021 17.543-.04 26.314-.051 12.583-.016 25.165-.05 37.748-.107 8.841-.038 17.682-.058 26.523-.063 5.283-.004 10.567-.016 15.85-.048 4.97-.03 9.94-.037 14.91-.025 1.825 0 3.65-.008 5.475-.025 2.49-.023 4.979-.015 7.47.001l2.191-.042c3.883.061 5.474.54 8.516 3.037 3.659 4.567 4.343 8.224 4.507 14.008l.117 3.642.094 3.776.117 3.833c.094 3.118.18 6.236.258 9.354l1.063-1.519 1.507-2.153 1.697-2.424 3.757-5.364a4732.73 4732.73 0 0 0 9.777-14.005l1.849-2.655c1.157-1.662 2.313-3.325 3.466-4.99C302.1-1.738 302.1-1.738 313 0ZM113 29v137h20V29h-20Zm36 0v137c34.193 4.3 34.193 4.3 43.938-6.75 1.364-2.237 1.364-2.237 2.039-4.438 2.153-5.468 5.377-9.845 8.835-14.562 1.198-1.7 2.392-3.404 3.583-5.11l1.807-2.576c2.935-4.186 5.866-8.375 8.798-12.564l1.74-2.486c2.97-4.24 5.936-8.481 8.9-12.725l1.833-2.621c1.128-1.614 2.256-3.229 3.382-4.844C238.852 90.178 243.931 83.097 249 76V29H149Zm130.738 120.738c-2.996 4.005-5.634 7.958-7.85 12.441l-1.076 2.172L270 166c10.153.023 20.305.04 30.458.052 4.714.005 9.428.012 14.141.023 4.546.011 9.09.017 13.636.02 1.738.002 3.476.005 5.214.01 2.426.008 4.852.009 7.277.009l2.2.01c3.32.284 3.32.284 6.074-1.124.828-10.558-.102-20.569-7-29-6.057-6.148-11.524-9.117-20.188-9.438-16.87.464-31.552 10.437-42.074 23.176Zm60.801 144.11c-6.395 8.943-7.37 18.407-6.539 29.152 2.626 10.98 8.895 20.252 18.32 26.55 10.453 5.698 22.023 5.754 33.66 5.716l3.92.005c2.715.003 5.43 0 8.146-.01 3.456-.012 6.911-.005 10.367.007 3.335.009 6.67.003 10.005-.002l3.722.012c9.2-.05 17.484-.243 24.86-6.278 6.49-6.792 8.468-12.763 8.434-21.863l.015-2.522a616.35 616.35 0 0 0-.003-5.256c-.008-2.654.02-5.305.052-7.959.236-14.118.236-14.118-6.19-26.286-5.637-5.396-11.835-7.484-19.537-7.518l-2.078-.02a634.377 634.377 0 0 0-6.74-.01l-4.734-.015c-3.301-.01-6.603-.007-9.905.003-4.203.011-8.407-.009-12.61-.038-3.259-.018-6.517-.018-9.776-.012-1.548 0-3.097-.006-4.645-.019-16.199-.112-28.09 3.69-38.744 16.363Z"/><path d="M300.582 351.797 303 354l2.137 1.89c15.82 14.796 26.33 37.846 27.066 59.508.432 27.348-7.738 51.295-26.8 71.332-20.42 19.398-44.078 26.204-71.876 25.618-24.983-1-45.9-13.973-62.742-31.676C153.687 460.764 148.258 435.613 150 410c2.477-20.994 12.253-39.006 27-54l2.3-2.34c32.766-31.37 87.477-31.224 121.282-1.863Zm-116.559 19.836c-13.865 16.22-19.42 36.033-18.226 57.04 1.747 20.055 12.434 38.483 27.625 51.417 17.394 12.887 37.116 18.874 58.699 15.943 19.98-3.096 37.012-13.967 49.524-29.681 12.18-16.743 16.6-36.733 13.847-57.11-3.815-19.953-14.573-37.02-30.707-49.363C273.32 352.144 259.866 346.909 246 346l-2.363-.156c-23.248-.827-43.703 9.19-59.614 25.789Z"/><path d="M246 371c2.438 1.375 2.438 1.375 4 4 .321 3.36.231 6.636 0 10l2.703-.176 3.547-.137 3.516-.175C263 385 263 385 265.39 387.328c1.96 3.255 2.245 4.934 1.609 8.672-1.867 2.303-3.356 3.678-6 5-2.142.119-4.288.18-6.434.21-1.288.03-2.576.058-3.904.087-2.052.041-4.103.078-6.155.104-1.98.028-3.96.075-5.94.122l-3.596.06c-2.946.186-2.946.186-4.893 1.751-1.381 1.774-1.381 1.774-.89 4.791L230 411c3.68 1.84 8.271 1.37 12.352 1.518 8.96.418 16.023 2.121 22.648 8.482 4.19 4.939 5.225 10.63 5 17-1.101 7.003-4.602 12.455-10 17-3.176 1.708-6.333 3-10 3l.176 2.047c.366 7.246.366 7.246-2.238 10.64-3.823 1.708-5.937 1.424-9.938.313-2.06-1.579-2.846-2.691-4-5-.134-2.672-.043-5.323 0-8l-2.887.14-3.8.11-3.762.14c-4.138-.455-5.714-1.394-8.551-4.39-.625-3.438-.625-3.438 0-7 2.605-3.326 4.067-4.83 8.274-5.596l3.671.03 1.975-.017a334.9 334.9 0 0 1 6.205.02c2.076.017 4.15.026 6.226.01 1.878-.013 3.756.003 5.634.02 3.084-.188 3.084-.188 4.972-2.295 1.355-2.266 1.355-2.266.418-5.36L251 431c-2.773-.924-4.52-1.134-7.387-1.176l-2.595-.072a419.718 419.718 0 0 0-5.352-.094c-7.01-.225-12.52-1.657-17.69-6.588-4.472-6.436-6.943-12.03-5.976-20.07 1.505-6.254 4.404-11.608 9.89-15.258 4.134-2.256 7.315-3.221 12.11-2.742l-.188-3.688c-.006-3.894.727-6.189 3.188-9.312 3.092-1.546 5.594-1.294 9-1ZM390 292c3.33 2.22 5.879 4.076 7 8-.13 3.68-.221 6.072-2.625 8.938-3.431 1.535-5.642 1.568-9.375 1.062-1.762-1.125-1.762-1.125-3.5-2.5-2.704-2.134-3.506-2.5-7.125-3-4.489.665-6.909 2.135-10.188 5.188-1.743 3.395-1.73 6.617-1.187 10.312 1.681 3.867 3.152 5.42 7 7 3.05.47 5.95.473 9 0a262.496 262.496 0 0 0 5-4c3.904-.819 7.055-.59 10.5 1.563 2.093 3.4 2.051 5.508 1.5 9.437-2.408 4.598-6.366 6.898-10.95 9.05-7.081 2.204-15.466 2.113-22.55-.175-8.537-4.574-13.425-10.651-16.5-19.875-.947-10.406.207-17.686 6.54-26.027 9.854-11.046 24.907-11.699 37.46-4.973ZM331 39c3.213 1.568 5.97 3.593 8.813 5.75l2.271 1.633c8.51 6.237 8.51 6.237 9.416 11.554-.682 4.177-2.13 5.572-5.5 8.063-3.895.55-5.523.32-8.824-1.89l-2.863-2.36c-4.215-3.14-4.215-3.14-9.22-3.39-2.803 1.107-2.803 1.107-5.5 2.511-2.879 1.253-4.233 1.156-7.28.691-2.197-.264-2.197-.264-4.313.438-2.443 2.63-4.294 5.345-6.176 8.398-1.846 2.633-2.809 3.623-5.824 4.602-3.047-.187-5.206-.507-7.813-2.125-1.903-3.005-2.708-5.38-2.187-8.875 1.928-3.964 4.398-7.451 7-11l1.957-2.672c4.63-6.122 4.63-6.122 7.043-7.328 5.326-.347 5.326-.347 8.063 1.063 1.935 1.119 1.935 1.119 4.312.874 2.95-1.053 4.598-2.588 6.707-4.878 3.256-1.797 6.372-1.766 9.918-1.059ZM405.753 92.563c4.368.849 7.59 3.595 11.06 6.25l2.271 1.658c6.918 5.1 6.918 5.1 8.916 7.529.396 4.991.208 7.585-2 12 .206 4.955 1.543 6.651 5 10 1 2.25 1 2.25 1 5-3.302 8.555-9.518 18.986-18 23-3.452-.069-5.25-.35-7.875-2.625-1.687-3.562-1.76-5.436-1.125-9.375 1.182-1.64 2.417-3.24 3.687-4.812 2.759-3.492 2.759-3.492 3.11-7.735a86.99 86.99 0 0 0-1.879-4.992c-1.779-4.768-1.509-9.688.082-14.461l-2-.625c-4.37-2.003-9.79-4.953-12-9.375-.406-3.655-.214-5.59 1.5-8.875 2.854-2.426 4.559-2.664 8.253-2.562Z"/></svg>