<svg width="30" height="30" viewBox="0 0 30 30" fill="none" xmlns="http://www.w3.org/2000/svg">
<path d="M26.3984 0.45459H9.14844C7.56287 0.45459 6.27344 1.72534 6.27344 3.28792H23.5234C25.109 3.28792 26.3984 4.55867 26.3984 6.12126V17.4546C27.984 17.4546 29.2734 16.1838 29.2734 14.6213V3.28792C29.2734 1.72534 27.984 0.45459 26.3984 0.45459Z" fill="white"/>
<path d="M4.58594 23.9606V29.4546L6.76375 28.1285L13.6091 23.9606H20.3984C21.984 23.9606 23.2734 22.652 23.2734 21.0429V9.37226C23.2734 7.76317 21.984 6.45459 20.3984 6.45459H3.14844C1.56287 6.45459 0.273438 7.76317 0.273438 9.37226V21.0429C0.273438 22.652 1.56287 23.9606 3.14844 23.9606H4.58594ZM3.14844 9.37226H20.3984V21.0429H12.8127L7.46094 24.302V21.0429H3.14844V9.37226Z" fill="white"/>
</svg>
