<svg width="30" height="30" viewBox="0 0 30 30" fill="none" xmlns="http://www.w3.org/2000/svg">
<path d="M27.026 0H9.18117C7.54093 0 6.20703 1.31457 6.20703 2.93103H24.0519C25.6921 2.93103 27.026 4.2456 27.026 5.86207V17.5862C28.6662 17.5862 30.0001 16.2716 30.0001 14.6552V2.93103C30.0001 1.31457 28.6662 0 27.026 0Z" fill="white"/>
<path d="M4.46121 24.3167V30.0001L6.71412 28.6283L13.7955 24.3167H20.819C22.4592 24.3167 23.7931 22.963 23.7931 21.2984V9.22531C23.7931 7.56073 22.4592 6.20703 20.819 6.20703H2.97414C1.3339 6.20703 0 7.56073 0 9.22531V21.2984C0 22.963 1.3339 24.3167 2.97414 24.3167H4.46121ZM2.97414 9.22531H20.819V21.2984H12.9717L7.43535 24.6699V21.2984H2.97414V9.22531Z" fill="white"/>
</svg>
