<?xml version="1.0" standalone="no"?>
<!DOCTYPE svg PUBLIC "-//W3C//DTD SVG 20010904//EN"
 "http://www.w3.org/TR/2001/REC-SVG-20010904/DTD/svg10.dtd">
<svg version="1.0" xmlns="http://www.w3.org/2000/svg"
 width="1920.000000pt" height="1080.000000pt" viewBox="0 0 1920.000000 1080.000000"
 preserveAspectRatio="xMidYMid meet">
<metadata>
Created by potrace 1.16, written by Peter Selinger 2001-2019
</metadata>
<g transform="translate(0.000000,1080.000000) scale(0.100000,-0.100000)"
fill="#000000" stroke="none">
<path d="M3700 10760 c0 -29 -4 -40 -15 -40 -8 0 -15 -7 -15 -16 0 -8 -7 -22
-15 -30 -8 -9 -15 -31 -15 -50 0 -19 -4 -34 -10 -34 -5 0 -10 -15 -10 -32 0
-48 -10 -78 -26 -78 -8 0 -14 -11 -14 -26 0 -16 -7 -28 -18 -31 -19 -4 -39
-44 -67 -131 -10 -30 -23 -52 -31 -52 -8 0 -14 -4 -14 -9 0 -5 -7 -17 -15 -25
-12 -12 -13 -20 -5 -36 13 -24 4 -64 -27 -112 -12 -21 -23 -42 -23 -48 0 -5
-11 -10 -25 -10 -14 0 -25 -4 -25 -10 0 -5 -6 -10 -13 -10 -8 0 -20 -12 -28
-27 -8 -15 -26 -39 -41 -54 -16 -14 -28 -32 -28 -40 0 -8 -9 -20 -20 -27 -11
-6 -31 -34 -45 -62 -14 -27 -30 -50 -36 -50 -7 0 -9 -11 -7 -24 4 -18 -5 -38
-33 -72 -25 -29 -39 -56 -39 -74 0 -22 -5 -29 -22 -32 -34 -5 -108 -139 -108
-195 0 -32 -4 -43 -15 -43 -8 0 -15 -6 -15 -13 0 -7 -17 -31 -38 -53 -52 -53
-102 -128 -102 -153 0 -12 -4 -21 -10 -21 -6 0 -10 -27 -10 -60 0 -53 -2 -60
-20 -60 -13 0 -20 -7 -20 -20 0 -12 -7 -20 -17 -20 -22 0 -103 -79 -103 -101
0 -9 -9 -24 -20 -34 -11 -10 -20 -22 -20 -28 0 -5 -22 -41 -50 -80 -27 -39
-50 -77 -50 -84 0 -7 -4 -13 -9 -13 -5 0 -23 -12 -40 -26 -26 -22 -31 -33 -31
-70 0 -25 -5 -44 -11 -44 -6 0 -10 12 -9 28 3 46 1 47 -30 15 -17 -17 -28 -37
-25 -45 3 -8 -1 -21 -10 -28 -12 -10 -15 -10 -15 5 0 34 -38 -13 -49 -59 -7
-34 -9 -36 -10 -13 -1 16 4 37 10 49 6 11 8 22 6 25 -3 3 -13 -10 -22 -28 -13
-24 -16 -48 -13 -93 3 -34 3 -51 1 -38 -5 27 -23 29 -23 2 0 -11 -4 -20 -10
-20 -5 0 -10 -9 -10 -20 0 -11 -4 -20 -10 -20 -5 0 -12 -23 -16 -51 -4 -28
-13 -56 -20 -64 -8 -7 -14 -21 -14 -29 0 -9 -4 -16 -9 -16 -11 0 -33 -107 -29
-140 3 -21 -1 -25 -22 -22 -17 1 -21 -1 -11 -7 17 -11 -3 -26 -21 -15 -6 4 -8
3 -5 -3 8 -12 -25 -36 -93 -69 -42 -20 -62 -29 -145 -64 -47 -19 -212 -24
-306 -10 -159 24 -340 96 -354 140 -3 11 -10 20 -14 20 -5 0 -14 20 -21 45
-16 56 -30 58 -30 5 0 -79 57 -157 141 -195 115 -51 186 -67 330 -72 123 -5
143 -3 205 17 104 34 200 85 430 227 591 367 1192 708 1949 1105 348 183 448
231 490 234 22 1 51 6 65 9 24 6 24 6 -2 -10 -15 -8 -34 -28 -42 -43 -14 -27
-54 -276 -59 -366 -1 -27 -7 -51 -14 -53 -20 -7 -24 49 -9 127 8 41 12 78 10
82 -2 3 3 38 11 78 19 90 19 96 0 80 -9 -7 -15 -20 -14 -29 1 -9 -5 -32 -13
-51 -9 -19 -21 -82 -28 -140 -6 -58 -18 -117 -26 -132 -8 -15 -15 -30 -14 -33
0 -3 -1 -4 -3 -2 -4 4 -197 -187 -197 -196 0 -5 -18 -30 -40 -56 -22 -26 -40
-50 -40 -54 0 -4 -15 -30 -33 -59 -74 -119 -144 -293 -181 -453 -36 -155 -49
-375 -22 -375 21 0 26 23 26 128 0 103 28 216 60 237 19 12 71 25 65 16 -6
-11 8 -25 40 -40 34 -16 66 -15 78 3 5 7 7 4 6 -9 -1 -11 0 -24 1 -30 1 -5 1
-50 1 -100 -1 -90 15 -165 38 -173 15 -5 37 52 51 133 21 131 32 172 40 150 8
-19 8 -19 15 -1 5 11 3 21 -5 26 -10 6 -4 29 25 101 45 112 114 256 129 268 6
5 26 2 45 -6 32 -14 33 -15 26 -56 -6 -39 -15 -126 -32 -330 -3 -43 -9 -74
-13 -68 -3 6 -7 -28 -8 -76 -1 -52 -7 -90 -13 -94 -6 -4 -9 -11 -6 -16 3 -5 0
-43 -7 -84 -13 -79 -11 -109 8 -109 11 0 34 148 61 405 3 28 12 91 20 140 8
50 21 153 29 230 29 257 33 279 46 234 4 -14 3 -48 -2 -75 -5 -27 -27 -202
-49 -389 -49 -416 -66 -529 -85 -566 -8 -16 -39 -44 -69 -63 -54 -35 -115 -92
-115 -107 0 -4 -6 -59 -14 -121 -8 -62 -22 -185 -31 -273 -9 -88 -22 -209 -30
-270 -78 -590 -209 -2061 -275 -3065 -11 -173 -25 -337 -30 -365 -7 -42 -8
-36 -4 40 9 188 88 1288 114 1585 5 63 16 205 25 315 8 110 19 247 25 305 18
195 23 255 26 305 18 262 23 323 28 345 6 28 12 82 21 185 4 39 9 88 12 110 3
22 7 63 9 90 12 138 37 355 45 394 5 24 12 78 14 120 3 42 7 90 10 106 11 68
15 195 7 195 -22 0 -30 -31 -36 -130 -3 -58 -11 -136 -16 -175 -5 -38 -13 -96
-16 -127 -4 -32 -11 -58 -15 -58 -5 0 -9 5 -9 10 0 6 -4 10 -10 10 -5 0 -10
-11 -10 -25 0 -26 15 -34 23 -12 3 6 5 -10 5 -38 -1 -34 -2 -40 -5 -17 -3 25
-9 32 -26 32 -16 0 -18 -3 -9 -9 11 -7 10 -10 -3 -15 -9 -3 -24 -6 -34 -6 -9
0 -35 -18 -56 -40 -35 -36 -37 -40 -17 -40 15 0 22 6 22 20 0 11 5 20 10 20 6
0 10 -18 10 -40 l0 -40 -173 0 -173 0 -59 -60 c-52 -52 -64 -60 -97 -60 -31 0
-38 -4 -38 -20 0 -13 -7 -20 -18 -20 -10 0 -24 -9 -32 -20 -10 -14 -26 -20
-51 -20 -27 0 -38 -5 -47 -22 l-11 -23 0 23 c-1 33 -41 31 -41 -3 0 -14 -8
-29 -20 -35 -16 -9 -20 -8 -20 5 0 11 -11 15 -39 15 l-38 0 -6 -53 c-4 -41
-18 -75 -61 -146 -37 -62 -56 -104 -56 -126 0 -24 -6 -34 -25 -43 -36 -17 -48
-15 -74 9 -12 12 -30 19 -40 16 -19 -5 -84 10 -132 30 -14 6 -37 9 -51 6 -26
-5 -52 2 -183 52 -33 12 -78 28 -100 35 -51 16 -95 48 -126 94 -13 20 -28 36
-34 36 -21 0 -143 -135 -138 -152 2 -4 -5 -9 -15 -12 -9 -3 -30 -27 -47 -53
-16 -27 -70 -91 -120 -143 -49 -53 -117 -131 -150 -174 -33 -43 -92 -110 -130
-150 -39 -39 -84 -91 -100 -115 -34 -50 -65 -73 -72 -53 -3 6 -15 12 -27 12
-17 0 -29 -14 -51 -57 -16 -32 -29 -60 -28 -63 0 -3 4 -15 8 -27 5 -20 3 -23
-19 -21 -24 2 -38 18 -17 18 5 0 7 9 4 20 -3 11 -7 20 -9 20 -2 0 -31 -13 -65
-30 -65 -31 -86 -31 -69 0 25 46 11 50 -51 13 -34 -21 -57 -39 -51 -41 6 -2
22 4 34 12 30 22 38 20 38 -7 0 -17 -14 -31 -55 -56 -30 -18 -55 -37 -55 -42
0 -14 12 -11 50 13 35 21 105 34 94 17 -3 -5 -11 -9 -19 -9 -8 0 -18 -7 -22
-15 -10 -16 -100 -73 -150 -94 -38 -16 -42 -29 -10 -36 33 -7 46 -3 109 38 31
20 64 37 73 37 8 0 15 4 15 9 0 5 13 14 29 21 17 7 37 26 46 45 20 44 35 52
51 30 11 -15 9 -22 -11 -50 -14 -17 -25 -35 -25 -40 0 -4 -18 -30 -40 -57 -22
-28 -40 -57 -40 -64 0 -8 -4 -14 -10 -14 -5 0 -16 -12 -24 -27 -8 -16 -26 -41
-40 -58 -14 -16 -23 -31 -21 -33 3 -3 -13 -26 -33 -51 -77 -93 -85 -112 -77
-195 7 -71 21 -96 45 -81 4 3 13 -2 20 -10 22 -26 2 -160 -50 -340 -16 -55
-41 -158 -56 -230 -15 -71 -33 -145 -40 -164 -13 -30 -19 -59 -43 -206 -17
-100 -33 -170 -41 -180 -4 -5 -13 -46 -20 -90 -11 -75 -16 -100 -41 -200 -14
-56 -29 -67 -29 -22 0 68 -29 37 -50 -53 -7 -30 -21 -73 -30 -95 -10 -22 -25
-61 -34 -86 -16 -46 -66 -122 -66 -102 0 6 -9 9 -20 6 -25 -7 -26 -20 -2 -26
13 -4 12 -5 -5 -6 -12 0 -27 -9 -32 -19 -5 -10 -39 -33 -75 -51 -36 -18 -69
-37 -72 -42 -11 -18 -32 -8 -38 18 -10 42 -64 614 -84 886 -5 64 -12 120 -15
123 -4 4 -13 1 -21 -5 -8 -7 -27 -16 -43 -20 -22 -6 -31 -3 -45 15 -10 12 -18
31 -18 43 0 49 24 126 46 148 36 36 50 70 63 155 14 85 30 336 23 356 -8 23
-21 12 -41 -34 l-21 -46 -18 23 c-17 20 -17 26 -6 48 8 14 14 32 14 39 0 7 16
28 35 48 19 19 35 42 35 51 0 40 33 99 71 128 22 16 42 39 45 51 3 12 21 36
40 53 43 40 48 70 7 44 -49 -30 -73 -56 -73 -79 0 -30 -35 -51 -56 -33 -11 9
-14 9 -14 -2 -1 -41 -110 -116 -133 -93 -9 9 11 44 25 44 6 0 26 11 44 25 18
14 37 25 42 25 10 0 24 41 17 49 -3 2 -22 -8 -44 -22 -22 -15 -42 -23 -45 -18
-3 5 4 11 15 14 14 4 18 10 13 18 -4 7 -9 23 -10 36 -3 28 64 91 106 100 16 3
28 8 26 12 -2 3 13 19 35 35 21 17 39 36 39 43 0 7 8 20 19 30 10 10 21 32 25
48 4 17 27 71 52 122 24 51 44 101 44 112 0 12 9 43 19 71 11 27 17 50 14 50
-2 0 9 12 26 26 28 23 31 32 31 80 0 53 0 54 -29 54 -17 0 -32 3 -34 8 -9 13
63 175 84 190 16 11 20 21 15 45 -9 43 -23 56 -52 48 -20 -5 -30 -19 -46 -66
-11 -33 -24 -80 -28 -105 -5 -25 -18 -76 -29 -114 -29 -96 -52 -121 -65 -70
-4 15 -11 23 -15 18 -9 -10 -46 -121 -67 -200 -7 -29 -24 -68 -38 -88 -13 -20
-28 -51 -32 -68 -9 -44 -60 -138 -89 -165 -29 -28 -58 -31 -51 -5 2 9 12 60
21 112 17 97 55 253 80 325 7 22 19 67 25 100 6 33 26 89 44 125 18 36 36 81
40 100 3 19 17 50 30 70 13 19 32 67 41 105 9 39 23 90 32 115 8 25 16 79 17
120 1 54 9 89 25 124 12 26 26 70 30 97 6 36 17 57 40 79 17 17 31 37 31 44 0
21 21 31 31 15 11 -18 23 -5 38 40 14 44 14 91 0 91 -27 0 11 224 55 327 14
34 26 71 26 81 0 22 37 168 46 183 10 17 22 183 14 199 -6 10 -10 3 -15 -25
-4 -22 -19 -67 -35 -100 -15 -33 -30 -79 -34 -103 -3 -23 -22 -72 -41 -108
-25 -48 -35 -78 -35 -112 0 -44 -24 -131 -38 -142 -11 -8 -39 -85 -72 -198
-14 -46 -28 -76 -41 -82 -17 -10 -19 -7 -19 29 0 26 9 53 25 77 15 22 25 51
25 73 0 26 3 32 10 21 13 -20 18 -2 24 80 3 36 8 75 12 88 4 13 1 41 -6 62
-16 48 -8 80 29 122 23 27 30 47 36 101 5 41 15 76 26 90 12 16 19 43 20 85 2
56 4 62 30 72 15 7 30 22 33 36 6 24 26 34 26 13 0 -6 14 -9 31 -7 27 3 33 9
45 48 8 25 18 58 24 74 5 16 6 35 1 43 -13 23 -41 -12 -41 -50 0 -22 -7 -37
-22 -47 -28 -18 -37 -19 -65 -6 -17 7 -20 12 -12 22 6 7 9 23 7 36 -3 20 -5
18 -22 -17 -10 -22 -22 -42 -26 -45 -18 -13 -103 -208 -110 -254 -5 -28 -11
-62 -14 -76 -2 -14 -10 -59 -16 -100 -6 -41 -27 -140 -45 -220 -44 -190 -55
-243 -63 -315 -4 -33 -11 -66 -15 -72 -11 -18 -44 -16 -55 3 -8 14 -10 14 -21
0 -8 -9 -11 -26 -8 -38 4 -13 -1 -31 -14 -46 -10 -14 -19 -31 -19 -39 0 -7
-16 -87 -35 -176 -20 -89 -40 -182 -45 -207 -5 -25 -18 -85 -29 -135 -26 -120
-48 -239 -55 -300 l-6 -50 14 40 c34 97 76 244 77 266 0 13 3 19 5 14 2 -6 1
-46 -4 -89 -5 -42 -5 -79 -2 -81 4 -2 1 -37 -6 -77 -20 -119 -81 -451 -114
-618 -16 -85 -41 -220 -55 -299 -14 -80 -28 -148 -31 -153 -3 -5 -9 -34 -14
-66 -5 -31 -23 -139 -39 -240 l-31 -182 0 -622 0 -622 21 20 c14 14 24 42 29
80 4 33 15 84 24 114 9 30 16 64 16 74 0 24 31 96 41 96 4 0 5 -24 2 -53 -4
-42 -2 -57 12 -70 13 -13 15 -26 11 -50 -10 -48 -16 -94 -10 -74 6 20 33 23
36 5 0 -7 2 -17 3 -23 2 -5 3 -27 4 -48 1 -34 3 -37 16 -23 8 8 15 24 15 36 0
12 7 29 16 37 14 15 16 13 14 -18 -2 -19 0 -41 3 -49 6 -16 27 -194 27 -228 0
-15 -9 -22 -30 -27 -30 -7 -31 -9 -29 -54 2 -38 -3 -55 -23 -82 -14 -19 -43
-66 -65 -105 -21 -39 -49 -89 -64 -110 -14 -21 -35 -63 -47 -93 l-22 -54 0
-993 0 -994 9600 0 9600 0 0 284 0 284 -67 27 c-38 16 -125 54 -195 86 -70 33
-130 59 -133 59 -2 0 -35 14 -72 31 -38 17 -117 51 -178 74 -60 24 -173 71
-250 105 -77 34 -187 81 -245 105 -58 24 -163 68 -235 99 -181 79 -339 146
-480 204 -66 27 -176 73 -245 101 -69 29 -146 63 -171 76 -26 14 -52 25 -59
25 -6 0 -75 31 -153 69 -78 37 -153 71 -167 74 -32 8 -58 46 -39 58 7 4 28 1
46 -6 18 -8 34 -14 36 -13 1 0 20 -8 42 -19 22 -11 51 -24 65 -28 14 -4 79
-31 145 -61 66 -29 242 -105 392 -168 149 -63 310 -133 357 -156 47 -22 89
-40 92 -40 4 0 46 -18 93 -39 47 -22 142 -64 211 -94 69 -30 152 -67 185 -82
91 -41 177 -78 320 -140 72 -31 139 -60 150 -65 18 -9 80 -36 360 -155 55 -24
121 -52 148 -64 l47 -20 0 1164 c0 1158 0 1165 -20 1165 -11 0 -20 5 -20 10 0
6 -9 10 -19 10 -13 0 -21 9 -26 29 -5 26 -13 31 -58 41 -91 20 -137 34 -137
42 0 4 -9 8 -20 8 -11 0 -20 5 -20 10 0 6 -9 10 -20 10 -11 0 -20 5 -20 10 0
6 -15 10 -34 10 -41 0 -86 23 -131 68 -26 26 -41 32 -74 32 -45 0 -121 20
-121 32 0 5 -15 8 -33 8 -28 0 -36 5 -50 35 -23 49 -21 62 9 69 39 10 114 -4
114 -21 0 -7 6 -13 13 -12 26 3 46 -1 59 -14 7 -7 29 -19 48 -26 19 -8 41 -21
48 -30 7 -9 16 -15 20 -14 16 5 91 -20 86 -28 -3 -5 2 -9 10 -9 26 0 30 -1 58
-21 14 -10 30 -19 36 -19 5 0 15 -7 23 -16 8 -10 21 -13 36 -9 16 4 25 1 29
-10 3 -8 11 -12 17 -8 5 3 7 1 4 -4 -8 -13 58 -58 113 -77 22 -7 40 -12 40
-10 0 1 -19 14 -42 28 -51 31 -39 34 20 6 55 -27 62 -25 62 13 0 31 -2 33
-102 76 -57 25 -152 68 -213 97 -60 29 -211 100 -334 158 -199 94 -241 117
-241 136 0 3 29 14 65 26 l65 21 138 -70 c291 -149 515 -237 601 -237 l21 0 0
3755 0 3755 -1682 0 c-925 0 -1678 -3 -1675 -7 9 -8 -24 -32 -44 -33 -19 0
-29 -20 -29 -54 0 -47 -62 -73 -94 -40 -23 23 -20 33 24 75 22 21 40 43 40 49
0 7 -1645 10 -5325 10 -4274 0 -5325 -2 -5325 -13 0 -7 -34 -230 -76 -497
-107 -691 -123 -798 -139 -951 -16 -152 -20 -165 -46 -179 -33 -18 -39 -10
-18 25 12 19 22 59 25 92 2 32 9 81 14 108 5 28 18 120 30 205 11 85 25 182
30 215 5 33 28 188 50 345 23 157 54 364 70 460 17 96 30 178 30 183 0 4 -11
7 -25 7 -14 0 -25 -5 -25 -10 0 -6 -17 -115 -39 -243 -38 -228 -45 -273 -96
-612 -14 -93 -30 -195 -35 -225 -5 -30 -23 -152 -40 -270 -32 -223 -48 -280
-76 -280 -16 0 -16 2 0 19 17 19 34 119 122 731 23 161 82 548 109 715 14 82
25 155 25 162 0 8 -12 13 -30 13 -16 0 -30 -1 -30 -2 0 -2 -16 -97 -35 -213
-20 -115 -51 -313 -70 -440 -19 -126 -44 -291 -55 -365 -12 -74 -34 -221 -49
-327 -18 -125 -34 -201 -45 -218 -10 -15 -20 -24 -23 -21 -3 3 -1 11 4 18 12
14 34 150 88 533 20 138 40 277 45 310 27 174 42 269 75 465 19 118 37 225 40
238 l5 22 -600 0 -600 0 0 -40z m11680 -282 c0 -31 -26 -77 -53 -93 -27 -16
-28 -20 -22 -61 7 -48 -2 -60 -85 -123 -19 -14 -37 -29 -40 -32 -3 -4 -18 -9
-35 -10 -24 -3 -31 0 -33 18 -4 27 53 130 84 150 13 8 24 21 24 27 0 19 70 91
110 115 40 24 50 26 50 9z m-576 -544 c3 -8 1 -24 -4 -35 -6 -11 -8 -24 -5
-30 10 -15 -2 -52 -26 -80 -12 -13 -29 -34 -38 -46 -19 -23 -116 -74 -125 -65
-13 12 -4 46 22 85 15 23 34 55 42 70 15 30 103 117 119 117 5 0 12 -7 15 -16z
m-188 -39 c-4 -19 -20 -50 -35 -68 -16 -17 -35 -48 -43 -67 -8 -19 -27 -50
-42 -67 -30 -36 -61 -45 -53 -15 3 9 8 33 11 53 4 21 19 47 37 65 17 16 36 43
43 59 13 31 74 90 83 81 3 -3 2 -21 -1 -41z m-9799 -1503 c-12 -101 -62 -469
-98 -727 -28 -206 -46 -304 -61 -337 -13 -29 -50 -75 -99 -122 -44 -41 -79
-83 -79 -93 0 -10 -9 -97 -20 -193 -11 -96 -24 -242 -30 -324 -6 -82 -13 -152
-15 -156 -6 -10 -31 -224 -60 -515 -14 -143 -39 -393 -55 -555 -16 -162 -36
-387 -45 -500 -116 -1567 -122 -1645 -124 -1590 -1 51 31 529 54 798 8 97 24
326 35 507 11 182 24 382 30 445 5 63 12 153 15 200 6 93 22 274 31 360 4 30
8 78 9 105 2 46 21 228 45 450 12 100 19 185 24 290 4 69 10 128 43 380 9 72
18 171 19 220 4 114 4 114 15 90 7 -15 8 -12 3 12 -5 31 -3 34 74 83 62 39 83
59 97 90 10 22 21 40 25 40 10 0 19 45 36 195 9 72 20 159 25 195 4 36 11 92
14 125 3 33 12 104 21 159 8 54 17 140 20 190 6 113 35 252 47 230 5 -9 7 -32
4 -52z m-105 -9 c4 -19 -4 -102 -21 -238 -5 -44 -19 -159 -30 -255 -12 -96
-25 -202 -30 -235 -5 -33 -15 -107 -21 -165 -7 -58 -22 -127 -33 -155 -21 -53
-53 -95 -71 -95 -6 0 -1 8 10 18 33 26 42 50 59 158 20 135 71 551 85 704 6
69 16 144 21 167 5 23 9 58 9 77 0 37 16 50 22 19z m-321 -1254 c-11 -31 -31
-196 -51 -408 -5 -53 -13 -132 -19 -176 -5 -44 -12 -102 -15 -130 -3 -27 -17
-151 -30 -275 -14 -124 -30 -279 -36 -345 -12 -141 -35 -371 -55 -575 -8 -80
-24 -257 -35 -395 -12 -137 -25 -302 -31 -365 -22 -265 -59 -770 -84 -1150 -9
-129 -18 -236 -21 -239 -6 -6 -6 -9 16 339 36 555 108 1486 166 2119 24 272
43 500 41 505 -2 6 -10 -50 -17 -124 -16 -179 -27 -262 -29 -225 -2 64 67 814
79 845 8 24 8 23 9 -9 2 -60 9 -29 20 79 27 272 60 510 76 540 21 40 31 32 16
-11z m2049 -875 c30 -7 167 -41 305 -75 137 -34 259 -65 270 -70 18 -8 18 -8
-5 -7 -47 2 -58 -2 -63 -24 -3 -13 -7 -160 -9 -328 -2 -277 -4 -307 -21 -325
-9 -10 -15 -25 -13 -32 6 -15 -35 -18 -50 -4 -5 5 -90 25 -189 45 -174 35
-222 50 -237 71 -4 5 -8 28 -8 50 0 36 -6 70 -39 240 -6 28 -14 79 -20 115
-34 225 -67 370 -83 370 -4 0 -8 4 -8 9 0 8 23 3 170 -35z m-187 8 c11 -12 24
-66 37 -158 11 -76 23 -146 26 -154 6 -16 33 -361 34 -422 0 -33 -3 -38 -22
-38 -13 -1 -34 -7 -48 -15 -14 -8 -29 -14 -35 -14 -5 0 2 7 18 15 15 8 27 19
27 25 0 6 -4 8 -9 5 -19 -12 -29 24 -36 139 -5 87 -12 129 -26 157 -10 20 -19
46 -19 58 0 11 -7 20 -15 20 -8 0 -15 9 -15 20 0 11 7 20 15 20 8 0 15 9 15
20 0 11 5 20 12 20 6 0 2 10 -10 23 -15 16 -18 27 -12 37 5 8 10 36 10 63 0
47 0 47 -27 41 -16 -3 -42 -14 -58 -23 -31 -18 -95 -35 -95 -25 0 8 108 54
126 54 22 0 77 57 68 71 -5 8 -8 8 -13 0 -5 -8 -13 -5 -25 8 -18 20 -18 20
-45 1 -14 -11 -87 -42 -161 -69 -74 -27 -161 -61 -194 -76 -32 -14 -63 -24
-69 -22 -6 2 7 10 29 19 21 9 69 30 106 47 36 17 69 31 72 31 4 0 46 18 94 41
48 22 110 49 137 60 28 10 57 24 65 29 21 13 25 13 43 -8z m-2796 -244 c13
-12 23 -27 23 -34 0 -7 5 -25 12 -39 10 -22 17 -25 60 -25 41 0 48 -3 48 -20
0 -17 7 -20 40 -20 l40 0 0 -40 c0 -34 -3 -40 -21 -40 -15 0 -20 -6 -19 -22 1
-13 2 -28 1 -34 -2 -18 -73 -39 -122 -36 l-47 3 -7 65 c-3 35 -11 64 -17 64
-6 0 -8 -9 -5 -19 9 -37 -7 -45 -57 -30 -25 7 -46 17 -46 21 0 4 -16 8 -35 8
-19 0 -35 5 -35 10 0 6 -7 10 -15 10 -21 0 -37 47 -29 84 8 40 42 76 71 76 16
0 23 6 23 20 0 18 7 20 57 20 44 0 62 -5 80 -22z m6081 -495 c-32 -2 -58 -9
-61 -16 -2 -7 0 -41 4 -77 11 -89 29 -404 33 -570 1 -75 6 -142 10 -148 3 -6
7 -149 7 -318 0 -183 4 -315 10 -326 13 -24 21 -528 8 -528 -5 0 -9 11 -9 23
0 20 -5 24 -29 25 -20 0 -31 -5 -34 -16 -2 -9 -3 -4 -1 12 5 37 12 45 24 26 5
-8 13 -11 17 -6 13 13 19 181 11 331 -4 77 -12 280 -17 450 -5 171 -14 351
-20 400 -6 50 -11 94 -11 98 0 5 -4 5 -10 2 -5 -3 -10 -15 -10 -26 0 -14 -7
-19 -25 -19 -21 0 -25 5 -25 30 0 27 3 30 34 30 29 0 34 4 39 28 2 15 1 65 -4
112 -23 232 -21 220 -40 220 -16 0 -19 -8 -20 -47 -1 -27 -1 -54 0 -60 1 -7
-5 -13 -14 -13 -9 0 -13 -4 -10 -10 4 -7 -3 -7 -20 0 -14 5 -24 6 -21 1 3 -5
-1 -11 -9 -15 -21 -7 -22 -1 -24 90 -2 83 5 118 20 108 5 -3 19 2 30 10 18 12
24 13 35 1 8 -7 14 -21 14 -29 0 -9 8 -16 20 -16 16 0 20 7 20 30 0 17 -4 30
-8 30 -5 0 -6 23 -2 50 4 28 4 53 1 56 -10 10 -7 69 4 76 5 4 39 7 75 6 l65
-2 -57 -3z m-3054 -296 c3 3 11 1 19 -5 7 -6 31 -15 52 -21 22 -5 101 -25 175
-45 74 -20 167 -44 205 -53 66 -17 68 -18 32 -21 -32 -3 -37 -6 -32 -22 8 -26
-11 -60 -34 -60 -10 0 -24 -6 -30 -13 -8 -10 -4 -20 19 -42 32 -31 39 -55 15
-55 -19 0 -19 -14 0 -30 12 -10 12 -16 4 -26 -7 -8 -9 -32 -6 -59 4 -26 2 -57
-3 -70 -7 -18 -4 -27 11 -41 17 -15 19 -30 18 -143 -1 -80 -4 -115 -9 -96 l-8
30 -2 -35 c-1 -19 -2 -42 -1 -51 1 -8 -7 -23 -18 -33 -11 -10 -17 -25 -14 -37
6 -20 -11 -27 -22 -9 -3 6 -19 10 -34 10 -16 0 -109 21 -207 47 -280 72 -289
74 -336 57 -57 -20 -59 -10 -3 12 25 9 42 20 38 23 -5 3 -10 53 -12 111 -4
124 -5 109 9 285 7 77 12 151 11 165 0 14 0 58 0 99 0 41 4 83 10 93 6 11 8
22 5 26 -3 3 -6 0 -6 -7 0 -7 -5 -9 -11 -6 -13 9 19 34 44 35 15 0 16 -3 6
-21 -7 -14 -7 -19 0 -15 7 5 11 -32 11 -121 1 -70 4 -201 8 -291 4 -100 3
-167 -2 -173 -6 -6 -5 -9 5 -9 10 0 11 -2 2 -8 -13 -8 -21 -107 -10 -118 3 -3
8 11 12 32 3 22 11 59 16 84 10 40 38 287 39 333 0 10 -4 16 -10 12 -5 -3 -9
-25 -8 -49 0 -24 -3 -50 -8 -57 -5 -8 -12 -43 -15 -79 -3 -36 -6 52 -7 195 0
143 -4 268 -7 277 -6 15 -3 15 38 3 25 -7 48 -11 51 -8z m5530 -545 c-9 -26
-21 -51 -25 -56 -4 -5 -5 -15 -2 -22 3 -8 1 -20 -5 -27 -5 -6 -20 -46 -32 -87
-12 -41 -37 -111 -55 -156 -18 -44 -48 -123 -65 -175 -18 -51 -38 -105 -45
-119 -7 -14 -34 -88 -60 -165 -27 -77 -63 -176 -82 -220 -18 -44 -33 -83 -33
-88 0 -5 -15 -48 -34 -96 -19 -47 -40 -110 -47 -138 -7 -29 -16 -53 -20 -53
-3 0 -12 -21 -19 -47 -7 -27 -21 -61 -30 -78 -10 -16 -23 -54 -29 -84 -6 -30
-17 -68 -25 -85 -25 -57 -65 -170 -76 -216 -17 -67 -42 -142 -57 -170 -7 -14
-13 -33 -13 -44 0 -16 -50 -190 -70 -241 -13 -36 -31 -94 -35 -117 -2 -13 -13
-57 -24 -98 -12 -41 -32 -122 -47 -180 -44 -179 -73 -259 -97 -274 -12 -8 -52
-17 -89 -21 l-68 -7 0 56 c0 31 -4 56 -10 56 -6 0 -10 -26 -10 -59 l0 -59 -50
-7 c-27 -4 -53 -5 -57 -2 -5 3 -28 1 -53 -3 -35 -6 -47 -5 -53 6 -11 18 -27
18 -27 -1 0 -19 -29 -19 -36 0 -9 22 -24 18 -24 -5 0 -26 -20 -26 -27 0 -7 28
-23 25 -23 -5 0 -32 -6 -31 -40 5 -23 25 -32 29 -52 21 -14 -5 -25 -19 -28
-37 -7 -39 -24 -37 -28 3 -3 32 -22 47 -22 18 0 -23 -36 -18 -48 7 -9 20 -11
17 -11 -24 -1 -74 -33 -81 -37 -8 -2 59 -19 53 -22 -7 -2 -29 -5 -53 -8 -53
-15 0 -44 45 -44 69 0 17 -4 33 -10 36 -6 4 -10 -10 -10 -34 0 -30 -4 -41 -15
-41 -18 0 -20 -17 -2 -23 37 -13 -15 -22 -348 -61 -71 -9 -173 -24 -225 -33
-82 -16 -144 -18 -462 -14 l-368 3 0 -41 0 -41 65 0 c36 0 65 -4 65 -8 0 -19
-322 -63 -333 -46 -3 5 1 18 9 29 12 16 26 20 64 19 l50 0 -3 35 -2 36 -56 0
-55 0 -65 -80 c-60 -74 -67 -80 -106 -83 -36 -3 -42 0 -49 20 l-8 23 -7 -25
c-6 -21 -7 -17 -9 20 -2 25 -5 35 -7 23 -2 -12 -13 -25 -24 -28 -11 -4 -25
-17 -30 -29 -8 -17 -27 -26 -77 -37 -37 -9 -71 -14 -76 -11 -5 3 -6 136 -4
301 6 337 2 318 95 451 37 53 51 99 34 109 -9 6 -9 15 -1 35 16 44 10 64 -8
26 -9 -19 -23 -41 -30 -48 -18 -19 -68 -94 -75 -112 -4 -12 -6 -11 -6 3 -1 10
36 76 82 147 l82 130 3 -130 c2 -101 6 -130 16 -130 30 0 38 28 32 102 -4 40
-9 85 -12 101 -5 24 -3 27 20 27 14 0 26 5 26 10 0 6 -6 10 -13 10 -7 0 -22 7
-33 16 -14 12 -15 14 -3 11 13 -4 18 3 22 34 5 38 45 107 194 336 29 44 53 85
53 91 0 12 55 23 75 16 17 -7 17 -6 20 49 1 29 -2 37 -12 32 -8 -3 -30 -5 -49
-5 -19 0 -34 -5 -34 -12 0 -6 -15 -34 -33 -62 -19 -28 -69 -105 -111 -170 -43
-66 -82 -124 -87 -130 -6 -6 -17 -20 -25 -31 -15 -19 -15 -19 -4 3 12 25 11
122 -2 122 -4 0 -10 -12 -14 -27 -3 -16 -10 -43 -14 -61 -5 -19 -6 -39 -4 -47
11 -27 -15 -84 -95 -205 l-81 -125 0 89 c0 100 -8 82 130 290 36 54 81 126
101 160 66 113 247 401 267 426 l20 25 -5 -27 c-6 -31 20 -49 40 -29 17 17 16
50 -1 43 -10 -3 -13 -1 -8 6 5 8 59 12 179 13 95 0 167 3 160 6 -8 3 -9 10 -3
21 4 9 13 33 18 52 9 31 10 27 6 -27 -3 -56 -2 -63 15 -63 24 0 31 18 32 88 1
54 15 134 18 101 3 -36 41 -92 41 -59 0 6 14 10 30 10 22 0 30 5 30 18 0 12 5
9 19 -12 l19 -29 6 24 c3 13 3 -1 1 -32 -3 -31 -2 -71 1 -88 6 -30 7 -30 35
-16 15 8 34 15 42 15 8 0 17 7 21 15 3 8 10 15 16 15 6 0 8 -6 4 -12 -4 -7 3
-3 15 10 12 12 28 22 36 22 8 0 15 5 15 10 0 6 6 10 13 8 6 -1 31 8 55 22 l42
24 0 81 c0 68 3 85 19 99 15 14 19 28 16 66 -4 59 1 65 48 74 20 4 37 11 37
17 0 6 4 8 8 5 5 -3 5 -31 2 -63 -4 -32 -5 -64 -2 -70 2 -7 -1 -13 -6 -13 -6
0 -12 7 -14 16 -2 10 -7 4 -15 -16 -11 -29 -10 -33 7 -37 24 -6 30 -31 30
-133 0 -107 -6 -130 -34 -130 -29 0 -85 -37 -66 -44 15 -4 736 -27 1450 -46
206 -6 389 -13 406 -15 34 -6 36 -3 74 100 12 33 25 69 30 80 4 11 13 38 20
60 13 41 35 101 97 260 19 50 39 101 43 115 5 14 32 88 61 165 29 77 60 163
69 190 10 28 35 96 55 150 65 170 97 259 107 295 6 19 13 40 18 45 4 6 10 24
14 40 6 26 30 85 57 137 5 10 9 27 9 38 0 11 10 40 23 66 27 57 36 33 11 -34z
m-7174 -81 c0 -5 -9 -12 -19 -16 -26 -8 -99 -158 -107 -220 l-7 -50 25 23 c24
22 55 31 43 13 -3 -6 3 -14 12 -20 10 -6 12 -11 6 -11 -7 0 -13 -7 -13 -15 0
-19 35 -19 86 -1 22 7 60 16 86 20 40 6 48 11 57 38 6 17 11 44 11 60 0 17 4
27 10 23 13 -8 13 -75 0 -95 -6 -9 -5 -17 3 -22 8 -5 6 -8 -5 -8 -12 0 -18 -8
-18 -25 0 -30 -25 -33 -71 -9 -29 14 -34 14 -76 -6 -25 -11 -55 -20 -66 -18
-20 3 -22 -2 -21 -39 0 -41 0 -42 -18 -26 -10 9 -18 13 -18 8 0 -4 -7 -2 -16
6 -13 11 -14 9 -9 -14 5 -17 3 -27 -3 -27 -6 0 -13 -21 -15 -47 -3 -27 -3 20
-1 102 3 158 15 218 60 307 28 55 84 101 84 69z m4873 -133 c-4 -22 -4 -22 11
-4 8 10 22 16 31 13 18 -7 20 -33 3 -43 -8 -5 -9 -2 -5 9 3 10 2 17 -2 17 -19
0 -19 -30 -1 -40 11 -6 20 -15 20 -21 0 -6 -3 -8 -7 -6 -5 3 -14 -1 -21 -9 -7
-8 -8 -14 -2 -14 5 0 9 -3 9 -7 -1 -5 0 -10 1 -13 1 -3 3 -20 4 -37 1 -26 -2
-33 -16 -33 -10 0 -18 -5 -18 -11 0 -6 8 -9 18 -7 15 4 18 -4 19 -69 l2 -74
-32 3 c-24 2 -33 8 -35 26 -2 12 1 22 6 22 5 0 16 -10 25 -22 8 -13 18 -19 23
-14 5 5 3 11 -4 13 -7 3 -17 14 -23 25 -9 18 -8 19 10 13 13 -4 21 -2 21 5 0
7 -9 14 -20 17 -11 3 -20 14 -20 25 0 10 -7 32 -15 48 -9 17 -11 30 -5 30 5 0
10 9 10 20 0 11 -4 20 -10 20 -5 0 -10 5 -10 11 0 6 9 8 23 4 12 -3 18 -3 12
2 -21 17 -16 35 7 28 l23 -6 -22 19 c-26 23 -36 82 -14 82 5 0 7 -10 4 -22z
m-3454 -291 l18 -27 13 25 c8 15 20 23 29 21 9 -3 28 -8 43 -12 16 -3 25 -11
21 -17 -4 -6 3 -8 19 -4 29 8 101 -10 93 -23 -3 -6 0 -7 7 -5 14 6 48 -51 48
-78 0 -7 16 -19 35 -26 35 -12 47 -31 20 -31 -11 0 -12 -6 -6 -22 9 -24 41
-38 41 -18 0 8 6 8 20 0 17 -9 20 -17 14 -46 -5 -30 -4 -34 15 -34 14 0 22 -8
26 -27 14 -64 33 -118 43 -118 27 0 19 -16 -25 -54 -26 -22 -54 -41 -60 -41
-7 0 -13 -7 -13 -15 0 -18 8 -18 40 0 14 8 27 14 30 15 10 0 13 -479 4 -512
-3 -10 -11 -18 -19 -18 -20 0 -23 -31 -6 -64 13 -27 12 -30 -7 -45 -18 -13
-21 -22 -15 -56 3 -22 12 -45 20 -50 16 -12 13 -46 -5 -68 -7 -8 -10 -22 -6
-31 3 -9 0 -24 -7 -33 -10 -12 -11 -15 -1 -9 9 6 11 1 8 -19 -3 -15 0 -35 7
-46 16 -26 -3 -55 -34 -51 l-24 2 24 -13 c13 -8 19 -17 14 -20 -5 -3 -45 21
-88 54 -43 32 -80 59 -81 59 -1 0 -9 -3 -18 -6 -35 -13 -12 -63 72 -154 34
-38 46 -58 39 -63 -8 -6 -7 -7 3 -4 8 3 31 -10 50 -29 l35 -33 -5 -83 c-3 -46
-3 -98 1 -117 5 -24 3 -41 -7 -55 -16 -24 -19 -40 -4 -31 15 9 12 -31 -5 -72
-8 -19 -15 -43 -15 -53 0 -9 -9 -25 -20 -35 -22 -20 -26 -65 -10 -95 8 -14 4
-25 -15 -48 -14 -17 -25 -34 -25 -40 0 -11 33 -22 68 -22 26 0 29 -12 7 -30
-20 -16 -19 -29 2 -53 17 -18 17 -20 -5 -38 -19 -15 -22 -25 -17 -48 3 -16 2
-32 -3 -35 -6 -3 -13 -48 -17 -98 -7 -98 -20 -158 -36 -158 -5 0 -8 -15 -8
-32 l1 -33 9 30 c7 27 3 -152 -6 -288 -3 -46 -26 -97 -44 -97 -4 0 -20 -11
-34 -24 -16 -15 -44 -27 -69 -31 -238 -32 -263 -38 -259 -60 2 -11 5 -42 6
-70 2 -27 1 -39 -1 -25 -13 73 -25 97 -57 115 -27 14 -38 15 -55 6 -11 -6 -34
-11 -50 -11 -16 0 -41 -10 -56 -21 -15 -12 -29 -19 -32 -16 -3 2 0 236 5 518
6 283 13 725 16 984 9 845 11 928 25 963 15 40 11 46 -24 32 -24 -9 -27 -8
-24 7 2 12 13 18 28 18 22 0 25 4 23 35 -8 118 -24 724 -19 736 4 11 17 14 42
12 l37 -3 4 -155 c2 -85 7 -249 13 -365 5 -115 8 -255 5 -310 -4 -105 -17
-668 -34 -1470 -6 -264 -13 -527 -15 -585 -6 -108 6 -101 19 13 3 31 11 57 16
57 5 0 9 11 9 25 0 14 4 25 9 25 5 0 13 12 19 28 14 35 45 253 45 312 -1 34 1
39 6 20 7 -24 7 -24 14 9 4 18 12 272 17 565 6 292 15 601 20 686 6 93 7 346
4 630 -4 261 -4 519 0 572 7 90 9 96 27 89 11 -3 28 -19 38 -34z m3467 -112
c-3 -9 0 -15 10 -15 10 0 14 -6 10 -15 -3 -8 -1 -15 3 -15 15 0 22 33 9 42
-10 6 -9 8 3 8 23 0 31 -27 16 -50 -7 -13 -18 -18 -29 -14 -23 7 -23 -5 -1
-21 11 -9 16 -28 17 -71 1 -39 6 -63 16 -71 10 -8 11 -12 3 -13 -8 0 -11 -17
-9 -54 3 -52 2 -53 -25 -54 -27 -1 -28 2 -26 36 1 20 6 43 10 50 5 6 4 12 0
12 -5 0 -10 14 -11 32 -2 17 -6 36 -11 42 -7 10 -6 53 3 146 4 40 4 40 12 40
3 0 4 -7 0 -15z m-3632 -480 c4 -69 36 -241 50 -264 4 -6 4 -16 0 -23 -4 -7
-9 -88 -11 -180 -2 -93 -9 -201 -17 -241 -8 -40 -18 -96 -21 -124 -18 -137
-23 -21 -22 470 1 322 4 512 10 482 4 -27 9 -81 11 -120z m-174 -345 c0 -14 7
-20 21 -20 19 0 20 -3 13 -42 -5 -24 -8 -116 -7 -205 1 -90 -1 -163 -5 -163
-13 0 -32 64 -32 108 0 24 -5 42 -11 42 -7 0 -9 19 -4 59 4 33 3 70 -1 83 -8
21 -9 20 -15 -12 l-6 -35 -2 36 c-1 36 18 57 40 43 5 -3 8 10 8 28 -1 23 -3
26 -6 11 -7 -36 -23 -27 -23 12 0 19 -4 35 -10 35 -5 0 -10 9 -10 20 0 15 7
20 25 20 18 0 25 -5 25 -20z m-3452 -1162 c26 -26 12 -119 -82 -548 -14 -63
-30 -136 -37 -162 -6 -26 -12 -58 -14 -70 -6 -36 -38 -170 -110 -463 -67 -276
-83 -315 -120 -301 -14 5 -16 13 -11 39 4 17 10 48 13 67 l6 35 -21 -19 c-16
-13 -19 -23 -12 -35 5 -10 5 -23 -1 -32 -5 -7 -14 -31 -19 -51 -6 -22 -17 -38
-25 -38 -8 0 -15 -4 -15 -10 0 -5 -3 -10 -7 -9 -19 3 -53 -15 -53 -27 0 -8
-12 -19 -27 -25 -36 -13 -264 -61 -269 -56 -3 2 53 16 124 32 l129 27 16 57
c27 94 57 224 53 228 -2 3 -50 -7 -107 -21 -56 -14 -111 -26 -123 -26 -19 -1
-19 -2 -3 -11 22 -13 23 -65 0 -73 -9 -4 -20 -1 -24 6 -6 10 -11 8 -22 -6 -11
-15 -16 -16 -22 -6 -5 9 -4 15 3 18 7 2 9 8 6 13 -3 6 2 20 13 31 18 21 18 21
-10 14 -16 -4 -70 -15 -120 -26 -51 -11 -153 -33 -227 -50 -74 -17 -166 -37
-205 -46 -38 -8 -168 -38 -287 -66 -166 -40 -219 -56 -223 -69 -6 -18 -47 -30
-64 -20 -11 7 -7 47 14 131 8 30 16 132 19 225 3 94 8 199 12 235 l6 65 -21
-22 c-12 -13 -26 -23 -31 -23 -6 0 -10 -6 -10 -14 0 -18 -35 -30 -77 -27 -31
2 -33 0 -34 -31 -2 -30 -2 -30 -6 -6 -3 19 -12 30 -29 34 -21 6 -24 12 -24 56
0 29 9 68 21 96 12 25 24 64 27 86 3 26 11 40 23 43 12 3 19 14 19 29 0 16 15
36 50 63 l51 40 89 -4 c85 -4 89 -4 96 18 5 12 7 27 6 33 -1 7 5 14 13 18 16
6 85 139 85 163 0 7 18 22 40 33 42 21 90 27 90 10 0 -5 5 -10 11 -10 5 0 7 5
4 10 -4 6 5 10 19 10 16 0 26 -6 26 -15 0 -8 -4 -15 -10 -15 -16 0 -12 -30 5
-36 8 -4 15 -12 15 -20 0 -24 42 -16 257 50 114 35 291 88 393 116 331 92 299
77 430 206 78 77 123 114 138 114 26 0 27 -5 7 -64 -8 -24 -26 -95 -39 -157
-13 -63 -31 -143 -40 -179 -66 -264 -164 -790 -151 -810 3 -5 2 -10 -4 -10
-10 0 -27 -87 -19 -95 2 -2 16 2 31 10 24 12 50 4 28 -9 -11 -7 -2 -46 10 -46
5 0 11 10 14 23 2 12 21 92 41 177 45 190 95 426 97 460 1 14 5 27 8 30 7 6
55 196 120 475 42 182 47 211 34 221 -8 6 -15 14 -15 18 0 11 46 6 58 -6z
m791 -240 c11 -29 -5 -150 -26 -197 -18 -42 -21 -56 -27 -136 -3 -33 -12 -109
-20 -170 -8 -60 -20 -153 -26 -205 -6 -52 -18 -131 -26 -176 -8 -44 -14 -96
-14 -115 0 -19 -4 -40 -9 -48 -9 -14 -7 95 4 221 4 42 2 69 -4 73 -14 8 -14
52 -1 60 6 4 8 11 5 16 -4 5 -2 9 3 9 15 0 25 95 13 118 -11 21 -2 131 19 217
8 35 18 100 20 130 0 6 5 3 11 -5 8 -12 9 -10 4 8 -4 13 -4 55 0 94 6 57 11
71 26 75 12 3 19 14 19 29 0 30 18 31 29 2z"/>
<path d="M8682 2792 l3 -37 190 -2 c105 -1 375 -9 600 -18 226 -8 718 -24
1095 -35 645 -19 686 -19 698 -3 6 9 12 27 12 40 0 22 -4 23 -67 23 -38 0
-185 4 -328 10 -362 13 -1625 47 -1983 54 l-223 4 3 -36z"/>
<path d="M6284 3698 c-4 -40 -10 -65 -12 -55 -6 29 -22 19 -24 -15 -5 -93 18
-262 34 -252 6 4 7 -11 1 -42 -4 -27 -8 -95 -8 -151 0 -80 -3 -103 -14 -103
-9 0 -11 -8 -7 -27 9 -38 9 -21 1 -289 -5 -164 -5 -243 3 -247 5 -4 13 0 16 9
18 46 40 1224 23 1240 -3 3 -9 -27 -13 -68z"/>
<path d="M1976 1422 c-8 -14 -73 -194 -136 -378 -21 -62 -41 -131 -45 -154
l-7 -42 47 8 47 7 -6 -54 c-6 -50 -6 -53 9 -35 8 11 15 33 15 48 0 16 9 36 20
45 21 18 27 59 10 65 -6 2 -5 19 1 47 5 24 8 46 5 48 -7 7 -36 -53 -36 -75 0
-26 -20 -42 -52 -42 -15 0 -28 1 -28 3 1 10 68 211 114 341 31 87 55 163 53
169 -2 7 -6 7 -11 -1z"/>
<path d="M1715 1334 c-19 -26 -35 -51 -35 -55 0 -18 17 -8 38 21 27 36 67 41
77 10 10 -33 -32 -182 -58 -202 -12 -10 -28 -23 -34 -28 -21 -17 -16 -57 7
-63 16 -4 20 -14 20 -49 0 -70 -18 -159 -36 -179 -22 -25 -51 -24 -64 1 -6 11
-15 18 -21 15 -15 -10 -10 -51 10 -76 19 -23 21 -23 48 -9 15 8 36 32 46 53
23 47 46 172 47 255 0 37 6 72 14 85 33 50 57 206 40 251 -4 9 -18 16 -35 16
-22 0 -36 -10 -64 -46z"/>
<path d="M1616 1338 c-18 -58 -58 -254 -71 -348 -31 -218 -34 -234 -55 -254
-16 -17 -24 -18 -38 -10 -34 23 -11 301 43 500 13 49 22 91 20 92 -8 9 -57
-172 -75 -278 -39 -228 -43 -331 -12 -362 6 -6 22 -8 36 -4 42 10 72 90 91
246 15 124 52 319 74 398 6 20 6 32 0 32 -5 0 -11 -6 -13 -12z"/>
<path d="M1371 1264 c-17 -14 -31 -32 -31 -40 0 -10 6 -8 21 7 25 25 53 21 57
-7 2 -12 -15 -56 -37 -98 -22 -43 -63 -137 -92 -209 -41 -105 -52 -146 -57
-210 l-5 -79 44 7 c73 12 89 22 89 51 0 20 -4 25 -16 20 -9 -3 -34 -9 -56 -13
l-41 -6 6 45 c8 55 79 249 141 384 69 151 59 217 -23 148z"/>
<path d="M1217 1243 c-56 -17 -65 -32 -100 -163 -35 -133 -38 -150 -29 -150 4
0 16 14 25 30 10 17 26 30 36 30 34 0 40 -21 31 -95 -5 -39 -9 -94 -10 -123 0
-73 -23 -124 -52 -120 -13 2 -24 11 -26 23 -8 40 -22 39 -22 -2 0 -25 7 -50
19 -64 l19 -24 26 24 c31 29 56 106 56 170 0 24 5 85 11 133 15 115 6 142 -46
132 -40 -7 -41 -6 -19 67 21 70 27 77 80 85 36 5 48 12 60 35 17 34 13 34 -59
12z"/>
<path d="M1052 1098 c-11 -34 -25 -88 -31 -119 -12 -58 -24 -68 -73 -69 -23 0
-24 49 -2 132 8 33 13 62 11 64 -9 9 -36 -114 -46 -206 -15 -138 -21 -354 -9
-342 5 5 12 71 15 146 5 113 9 136 22 140 9 2 27 7 39 11 l24 7 -4 -146 c-1
-80 1 -141 5 -137 5 5 13 91 18 192 9 189 17 247 43 334 8 27 13 51 11 53 -2
2 -12 -25 -23 -60z"/>
<path d="M840 925 c0 -24 -40 -57 -61 -52 -25 7 -28 -7 -33 -173 -2 -74 -7
-148 -11 -164 -8 -29 -8 -29 29 -23 51 8 64 21 82 84 12 42 14 77 9 146 -3 51
-7 116 -7 145 -1 28 -3 52 -5 52 -2 0 -3 -7 -3 -15z m-12 -127 c8 -8 12 -46
12 -104 0 -101 -10 -124 -56 -124 l-24 0 0 114 c0 82 4 116 13 119 22 9 43 7
55 -5z"/>
<path d="M1438 10104 c-4 -3 -14 -7 -25 -8 -13 -2 -19 -13 -21 -37 -2 -19 -8
-40 -14 -47 -14 -16 -47 -6 -69 21 -16 20 -16 20 -28 -16 -7 -20 -10 -50 -6
-66 3 -17 2 -32 -4 -36 -6 -3 -8 -17 -5 -29 7 -28 -19 -58 -44 -49 -42 15 -49
36 -23 67 18 22 9 29 -39 32 -34 2 -43 -3 -61 -28 -14 -19 -22 -49 -25 -86 -2
-31 -7 -83 -10 -114 -4 -38 -3 -58 4 -58 6 0 14 5 17 10 10 17 25 11 25 -10 0
-24 -56 -90 -77 -90 -10 0 -13 -6 -9 -16 4 -10 -13 -38 -44 -77 -58 -72 -70
-112 -45 -155 34 -56 94 -76 145 -47 34 20 37 19 44 -11 8 -32 24 -21 43 29
11 27 12 28 10 7 -3 -37 23 -35 66 5 21 19 42 35 48 35 5 0 9 8 9 18 0 10 13
60 29 112 51 168 110 374 122 425 6 28 18 69 25 93 8 23 14 44 14 47 0 2 -13
0 -30 -5 -27 -8 -30 -6 -30 14 0 12 7 31 15 42 8 10 15 22 15 27 0 8 -14 9
-22 1z"/>
<path d="M1573 9973 c2 -46 1 -48 -25 -46 -18 1 -29 -4 -32 -15 -3 -9 -21 -71
-41 -137 -20 -66 -38 -138 -40 -160 -1 -22 -14 -67 -29 -100 -14 -33 -26 -76
-26 -95 l0 -34 38 37 c21 21 44 53 52 71 10 27 29 43 94 78 89 49 82 39 131
198 12 41 20 81 17 88 -3 8 -24 22 -48 33 -31 13 -44 24 -44 38 0 25 -31 91
-42 91 -4 0 -7 -21 -5 -47z"/>
</g>
</svg>
