<svg version="1.0" xmlns="http://www.w3.org/2000/svg" viewBox="0 0 512 512"><path d="M146.4 10.1c-5.8 1.7-12.6 7.1-15.6 12.6-12 21.5 8.1 46.2 31.6 38.8l5.7-1.8 20.3 20.1 20.2 20.2h84.1l1.1 2.5c.7 1.4 1.2 4.7 1.2 7.3 0 8.8-5.8 14.5-15.9 15.8-7.5.9-12.5 5.6-13.5 12.6l-.7 4.8h-54.7l-1.3-3.7c-1.7-5.3-9.4-12.6-15.4-14.6-12.7-4.4-26.1.4-32.5 11.6-6.3 11.1-4.7 23.3 4.3 32.4 13.1 13 33.9 10 42.3-6.2l2.9-5.5h54.3l.7 4.2c.8 4.8 3.6 9.2 6.8 11 1.2.6 4.6 1.5 7.6 1.9 6.1.9 9.5 3 12.9 8 2 2.8 2.3 4.4 2 9.1-.7 9.5 2.7 8.8-45.1 8.8h-42.1l-20.1 20-20.1 20-4.8-1.6c-14.3-4.9-30.1 3.2-34.3 17.5-3 10.4-.2 20.3 7.7 27.5 5.8 5.2 10.3 6.9 18 6.9 7.7 0 12.2-1.7 18-6.9 8.1-7.3 10.8-17.3 7.5-27.9l-1.8-5.7 17.9-17.9 17.9-17.9h73.4l.7 2.2c1 3.3 18.3 20.8 22.1 22.4 5.3 2.3 8.5 1.7 15.3-2.9 5.5-3.7 7-4.2 11.7-4.1 8.5 0 14.4 5.9 15.7 15.5.8 6 3.4 10.3 7.8 12.5 2.4 1.2 5.9 1.5 17.8 1.2 14.2-.3 15-.4 17.5-2.8 3.7-3.5 4.8-5.7 5.6-11.8.9-6.8 4.5-11.5 10.3-13.7 5.4-2.1 10-1.5 14.7 2 7.5 5.5 12.7 6.7 17.7 4.1 1.5-.8 7-5.9 12.4-11.3 11.2-11.4 12.3-14.2 8.9-21.4-1.1-2.4-3-5.6-4.2-7-3.2-4-3.5-10.5-.7-15.9 2.7-5.3 6.6-7.7 14.4-9 6-1 9.5-3.3 12-8.2 2.1-4.1 1.9-27.8-.3-32.5-2.1-4.5-6-6.9-12.6-7.7-6.9-1-11.1-3.7-13.8-9.2-2.9-6-2.2-11.1 2.6-17.9 7-10.2 5.7-15.1-7.2-27.6-9.9-9.7-11.8-10.9-16.9-10.9-3.1 0-5.5 1-10.2 4.1-5.8 3.9-6.5 4.1-12 3.7-3.6-.2-6.8-1.1-8.5-2.3-3.2-2.4-6.7-9.1-6.7-12.9 0-4.2-3-9.6-6.4-11.7-2.7-1.6-5.2-1.9-18.5-1.9h-15.3l-3.8 3.8c-3.2 3.1-3.9 4.7-4.5 9.4-1.1 9-5.3 14.1-12.7 15.7-4.7 1-9.3-.2-14.4-3.9-4.8-3.4-9.7-4.6-14.1-3.5-3.4.8-22.9 19.8-23.7 23.1L287 86h-73.5l-17.9-17.9-17.9-17.9 1.8-5.7C186 23.8 167 4.1 146.4 10.1zm15.5 15.7c5.8 4.3 6.4 14 1.2 19.3-7.6 7.5-20.4 3-21.7-7.7-1.4-11 11.5-18.3 20.5-11.6zm225.1 29c0 9 8.8 21.1 18.2 25.2 9.9 4.2 23.6 2.3 30.6-4.2l2.3-2.2 7.3 7.3 7.4 7.3-3.3 4.3c-8.5 11.2-6.6 28.3 4.2 38.7 4.1 3.9 11.4 7.7 15 7.8 5 0 5.3.6 5.3 10.9v9.7l-5.8 1.2c-16.8 3.5-27.7 21.1-23.2 37.4.6 2 2.6 5.9 4.4 8.7l3.3 4.9-7.1 7-7.1 7-3.9-2.9c-17.2-12.8-42.4-2.9-46.8 18.3l-1.2 5.8H366v-2.8c0-8.8-7.3-19.2-16.8-23.9-10.2-5-23.9-3.4-31.7 3.8-2.1 1.8-2.2 1.8-9.5-5.6l-7.4-7.4 2.1-2.3c4-4.3 6.3-10.8 6.3-18.3 0-15.4-10.5-27.6-25.8-30.1l-4.2-.7v-19.5l5.3-1.2c11.1-2.3 17.7-7.5 22.3-17.4 4.4-9.4 2.7-22.5-3.9-31.1-1.5-1.9-1.2-2.4 5.5-9.2l7.1-7.2 3.2 2.4c5.2 4.1 10.5 5.8 17.7 5.8 14.8 0 28-11.1 29.6-25l.5-4.3h10.3c9.4 0 10.4.2 10.4 1.8zm-196.9 83.7c1.6.9 3.9 3 4.9 4.8 7.8 12.8-9.3 26.2-19.9 15.6-10.3-10.3 2-27.1 15-20.4zm-30 114c9.2 4.8 8.9 18.3-.5 22.6-5.2 2.4-6.1 2.3-11.2-.1-9.2-4.5-9.8-16.7-1.1-22 3.9-2.4 8.7-2.5 12.8-.5z"/><path d="M365.5 93c-11.7 2.4-24.3 9.6-32 18.3-5.7 6.4-12 19.1-13.6 27.5-1.6 8.4-.6 22.1 2.1 29.9 7.5 21.5 27.8 37 50.9 38.9 27.3 2.2 53.7-17.4 60.2-44.6 2-8.3 1.6-21.4-.9-29.6-7.5-24.4-30.7-41.6-55.7-41.3-3.8.1-8.8.5-11 .9zm22.6 14.6c8.2 2.4 12.7 5.1 19 11.1 25.8 24.6 12.2 67.8-23.3 74.4-11.2 2.1-24.7-1.4-34.5-8.8-9.6-7.3-16.3-21.4-16.3-34.3 0-28.8 28-50.4 55.1-42.4zM239 330.4c-3 .7-28.7 10.6-57 21.9L130.5 373H81v-10c0-15.1 2.8-14-35.8-14H13.3l-2.1 2.3-2.2 2.3v145.1l2.3 2.1c2.3 2.2 2.9 2.2 34 2.2 38.5 0 35.7 1.1 35.7-14v-10h5.9c8.5 0 35.8 2.5 77.6 7 47.6 5.2 66 6.7 96.2 8.2 52.7 2.4 95.6-3.3 121.5-16.3 3.5-1.7 18.2-10.7 32.8-19.8 14.6-9.2 37.9-23.9 51.8-32.7 26.8-16.8 30.1-19.4 33.5-25.8 3-5.7 3-16.5 0-22.1-5.6-10.6-19-16.1-29.8-12.3-2.2.8-27.1 14.8-55.3 31.1C387 412.6 363.5 426 363 426c-.9 0-84.1-28.8-84.6-29.3-.1-.1.3-1 1-1.9 1-1.4 7-2.6 28.7-5.8 32.1-4.8 33.2-5 39.5-9.3 13.2-8.8 15.2-27.4 4.3-38.7-7.8-8-7.5-8-50-8-29.4 0-38.5-.3-41.5-1.4-6.1-2.1-15.3-2.6-21.4-1.2zm19.7 15.7c16.3 7.8 20.1 30 7.2 42.8-16.5 16.5-45 4.9-45.2-18.4-.1-12.8 8.1-23.3 20.8-26.6 4.3-1.1 12.4-.1 17.2 2.2zm80.3 2.4c5.9 3 7.9 11.9 3.8 17-3.2 4.1-6.8 5.2-29 8.5-11.2 1.6-21.7 3.2-23.4 3.5l-3.1.5.5-5.4c.5-6.4-1.1-14.3-4.5-20.9L281 347h27.5c22.7 0 28.1.3 30.5 1.5zm-131.9 15.4c-2 12.6 2.2 25.5 11.4 34.7 11.2 11.2 27.2 15 41.7 9.9l4.3-1.5 45.3 15.7c34.1 11.8 45.2 16.1 45.1 17.2 0 .9-2.1 9.2-4.7 18.6l-4.7 17-10 1.7c-18.4 3.1-47.6 4.3-75.2 2.9-28.9-1.3-42.6-2.5-96.5-8.3l-39.7-4.2 5.7-6.1c18-19.3 18.9-49.8 2-69-2.1-2.4-3.8-4.6-3.8-4.9 0-.3 1.2-.6 2.8-.6 1.5-.1 19.4-6.8 39.7-15 20.4-8.1 37.1-14.7 37.3-14.5.2.1-.2 3-.7 6.4zM67 371.3v8.2l-3.6 2c-5.2 2.8-15.7 14.4-18.8 20.8-7.4 15-7.5 31.4-.4 46.5 3.3 7 12.4 17.4 18.7 21.2l4 2.5.1 8.2v8.3H23V363h44v8.3zm417.9 9.3c3.8 3.2 5 8.4 2.8 12.9-1.3 2.6-10.1 8.6-51.1 34.4-27.3 17.2-50 31-50.5 30.7-1-.6-12.1-20.3-12.1-21.5 0-.7 95.3-56.2 99.9-58.3 3.5-1.5 8-.8 11 1.8zM98.1 388c12.4 2.3 22.9 10.5 28.3 22 2.8 5.8 3.1 7.5 3.1 16 0 8.7-.3 10.1-3.2 16-5.9 12-16.3 19.9-28.8 21.8-17.2 2.7-33.5-6-40.8-21.7-10.2-21.7 1.9-47.2 25.3-53.5 6.7-1.8 9.2-1.9 16.1-.6zm273.8 74.8 2 4-5.5 2.1c-3.1 1.1-6 2.1-6.4 2.1-.5 0-.3-2.1.5-4.8.7-2.6 1.9-6.7 2.5-9.1l1.2-4.4 1.8 3.1c1.1 1.7 2.8 4.9 3.9 7z"/><path d="M240.9 363.9c-3.7 3.7-3.8 7.9-.3 12 2.1 2.5 3.3 3.1 6.5 3.1 8.6 0 12.3-10 5.8-15.4-4.1-3.5-8.3-3.4-12 .3zM85.7 419c-6.6 5.2-2.7 16 5.8 16 3.9 0 6.5-1.8 8.1-5.6 3.6-8.7-6.5-16.2-13.9-10.4z"/></svg>