<svg version="1.2" xmlns="http://www.w3.org/2000/svg" viewBox="0 0 512 512" width="100" height="100"><style></style><path fill-rule="evenodd" d="m179.5 44.5l-1.8 5.7 35.8 35.8h73.5l0.6-2.4c0.8-3.3 20.3-22.3 23.7-23.1 4.4-1.1 9.3 0.1 14.1 3.5 5.1 3.7 9.7 4.9 14.4 3.9 7.4-1.6 11.6-6.7 12.7-15.7 0.6-4.7 1.3-6.3 4.5-9.4l3.8-3.8h15.3c13.3 0 15.8 0.3 18.5 1.9 3.4 2.1 6.4 7.5 6.4 11.7 0 3.8 3.5 10.5 6.7 12.9 1.7 1.2 4.9 2.1 8.5 2.3 5.5 0.4 6.2 0.2 12-3.7 4.7-3.1 7.1-4.1 10.2-4.1 5.1 0 7 1.2 16.9 10.9 12.9 12.5 14.2 17.4 7.2 27.6-4.8 6.8-5.5 11.9-2.6 17.9 2.7 5.5 6.9 8.2 13.8 9.2 6.6 0.8 10.5 3.2 12.6 7.7 2.2 4.7 2.4 28.4 0.3 32.5-2.5 4.9-6 7.2-12 8.2-7.8 1.3-11.7 3.7-14.4 9-2.8 5.4-2.5 11.9 0.7 15.9 1.2 1.4 3.1 4.6 4.2 7 3.4 7.2 2.3 10-8.9 21.4-5.4 5.4-10.9 10.5-12.4 11.3-5 2.6-10.2 1.4-17.7-4.1-4.7-3.5-9.3-4.1-14.7-2-5.8 2.2-9.4 6.9-10.3 13.7-0.8 6.1-1.9 8.3-5.6 11.8-2.5 2.4-3.3 2.5-17.5 2.8-11.9 0.3-15.4 0-17.8-1.2-4.4-2.2-7-6.5-7.8-12.5-1.3-9.6-7.2-15.5-15.7-15.5-4.7-0.1-6.2 0.4-11.7 4.1-6.8 4.6-10 5.2-15.3 2.9-3.8-1.6-21.1-19.1-22.1-22.4l-0.7-2.2h-73.4l-35.8 35.8 1.8 5.7c3.3 10.6 0.6 20.6-7.5 27.9-5.8 5.2-10.3 6.9-18 6.9-7.7 0-12.2-1.7-18-6.9-7.9-7.2-10.7-17.1-7.7-27.5 4.2-14.3 20-22.4 34.3-17.5l4.8 1.6 40.2-40h42.1c47.8 0 44.4 0.7 45.1-8.8 0.3-4.7 0-6.3-2-9.1-3.4-5-6.8-7.1-12.9-8-3-0.4-6.4-1.3-7.6-1.9-3.2-1.8-6-6.2-6.8-11l-0.7-4.2h-54.3l-2.9 5.5c-8.4 16.2-29.2 19.2-42.3 6.2-9-9.1-10.6-21.3-4.3-32.4 6.4-11.2 19.8-16 32.5-11.6 6 2 13.7 9.3 15.4 14.6l1.3 3.7h54.7l0.7-4.8c1-7 6-11.7 13.5-12.6 10.1-1.3 15.9-7 15.9-15.8 0-2.6-0.5-5.9-1.2-7.3l-1.1-2.5h-84.1l-20.2-20.2-20.3-20.1-5.7 1.8c-23.5 7.4-43.6-17.3-31.6-38.8 3-5.5 9.8-10.9 15.6-12.6 20.6-6 39.6 13.7 33.1 34.4zm-38.1-7.1c1.3 10.7 14.1 15.2 21.7 7.7 5.2-5.3 4.6-15-1.2-19.3-9-6.7-21.9 0.6-20.5 11.6zm235.2 15.6h-10.3l-0.5 4.3c-1.6 13.9-14.8 25-29.6 25-7.2 0-12.5-1.7-17.7-5.8l-3.2-2.4-7.1 7.2c-6.7 6.8-7 7.3-5.5 9.2 6.6 8.6 8.3 21.7 3.9 31.1-4.6 9.9-11.2 15.1-22.3 17.4l-5.3 1.2v19.5l4.2 0.7c15.3 2.5 25.8 14.7 25.8 30.1 0 7.5-2.3 14-6.3 18.3l-2.1 2.3 7.4 7.4c7.3 7.4 7.4 7.4 9.5 5.6 7.8-7.2 21.5-8.8 31.7-3.8 9.5 4.7 16.8 15.1 16.8 23.9v2.8h20.6l1.2-5.8c4.4-21.2 29.6-31.1 46.8-18.3l3.9 2.9 14.2-14-3.3-4.9c-1.8-2.8-3.8-6.7-4.4-8.7-4.5-16.3 6.4-33.9 23.2-37.4l5.8-1.2v-9.7c0-10.3-0.3-10.9-5.3-10.9-3.6-0.1-10.9-3.9-15-7.8-10.8-10.4-12.7-27.5-4.2-38.7l3.3-4.3-7.4-7.3-7.3-7.3-2.3 2.2c-7 6.5-20.7 8.4-30.6 4.2-9.4-4.1-18.2-16.2-18.2-25.2 0-1.6-1-1.8-10.4-1.8zm-201.5 105.9c10.6 10.6 27.7-2.8 19.9-15.6-1-1.8-3.3-3.9-4.9-4.8-13-6.7-25.3 10.1-15 20.4zm-27.8 94.1c-8.7 5.3-8.1 17.5 1.1 22 5.1 2.4 6 2.5 11.2 0.1 9.4-4.3 9.7-17.8 0.5-22.6-4.1-2-8.9-1.9-12.8 0.5z"/><path fill-rule="evenodd" d="m376.5 92.1c25-0.3 48.2 16.9 55.7 41.3 2.5 8.2 2.9 21.3 0.9 29.6-6.5 27.2-32.9 46.8-60.2 44.6-23.1-1.9-43.4-17.4-50.9-38.9-2.7-7.8-3.7-21.5-2.1-29.9 1.6-8.4 7.9-21.1 13.6-27.5 7.7-8.7 20.3-15.9 32-18.3 2.2-0.4 7.2-0.8 11-0.9zm-43.5 57.9c0 12.9 6.7 27 16.3 34.3 9.8 7.4 23.3 10.9 34.5 8.8 35.5-6.6 49.1-49.8 23.3-74.4-6.3-6-10.8-8.7-19-11.1-27.1-8-55.1 13.6-55.1 42.4zm-72.6 181.6c3 1.1 12.1 1.4 41.5 1.4 42.5 0 42.2 0 50 8 10.9 11.3 8.9 29.9-4.3 38.7-6.3 4.3-7.4 4.5-39.5 9.3-21.7 3.2-27.7 4.4-28.7 5.8-0.7 0.9-1.1 1.8-1 1.9 0.5 0.5 83.7 29.3 84.6 29.3 0.5 0 24-13.4 52.2-29.7 28.2-16.3 53.1-30.3 55.3-31.1 10.8-3.8 24.2 1.7 29.8 12.3 3 5.6 3 16.4 0 22.1-3.4 6.4-6.7 9-33.5 25.8-13.9 8.8-37.2 23.5-51.8 32.7-14.6 9.1-29.3 18.1-32.8 19.8-25.9 13-68.8 18.7-121.5 16.3-30.2-1.5-48.6-3-96.2-8.2-41.8-4.5-69.1-7-77.6-7h-5.9v10c0 15.1 2.8 14-35.7 14-31.1 0-31.7 0-34-2.2l-2.3-2.1v-145.1l2.2-2.3 2.1-2.3h31.9c38.6 0 35.8-1.1 35.8 14v10h49.5l51.5-20.7c28.3-11.3 54-21.2 57-21.9 6.1-1.4 15.3-0.9 21.4 1.2zm-18.9 12.3c-12.7 3.3-20.9 13.8-20.8 26.6 0.2 23.3 28.7 34.9 45.2 18.4 12.9-12.8 9.1-35-7.2-42.8-4.8-2.3-12.9-3.3-17.2-2.2zm67 3.1h-27.5l2.3 4.7c3.4 6.6 5 14.5 4.5 20.9l-0.5 5.4 3.1-0.5c1.7-0.3 12.2-1.9 23.4-3.5 22.2-3.3 25.8-4.4 29-8.5 4.1-5.1 2.1-14-3.8-17-2.4-1.2-7.8-1.5-30.5-1.5zm-100.7 10.5c-0.2-0.2-16.9 6.4-37.3 14.5-20.3 8.2-38.2 14.9-39.7 15-1.6 0-2.8 0.3-2.8 0.6 0 0.3 1.7 2.5 3.8 4.9 16.9 19.2 16 49.7-2 69l-5.7 6.1 39.7 4.2c53.9 5.8 67.6 7 96.5 8.3 27.6 1.4 56.8 0.2 75.2-2.9l10-1.7 4.7-17c2.6-9.4 4.7-17.7 4.7-18.6 0.1-1.1-11-5.4-45.1-17.2l-45.3-15.7-4.3 1.5c-14.5 5.1-30.5 1.3-41.7-9.9-9.2-9.2-13.4-22.1-11.4-34.7 0.5-3.4 0.9-6.3 0.7-6.4zm-140.8 5.5h-44v126h44v-8.3l-0.1-8.2-4-2.5c-6.3-3.8-15.4-14.2-18.7-21.2-7.1-15.1-7-31.5 0.4-46.5 3.1-6.4 13.6-18 18.8-20.8l3.6-2zm406.9 15.8c-4.6 2.1-99.9 57.6-99.9 58.3 0 1.2 11.1 20.9 12.1 21.5 0.5 0.3 23.2-13.5 50.5-30.7 41-25.8 49.8-31.8 51.1-34.4 2.2-4.5 1-9.7-2.8-12.9-3-2.6-7.5-3.3-11-1.8zm-391.9 9.8c-23.4 6.3-35.5 31.8-25.3 53.5 7.3 15.7 23.6 24.4 40.8 21.7 12.5-1.9 22.9-9.8 28.8-21.8 2.9-5.9 3.2-7.3 3.2-16 0-8.5-0.3-10.2-3.1-16-5.4-11.5-15.9-19.7-28.3-22-6.9-1.3-9.4-1.2-16.1 0.6zm286 67.2l-1.8-3.1-1.2 4.4c-0.6 2.4-1.8 6.5-2.5 9.1-0.8 2.7-1 4.8-0.5 4.8 0.4 0 3.3-1 6.4-2.1l5.5-2.1-2-4c-1.1-2.1-2.8-5.3-3.9-7z"/><path  d="m240.9 363.9c-3.7 3.7-3.8 7.9-0.3 12 2.1 2.5 3.3 3.1 6.5 3.1 8.6 0 12.3-10 5.8-15.4-4.1-3.5-8.3-3.4-12 0.3zm-155.2 55.1c-6.6 5.2-2.7 16 5.8 16 3.9 0 6.5-1.8 8.1-5.6 3.6-8.7-6.5-16.2-13.9-10.4z"/></svg>