<svg version="1.2" xmlns="http://www.w3.org/2000/svg" viewBox="0 0 512 512"><path fill-rule="evenodd" d="m181.5.3 120 .2 5 2.4c7.3 3.6 82.1 78.2 86.2 86.1l2.8 5.5.3 69c.2 51.4 0 69.6-.9 71.2-2.4 4.6-11.5 4.5-13.3-.2-.3-.9-.6-31.3-.6-67.6V101h-23.8c-13.1 0-26.5-.5-29.7-1.1-16.1-3-28.5-15.4-31.4-31.3-.6-3.3-1.1-16.7-1.1-29.8V15l-117.2.2-117.3.3-4 2.2c-5.1 2.7-7.9 5.7-10.4 11.3-2 4.5-2.1 5.3-2.1 208.6v204l2.5 5.1c1.5 2.8 4.2 6.4 6.2 7.9 6.6 5.1 10.2 5.4 54.7 5.4 40.7 0 41 0 43.3 2.2 2.8 2.6 3 6.7.4 9.9l-1.9 2.4-41.4.3c-28.1.2-43.2-.1-47.3-.8-12.5-2.4-22.5-10.2-28.2-21.9l-2.8-5.6v-418l2.7-5.7c2.9-6.3 9.3-13.7 14.5-16.9 1.9-1.2 6-3 9.1-4C61.2.2 67.9.1 181.5.3zm158 54.7L310 25.5v18.2c0 10 .5 20.5 1.1 23.3 1.4 6.6 6.2 12.7 12.4 15.9 4.7 2.5 5.8 2.6 25.2 3 11.2.1 20.3-.1 20.3-.6 0-.4-13.3-14.1-29.5-30.3z"/><path d="M84.1 88.6c-2.7 3.5-2.6 5.7.3 9.1l2.4 2.8 62.9.3c43.6.2 63.6-.1 65.4-.8 2.5-1.1 4.9-4.7 4.9-7.4 0-.7-.9-2.5-2.1-4l-2-2.6H86.1zM84.5 140.5c-1.4 1.3-2.5 3.1-2.5 4 0 2.9 2.9 7.2 5.2 7.9 1.3.3 57.9.6 125.9.6 123.6 0 123.6 0 126.3-2.1 3.3-2.6 3.6-7.9.6-10.9-2-2-3.3-2-127.5-2H86.9zM85.1 185.7c-1.1 1-2.4 3.2-2.7 5-.5 2.6-.1 3.7 1.9 5.7l2.6 2.6h125.6c124.2 0 125.5 0 127.5-2 3-3 2.7-8.3-.6-10.9-2.7-2.1-2.7-2.1-127.4-2.1-117.4 0-124.9.1-126.9 1.7z"/><path fill-rule="evenodd" d="M184.7 260.3c15.7 9.5 20.2 15.5 21.1 28.1l.5 6.8 5.1 2.4c7.7 3.6 12.4 3.2 26.8-2.3 11.6-4.5 12.9-4.8 21.8-4.8s10 .2 17.3 3.7l7.9 3.8 15.6-4.1c19.8-5.1 24-5 39.7 1.1 10.9 4.3 18.2 5.8 22.7 4.7 2.2-.6 2.3-1 2-8.2-.5-9.3 1.4-15 7-21.1 5-5.4 23.4-16.4 28.7-17.1 5-.7 10.1 1 13.4 4.5 2.1 2.2 62.3 102.8 67.3 112.4 1.9 3.6 1.8 10.2-.2 14.4-1.8 3.7-5.1 6.3-18 13.7-9.7 5.7-16.4 7.2-24.4 5.6-5.1-1-6.1-.9-9.8 1-2.2 1.1-4.3 2.4-4.6 2.9-.3.5.6 3 1.9 5.7 5.3 10.3 2.1 24-7.3 31.2-5.4 4.1-13.6 6-19.7 4.6-4.4-1-4.5-1-5.2 1.6-1.8 7.8-8.8 15.8-15.9 18.2-2.2.7-6.5 1.3-9.6 1.3-5.5-.1-5.8 0-5.8 2.4 0 3.6-4.8 11.8-8.7 14.8-1.8 1.4-4.9 3.2-6.8 4-4.5 1.8-13.6 1.8-18.2-.1-2-.8-3.7-1.4-3.8-1.3-.1.2-.7 2.2-1.4 4.6-2.4 8.3-11.3 15.6-20.6 16.8-6.5 1-12.4-.9-23.6-7.6l-10.1-6-3.1 2.4c-6.1 4.6-10 6-16.7 6-8.5.1-16-3.8-20.5-10.7-2.9-4.4-3.2-4.6-6.5-3.9-5.9 1.2-12.9.4-17.5-1.8-5.4-2.6-11.1-9-12.6-14.1-1.1-3.5-1.3-3.7-6.8-4.2-3.2-.2-7.6-1.4-9.8-2.6-5.1-2.6-11-9.3-12.5-14.3-1-3.6-1.4-3.8-5.1-3.8-13.4 0-24.7-11-24.7-24.2 0-7.2 1.4-11 6.6-18.5 2.4-3.4 4.4-6.4 4.4-6.6 0-1.5-3.5-1.4-7.2.3-10.3 4.5-18.2 3.4-32.3-4.6-15.2-8.5-20-15.2-17.5-24.2.6-2 16-28.9 34.3-59.7 29.8-50.3 33.6-56.2 37.2-58.3 6.8-3.9 12-2.9 25.2 5.1zm-17 7.7c-.3 0-.9.6-1.4 1.2-1.1 1.3-61 102.5-63.1 106.4-1.1 2-.5 2.5 7.3 7.2 4.7 2.8 10.1 5.5 12 6.1 4.3 1.2 9.5-.1 12.9-3.2 4.2-3.8 54.7-90.2 55.3-94.5.9-6.9-2.2-11-13.1-17.5-5.2-3.2-9.7-5.7-9.9-5.7zm235.4 0c-.3 0-4.6 2.4-9.6 5.3-15.8 9.3-17.2 14.9-7.8 30.6 7.1 12 7.3 16.6.6 19.2-3.6 1.4-7-.6-10.3-6l-3-4.9-4.7 1.4c-9.9 3-16 2-38.5-6.5-3.2-1.1-7-2.1-8.6-2.1-1.5 0-9.6 1.8-18 3.9-24.7 6.4-25.5 7.5-26 35.8l-.4 19.3h3.2c4.1 0 10.4-3.3 12.8-6.7 2.2-3.1 4.2-9.5 4.2-13.5 0-2.9 4-6.8 7-6.8 1.6 0 16.9 8.9 80.9 46.8l25.3 15 4.9-3.1c3.4-2.1 4.8-3.5 4.4-4.5-.3-.9-5.9-10.6-12.5-21.8-12.7-21.4-13.8-24.6-10-28.4 2.3-2.3 6.8-2.6 9.3-.8.9.7 7.1 10.5 13.8 21.8 6.6 11.3 13.2 21.7 14.7 23.3 3.3 3.5 8.5 5 13.2 3.7 5.4-1.5 19.5-10.4 19.4-12.3-.1-.8-14.4-25.7-31.9-55.1-17.4-29.5-32-53.6-32.4-53.6zM243 309.8c-11 4.4-12 4.6-21.5 4.7-8.9 0-10.7-.3-15.9-2.8-3.2-1.5-6-2.6-6.2-2.4-2.2 2.1-46.3 78.4-46 79.4.7 1.7 2.5 1.6 7.2-.3 5-2.1 14.5-1.4 20 1.4 2.3 1.1 5.5 3.7 7.2 5.6l3.1 3.6 5.2-3.3c4.6-2.8 6-3.2 12.3-3.2 8.4 0 13.2 2 18.7 7.8 2.1 2.1 4.4 5.7 5.2 8l1.4 4.2 6 .6c11.4 1.1 20 8.6 22.4 19.5.9 3.8.9 6.7.2 9.7l-.9 4.4 4.7 1.6c5.7 2.1 13 9.7 14.7 15.5 1.6 5.4 1.5 12.5-.3 16.9-.8 1.9-1.5 3.9-1.5 4.4 0 1.2 16.5 10.8 19.8 11.5 6.3 1.3 12.7-5.3 11.5-11.8-.7-3.7-3-5.8-12.1-11.2-9-5.2-9.8-6-10.7-9.8-1-3.9 4.3-9.3 8.1-8.4 1.4.4 10.9 5.6 21.1 11.6 19.5 11.5 22.6 12.6 27.2 9.4 1.3-.9 3-3.2 3.8-5.1 1.2-3.1 1.2-3.8-.4-7.1-1.5-3.2-4.7-5.5-22.3-15.9-21.4-12.7-23-14.2-21.6-19.6.8-3.4 4.9-6.1 7.8-5.4 1.3.4 14.2 7.7 28.8 16.3 27.9 16.6 30.1 17.5 35.4 14 5.2-3.3 5.8-11.2 1.3-15.3-1.2-1.1-13.4-8.6-27.2-16.7-13.7-8.1-25.8-15.7-26.7-16.8-3.9-4.4-.4-11.8 5.5-11.8 1.6 0 15.8 7.9 37.4 20.7 39.1 23.2 40 23.6 45.4 17.5 3.9-4.3 3.9-9.1.2-13.1-1.6-1.6-23.9-15.4-49.8-30.7-25.8-15.2-48-28.3-49.1-29.1-2-1.3-2.3-1.1-5.2 4-5.8 10.3-14.5 15.8-26.2 16.5-6.6.3-7.9.1-10.9-2-7.6-5.2-7.6-5.3-7.6-31.1v-23.2l3.5-7c1.9-3.9 3.6-7.3 3.7-7.6.2-.3-.8-1.1-2.2-1.7-5.2-2.4-12.4-1.3-24.5 3.6zm-87.3 103.3c-5.5 7.6-6.7 9.9-6.7 13.1 0 7.4 8.4 12.3 14.9 8.8 2.7-1.4 14.1-17.7 14.8-21.1.8-3.9-1.4-8.7-4.8-10.4-6.7-3.5-10.1-1.7-18.2 9.6zm48.6-4.9c-1.3.6-7.7 8.6-14.3 17.8-10.1 14.2-12 17.3-12 20.5 0 4.7 1.3 7.1 5.2 9.1 4 2.1 8.7 1.2 12-2.4 1.4-1.5 7.1-9.2 12.8-17.1 11.9-16.8 13-19.9 8.4-25-3.2-3.5-8.4-4.8-12.1-2.9zm28 21.3c-2.1 1.5-20.4 26.1-24.4 33-1.9 3.2-2 4.1-1 7.6 1.8 6 7.3 8.5 13.9 6.5 1.3-.5 7-7.4 14.4-17.8 10.7-14.9 12.3-17.7 12.3-21.1 0-3.1-.7-4.5-3.3-6.8-3.7-3.3-8.4-3.8-11.9-1.4zm24.9 32.5c-4.9 0-7.7 2.1-13 10.1-5.2 7.7-5.5 11.4-1.3 16.1 2.4 2.7 3.6 3.3 6.9 3.3 4.8 0 7.5-2.2 13.3-10.9 4.9-7.3 5.2-11.5 1-15.7-2.3-2.2-3.9-2.9-6.9-2.9z"/></svg>