<svg version="1.2" xmlns="http://www.w3.org/2000/svg" viewBox="0 0 512 512" width="100" height="100"><style></style><path fill-rule="evenodd" d="m167.6 8.1c104.5-0.1 98.1-0.6 105.7 7.9 2.4 2.6 4.9 6.6 5.5 8.8 1.7 5.6 1.7 168.8 0 174.4-0.6 2.2-3.1 6.2-5.5 8.8-7.2 8-6.9 8-57.7 8h-44.1l-28 28c-25.3 25.2-28.4 28-31.3 28-2.2 0-4.1-0.9-5.7-2.5l-2.5-2.4v-51.1h-13.6c-7.8 0-15.4-0.5-17.8-1.2-5.5-1.6-13.8-9.9-15.4-15.4-1.7-5.9-1.7-168.9 0-174.8 1.5-5.1 9.9-13.7 14.8-15.3 2.4-0.8 31.5-1.1 95.6-1.2zm91.5 15.9h-182.2l-2.4 2.5-2.5 2.4v166.2l2.5 2.4c2.4 2.5 2.6 2.5 21.5 2.5 25.8 0 24-1.8 24 24.7v19.7l44.6-44.4h94.5l2.4-2.5 2.5-2.4v-166.2l-2.5-2.4z"/><path fill-rule="evenodd" d="m184.7 41.7c4.1 1.9 7.1 6.2 7.9 11.6 0.6 3.3 1.3 4.1 6.8 7 3.3 1.7 6.3 3.1 6.6 3 13.5-5.7 17.7-3.5 28.6 15.7 3.1 5.4 5.4 10.6 5.4 12.3 0 4.4-2.9 9.6-6.6 12-3.3 2.1-3.4 2.4-3.4 8.7 0 6.3 0.1 6.6 3.4 8.7 3.7 2.4 6.6 7.6 6.6 12 0 1.6-2.2 6.8-5.1 11.8-6.1 10.7-9.2 15-12.4 17.1-3.1 2-10.2 2.1-14 0.2-2.8-1.5-3.2-1.4-8.9 1.8-5.4 2.9-6.1 3.7-7.1 7.7-2.7 10.8-6.4 12.7-24.5 12.7-18.1 0-21.8-1.9-24.5-12.7-1-4-1.7-4.8-7.1-7.7-5.6-3.2-6.2-3.3-8.8-1.9-3.7 1.9-11.1 1.9-14.1-0.1-3.2-2.1-6.3-6.4-12.4-17.1-2.9-5-5.1-10.2-5.1-11.8 0-4.4 2.9-9.6 6.6-12 3.3-2.1 3.4-2.4 3.4-8.7 0-6.3-0.1-6.6-3.4-8.7-3.7-2.4-6.6-7.6-6.6-12 0-1.7 2.3-6.9 5.4-12.3 10.9-19.2 15.1-21.4 28.6-15.7 0.3 0.1 3.3-1.3 6.6-3 5.5-2.9 6.2-3.7 6.8-7 0.8-5.3 3.7-9.6 7.7-11.6 4.9-2.4 28.6-2.4 33.6 0zm-7.7 14.3h-18v3.2c0 5.4-3.3 9.4-10.7 13.3-3.7 1.9-8.4 4.4-10.3 5.5-4.1 2.4-8.7 2.6-13.5 0.6l-3.5-1.5-8 13.4 3 2.3c5.1 4 6 6.9 6 19.2 0 12.3-0.9 15.2-6 19.2l-3 2.3 8 13.4 3.5-1.5c4.8-2 9.4-1.8 13.5 0.6 1.9 1.1 6.5 3.5 10.1 5.5 7.4 3.8 10.9 8.1 10.9 13.4v3.1h18v-3.3c0-5.3 3.3-9.3 10.7-13.2 3.7-1.9 8.4-4.4 10.3-5.5 4.1-2.4 8.7-2.6 13.5-0.6l3.5 1.5 8-13.4-3-2.3c-5.1-4-6-6.9-6-19.2 0-12.3 0.9-15.2 6-19.2l3-2.3-8-13.4-3.5 1.5c-4.8 2-9.4 1.8-13.5-0.6-1.9-1.1-6.5-3.5-10.1-5.5-7.4-3.8-10.9-8.1-10.9-13.4z"/><path fill-rule="evenodd" d="m187.7 92.6c4 4 5.5 6.4 6.9 10.9 5 17.4-6.3 34.4-24.1 36.2-17.2 1.8-32-13.1-30.2-30.4 1.1-10.6 9.1-20.8 18.6-23.7 10.8-3.4 20.8-0.9 28.8 7zm-24.2 8.3c-4.5 2-7 6-7 11.2 0 4.2 0.5 5.3 3.3 8.1 2.8 2.8 3.9 3.3 8.2 3.3 4.3 0 5.4-0.5 8.2-3.3 2.8-2.8 3.3-3.9 3.3-8.2 0-4.2-0.5-5.4-3.1-8.1-3.3-3.3-9.2-4.6-12.9-3zm-137 99.1h13.5v16h-16v160h160v-59.1l2.5-2.4c2.4-2.5 2.4-2.5 24-2.5h21.5v-59.1l2.5-2.4 2.4-2.5h70.2l2.4 2.5 2.5 2.4v59.1h5.5c4.6 0 6 0.4 8 2.5l2.5 2.4v59.1h16v-160h-48v-16h64.4c59.9 0 64.5 0.1 66.4 1.7 1.8 1.5 70.1 100.1 75.4 108.8 1.7 2.8 1.8 7 1.8 75.8v72.8l-2.5 2.4-2.4 2.5h-59.9l-0.6 3.4c-1.3 6.7-7.4 17.1-13.4 22.8-19.2 18.3-47.2 18.3-66.4 0-6-5.7-12.1-16.1-13.4-22.8l-0.6-3.4h-177.6l-0.6 3.4c-1.3 6.7-7.4 17.1-13.4 22.8-19.2 18.3-47.2 18.3-66.4 0-6-5.7-12.1-16.1-13.4-22.8l-0.6-3.4h-59.9l-2.4-2.5-2.5-2.4v-254.2l2.5-2.4c2.3-2.4 2.9-2.5 16-2.5zm357.5 16h-24v171.1l-2.5 2.4-2.4 2.5h-331.1v56h48.8l0.6-3.4c1.3-6.7 7.4-17.1 13.4-22.8 19.2-18.3 47.2-18.3 66.4 0 6 5.7 12.1 16.1 13.4 22.8l0.6 3.4h177.6l0.6-3.4c1.3-6.7 7.4-17.1 13.4-22.8 19.2-18.3 47.2-18.3 66.4 0 6 5.7 12.1 16.1 13.4 22.8l0.6 3.4h48.8v-120h-99.1l-2.4-2.5-2.5-2.4zm34.3 0.5l-9.2-0.3-9.1-0.3v96.1h84.1l-7.5-10.8c-4-5.9-18.8-27.4-32.9-47.7zm-154.3 47.5h-16v48h48v-48h-16v16h-16zm-48 64h-16v48h48v-48h-16v16h-16zm64 0h-16v48h48v-48h-16v16h-16zm-170 97.6c-27.3 9.9-29.5 46.6-3.5 59.4 4.1 2 6.5 2.5 13.5 2.4 7.2 0 9.3-0.4 13.6-2.6 7.5-3.9 10.7-7 14.5-14 3-5.7 3.3-7.1 3.4-14.8 0-7-0.5-9.4-2.5-13.5-3.2-6.4-9.2-12.4-15.5-15.4-6.5-3.1-17.2-3.8-23.5-1.5zm272 0c-27.3 9.9-29.5 46.6-3.5 59.4 4.1 2 6.5 2.5 13.5 2.4 7.2 0 9.3-0.4 13.6-2.6 7.5-3.9 10.7-7 14.5-14 3-5.7 3.3-7.1 3.4-14.8 0-7-0.5-9.4-2.5-13.5-3.2-6.4-9.2-12.4-15.5-15.4-6.5-3.1-17.2-3.8-23.5-1.5z"/></svg>