<svg version="1.0" xmlns="http://www.w3.org/2000/svg" width="684" height="684" viewBox="0 0 513 513"><path d="M236.4 21.1c-1.6.5-4.1 2-5.5 3.5-2.1 2.2-2.5 3.7-2.9 12l-.5 9.5-8.2 3.3-8.2 3.3-4.8-4.9c-6-6.2-9-7.8-14.5-7.8-4.1 0-4.6.4-19 14.8L158 69.6v5.3c0 5.2.2 5.5 6.3 11.8l6.3 6.5-3.5 8.4-3.6 8.4h-7.8c-9.5 0-13.9 1.8-16.1 6.5-2.3 4.8-2.3 39.2 0 44 2.2 4.8 6.6 6.5 16.3 6.5 6.9 0 8.2.3 8.7 1.7.3 1 1.8 4.8 3.3 8.5l2.9 6.6-5 4.9c-6.6 6.4-8.1 9.5-7.5 15.1.5 4.3 1.3 5.4 14.9 18.9l14.4 14.3h5.3c5.2 0 5.5-.2 11.8-6.3l6.5-6.3 8.4 3.5 8.4 3.6v7.8c0 9.5 1.8 13.9 6.5 16.1 4.8 2.3 39.2 2.3 44 0 4.7-2.2 6.5-6.6 6.5-16.1v-7.8l8.4-3.6 8.4-3.6 6 6c5.7 5.7 6.4 6 11.7 6.5l5.7.5 15-15.1 15.1-15-.5-5.7c-.4-5.3-.8-6-6.6-11.8l-6.1-6.2 1.9-3.5c1.1-1.9 2.6-5.6 3.5-8.3l1.7-4.7h8c9.7 0 14-1.7 16.3-6.6 1.4-2.9 1.6-6.6 1.3-23.4l-.3-20-3.2-3.2c-3.1-3.1-3.6-3.2-12.6-3.6l-9.3-.4-3.5-8.3-3.5-8.3 6.3-6.5c6.1-6.3 6.3-6.6 6.3-11.8v-5.3l-14.3-14.4c-13.5-13.6-14.6-14.4-18.9-14.9-5.6-.6-8.7.9-15.1 7.5l-4.8 4.9-8.2-3.3-8.2-3.3-.5-9.5c-.8-15.3-3.2-16.6-29-16.5-9.1 0-17.9.5-19.6 1zM273 43.9c0 12.1.1 12.3 7 14.1 2.5.6 8.2 2.9 12.7 5.1 4.5 2.1 9.4 3.9 10.8 3.9 2 0 4.7-1.9 9.9-7l7.2-6.9L331.5 64l11 11-7.3 7.3c-4.6 4.7-7.2 8-7.2 9.5 0 1.2 1.5 5.3 3.4 9 1.8 3.7 4.3 9.8 5.6 13.5 2.7 8.3 3.5 8.7 16.6 8.7h9.5l-.3 15.7-.3 15.8-9.5.2c-13.8.4-13.5.2-16 7.9-1.2 3.7-3.7 9.8-5.6 13.5-1.9 3.8-3.4 7.9-3.4 9.1 0 1.5 2.6 4.8 7.2 9.5l7.3 7.3-11.1 11.1-11.1 11.1-7.5-7.1c-4.6-4.3-8.4-7.1-9.7-7.1-1.2 0-5 1.4-8.4 3.2-3.4 1.7-9.6 4.3-13.7 5.7l-7.5 2.6-.5 11.5-.5 11.5h-32L240 233l-.5-11.5-8.5-3c-4.7-1.7-10.8-4.3-13.7-5.8-2.9-1.5-6.3-2.7-7.5-2.7-1.5 0-4.8 2.5-9.5 7.2l-7.3 7.3-11-11-10.9-10.9 6.9-7.2c8-8.3 8.4-9.7 4.3-17.7-1.5-2.9-4.1-9-5.8-13.7l-3-8.5-11.3-.3-11.2-.3V123h8.9c12.5 0 13.4-.5 16.1-8.7 1.3-3.7 3.8-9.8 5.6-13.5 1.9-3.7 3.4-7.8 3.4-9 0-1.5-2.6-4.8-7.2-9.5l-7.3-7.3 11-11 10.9-10.9 7.2 6.9c8.4 8.2 10.2 8.6 18.5 4.1 3-1.6 8.3-3.9 11.9-5.1 10.7-3.6 10-2.6 10-15V33h33v10.9z"/><path d="M242.5 79.6c-22.5 4.8-40.3 22.6-45 44.9-1.9 9.1-1.9 21.5 0 29 4.3 17.1 16.4 32 31.6 39.3 10.1 4.8 16.2 6.2 27.4 6.2s17.3-1.4 27.4-6.2c15.4-7.3 27.2-22 31.6-39.3 1.9-7.5 1.9-19.9 0-29-6.8-32.3-39-52.1-73-44.9zm22.1 11.5c19.1 3.5 35.4 19.7 39.4 39.4 3 14.7-4.3 35.1-16.2 44.8-6.2 5.1-16 9.4-24.4 10.8-17.9 2.9-38.1-6.3-47.3-21.5-12.4-20.6-9.8-43 6.8-59.7 11.9-11.9 26.3-16.6 41.7-13.8zM75 254.9c-11.4 3.6-16.7 9.6-27.4 31l-8.5 17-3.3-1c-4.3-1.2-28.4-1.2-30.8.1-2.9 1.5-4 6.3-3 12.6.9 5.3 4.8 13.5 7.1 14.9.6.4 0 2-1.7 4.2-7 9.2-7.9 19.2-3.9 42.4C5.7 388.6 6 393.5 6 413.5c0 21 .2 23.3 2 26.2 3.6 6 5.9 6.8 21.4 7.2 8.4.2 15.5-.1 17.7-.8 3.8-1.2 9.9-7.1 9.9-9.6 0-1.3 4.7-1.5 33.5-1.5H124v22.3c0 21.1.1 22.5 2.3 26.7 3.5 7.1 6.9 8.4 22 8.9 17.7.4 23-.3 27.2-4 1.9-1.7 4-4.6 4.7-6.5l1.2-3.4h167.4l.6 3.1c.8 4.2 5.4 8.5 10.6 9.9 2.7.7 10 1 19.4.8 17.1-.4 19.8-1.2 23.8-7.5 2.2-3.7 2.3-4.7 2.6-27.1l.4-23.2h49.3l2 3.7c3.8 7 5.9 7.8 22.2 8.1 17.4.5 21.8-.7 25.5-6.6 2.2-3.6 2.3-4.8 2.9-32.2.5-20.5 1.1-30.9 2.3-37 2.5-12.5 2.4-23.5-.3-29.5-1.2-2.7-3.2-6.3-4.5-8l-2.3-3 2.9-3.5c3.2-4 5.8-11.5 5.8-17.2 0-2.8-.7-4.6-2.5-6.3-2.3-2.4-2.8-2.5-16.2-2.4-7.6.1-14.9.4-16.3.8-2.4.7-2.9 0-11.9-17.2-10.1-19.3-13.6-23.8-21.7-27.8l-4.9-2.4-54.1-.3c-53-.3-54.3-.2-59.8 1.8-6.5 2.5-14.3 9.5-17.5 15.8L305 276h-96.5l-3-5.1c-3.5-5.9-8.7-10.9-14.7-14.1l-4.3-2.3-54.5-.2c-30-.1-55.6.2-57 .6zm106.3 12.2c3.9 1.1 11 6.7 12.8 10.1.9 1.7.2 2.8-4.8 7.3-6.2 5.6-12.2 15-18.8 29.2l-3.8 8.3h-61.4c-33.7 0-61.3-.3-61.3-.7 0-.3 5.2-10.8 11.6-23.2 12.3-24.2 15.9-29 23.2-30.9 5.2-1.4 97.6-1.5 102.5-.1zm256.4 1.6c2.3 1.3 5.3 3.7 6.6 5.5 2.1 3 24.7 46.1 24.7 47.3 0 .3-23.8.5-53 .5h-53l-7.4-14.8c-4.1-8.1-9.2-16.8-11.4-19.3-4.6-5.2-13.8-10.5-20-11.5-3.6-.6-4-.9-3.2-2.4 1.2-2.3 7.3-6.1 11.4-7.1 1.7-.4 25.2-.7 52.1-.6 48.7.2 49 .2 53.2 2.4zm-113.8 20.9c8.8 2.6 11.9 6.7 26.9 36.1C358 340 364 352 364 352.4c0 .3-44.7.6-99.4.6h-99.3l12.7-25.5c7-14 13.9-27 15.4-29 3.3-4.3 9.3-8.5 13.8-9.5 1.8-.4 27.6-.8 57.4-.9 46.3-.1 54.8.1 59.3 1.5zm-166.6 49.6c-7.7 12-10 14.5-14 15.1-2.1.4-6 2-8.6 3.7l-4.8 3H74.3l-.7-3.2c-.9-4.3-8.5-11.5-13.1-12.4-7-1.3-15 0-19 3-3.2 2.5-6.7 6.9-7.9 10.1-.6 1.6-10.9-4.2-15-8.4l-3.8-3.9 1.8-3.2c1.1-1.7 3.7-4.3 5.9-5.6l4-2.4H160l-2.7 4.2zm331.6-2.8c2.9 1.5 9.1 8 9.1 9.5s-8.6 8.9-12.9 11c-5 2.6-5.8 2.6-6.6 0-.4-1.2-2.3-3.9-4.2-6-9.9-10.9-29-7.4-34.8 6.4L438 361h-20c-12.3 0-20.1-.4-20.5-1-1.1-1.8-6.9-4.4-12.5-5.5l-5.5-1.1-4.7-8.5c-2.6-4.6-4.8-8.7-4.8-9.2 0-.4 26.1-.7 58-.7 48.8 0 58.5.2 60.9 1.4zM58.7 358.5c7.3 5.1 3.7 18.5-5 18.5-3.3 0-7.3-3.6-8.3-7.4-2.1-8.4 6.7-15.7 13.3-11.1zm404.9 0c5.1 3.5 5.5 12.7.7 16.5-5 3.9-11.2 1.8-13.3-4.5-2.9-8.9 5.6-17 12.6-12zM23 368.3c4.1 2 8 3.7 8.6 3.7.6 0 1.9 2 2.8 4.5 6.5 16.8 32.3 17.1 39 .5l1.6-4h23.5c22.8 0 23.5.1 22.6 1.9-.8 1.4-2.7 2-8.6 2.6-8.9.8-18.2 5-21.9 9.8-3.5 4.6-9.6 19.3-9.6 23.2 0 1.8.6 3.8 1.3 4.4.9.6 8.5 1.2 20.7 1.3l19.4.3.7 3.3.7 3.3-46.9-.3-46.8-.3-3-2.9c-1.6-1.5-3.4-4-4-5.5-.5-1.4-2.6-12.5-4.6-24.6-2-12.1-3.9-22.8-4.2-23.9-.3-1-.1-1.7.3-1.4.5.2 4.3 2 8.4 4.1zm472 19.8c-2.6 15.2-4.7 24.9-6.1 27.6-3.7 7.3-3.7 7.3-45.6 7.3h-37l.5-3 .4-3h10.5c9.7 0 10.6-.2 12.8-2.5 1.4-1.3 2.5-2.9 2.5-3.5 0-.6-1.9-5.7-4.2-11.3-4.6-11-9.1-16.6-15.1-18.8-2.6-.9-3.7-2.1-4.5-4.6l-1-3.3H437.9l1.9 4.2c4.9 11.2 17.8 15.8 28.8 10.3 5.4-2.7 8.4-6 10.4-11.6 1-2.9 2-3.8 5.4-4.8 2.3-.7 6.4-2.5 9.2-4.1 2.7-1.5 5-2.7 5.1-2.6.1.1-1.5 10.8-3.7 23.7zm-110-20.7c4.5 2.3 8.8 6.4 10.6 9.8 1.3 2.5 1.2 2.8-2.6 6.2-4.7 4.2-13.6 10.2-16.7 11.1-1.8.5-2.5 0-3.6-2.7-3.4-8.1-11.8-13.2-21.7-13.3-5.3 0-7.4.5-11.1 2.7-4.8 2.8-9.3 8.5-10.4 13l-.7 2.8H201.3l-1.7-4.3c-3-7.8-9.7-13.2-18-14.3-9.9-1.4-20.2 4-24.1 12.5-1 2.3-2.2 4.1-2.7 4.1-4 0-21.8-12.7-21.8-15.6 0-4.1 8.8-11.9 15.2-13.4 1.8-.5 55.1-.7 118.3-.7 110.1.2 115.1.3 118.5 2.1zm-266.6 25.3c.3 1.6.8 4.7 1.1 7l.7 4.3h-11.6c-12.9 0-13.2-.2-9.3-6.1 2.7-4.1 9.8-7.9 14.8-7.9 3.3 0 3.8.3 4.3 2.7zm65.4-.1c7.5 5.2 6.5 17.6-1.8 21.9-2.5 1.3-3.8 1.4-6.5.5-8.8-2.9-11.1-14.2-4.3-21 3.4-3.4 8.8-4.1 12.6-1.4zm174.4 1.3c3 2.7 3.3 3.4 3.3 9 0 5.2-.4 6.3-2.9 9-3.6 3.8-6.7 4.5-11.1 2.7-5-2.1-8-8.9-6.5-14.5 2.3-8.6 11-11.7 17.2-6.2zm34.6 32.6c-2.8 16.5-5.7 30.5-6.7 32.5-1 1.9-3.3 4.5-5.1 5.8l-3.3 2.2H152.3l-3.3-2.3c-5.9-3.9-6.8-6.8-12.1-37.4-2.7-15.7-4.7-28.8-4.5-29 .2-.2 2.5 1 5.1 2.8 2.5 1.7 7.7 4.2 11.3 5.5 5.1 1.7 6.8 2.8 7.3 4.6 2.6 10 11.4 16.8 21.5 16.8 10.5 0 17.6-4.5 21.5-13.4l2.4-5.6h63.8c56.7 0 63.7.2 63.7 1.5 0 2.9 3.9 9.3 7.5 12.3 8.3 6.7 20.5 7 29.3.5 3.1-2.3 8.2-10.7 8.2-13.6 0-.7 2.1-1.8 4.8-2.6 4.9-1.3 16.6-7.4 17.8-9.2.3-.6.7-.9.9-.7.2.2-1.9 13.3-4.7 29.3z"/><path d="M236.7 417.1c-10.9 2.6-17 8.6-23.1 23.1-5 11.6-5.4 13.8-3 16.2 1.4 1.4 7.7 1.6 54.3 1.6 39.6 0 53-.3 53.9-1.2 2.2-2.2 1.2-7.7-3.4-18.3-5.6-12.8-10.1-17.4-20.2-20.5-5.7-1.8-9.1-2-30.6-1.9-13.2.1-25.8.5-27.9 1zm56.6 13.7c4.6 2.3 8.4 7.2 10.2 12.9l.6 2.3H225l1.5-3.8c3-7.3 7.7-11.5 14.8-13.3 1.8-.4 13.1-.7 25.2-.6 20.9.2 22.2.3 26.8 2.5z"/></svg>