<svg version="1.0" xmlns="http://www.w3.org/2000/svg" viewBox="0 0 536 582"><path d="M388 .9c-11.6 2.2-23.5 8.4-33.1 17.3-2.6 2.4-14 14.5-25.4 27L308.8 68H275c-37.6 0-50 .9-62.6 4.6-24.5 7.1-44.5 23.8-56.9 47.4-4.1 7.8-9.4 13.9-61 69.9L38 251.4V362.7l-9.3 9.9C16 386.2 11.3 392.3 7.4 400.4c-9.8 20.4-8.2 45.2 4.4 66.4 2.7 4.6 15.9 19.8 40.3 46.3 53.8 58.7 55.8 60.6 69.4 65.5 17.6 6.4 39.3 2.3 54.8-10.5 2.6-2.2 20.7-21.4 40.3-42.8l35.6-38.8 53.2-.6c58.8-.6 57.7-.5 72.6-7.5 10-4.7 17.2-10.4 24.2-19.2 5.8-7.4 12.6-20 14.9-28 .7-2.3 1.8-4.2 2.5-4.2.6 0 5.2-2 10.1-4.4 10.2-5.2 19.3-12.9 25.8-22.1 4.6-6.4 11.8-20.6 13.1-25.9.4-1.7 1.5-3.1 2.8-3.4 1.2-.3 6.1-2.6 11-5 15.5-7.7 28.5-23.2 35.3-42 5.4-15 5.6-16.3 6-67.9l.4-48.2-7.7-.3-7.7-.3 6.9-7.6c12.9-14.2 18.2-26.3 19.1-43.1.9-16-3.3-30.8-12.4-44.5-4.3-6.3-74.4-83.8-86.2-95.2-6.4-6.1-15-11.5-22.4-14.1-7-2.3-18.9-3.3-25.7-2.1zm12.7 56.9c3.6 2.9 79.5 85.5 81.4 88.7 2.6 4.2 2.4 7.8-.8 11.7-1.5 1.8-12.4 13.8-24.1 26.5L435.9 208H242.1l-.3 33.2c-.3 30.2-.5 33.6-2.2 36.8-4.2 8-10.5 12-20.1 12.8-9.1.7-16.2-1.7-21.2-7.1-6.9-7.5-6.8-6.3-6.8-63.7 0-46.8.2-52.1 1.8-58 5.9-20.7 18.8-33.6 37.1-36.9 3.7-.7 23.4-1.1 52.6-1.1h46.6l29.5-32.1c16.1-17.7 30.8-33 32.4-34 3.7-2.3 6.4-2.4 9.2-.1zM141.9 282c8.7 34.3 26.7 54.6 54.8 62.1 10.9 3 29.7 3 40.6 0 13.7-3.6 26.2-11.5 35.5-22.3 10.7-12.5 18.5-31.3 19.8-47.8.3-3.6.7-7.5 1-8.8l.4-2.2h179.2l-.4 18.2c-.3 16.3-.6 18.8-2.6 23.3-2.8 6.1-5.5 9-10.7 11.8-3.5 1.9-6.1 2.2-20.6 2.5l-16.7.4-.4 17.6c-.7 24-3 29.7-13.7 35-5.2 2.5-6.6 2.7-21.7 3l-16.2.4-.4 19.2c-.3 16.3-.6 19.6-2.2 22.6-2.6 4.9-5.5 7.9-10.1 10.3-3.9 2.2-4.9 2.2-65 2.7l-60.9.5-42.8 46.5c-23.6 25.6-44.1 47.2-45.8 48-2.8 1.3-3.4 1.2-6.3-.4-3.2-1.8-81.1-85.8-83.4-89.9-1.5-2.7-1.6-6.2-.2-8.8.5-1.1 8.9-10.6 18.5-21.1L89 385.7V274.4l25.3-27.5 25.2-27.4.6 29c.4 16.1 1.2 31 1.8 33.5z"/></svg>