<svg version="1.2" xmlns="http://www.w3.org/2000/svg" viewBox="0 0 512 512" width="100" height="100"><style></style><path fill-rule="evenodd" d="m12.9 0h134.2l2.4 2.5 2.5 2.4v251.1h20c19.1 0 20-0.1 19.1-1.8-0.5-1-1.7-2.5-2.6-3.2-2.3-1.9-7.9-12.5-10.1-19-1.8-5.1-1.9-9.6-1.9-63.5v-58l3.2-6.7c4-8.5 11.4-16.1 19.1-19.5 3.1-1.4 5.9-2.7 6.1-2.9 0.2-0.2-0.9-1.7-2.3-3.5-3.7-4.4-7.3-11.8-9.1-18.6-8.9-34 23.8-66.7 57.8-57.8 13.2 3.4 24.9 12.6 30.9 24.1l3.3 6.4h26.5v16h-23.6l-1 6.8c-1.3 7.9-5.1 17-9.5 22.5-1.7 2.1-2.9 4-2.8 4.1 0.2 0.2 3 1.5 6.1 2.9 7.7 3.4 15.1 11 19.1 19.5l3.2 6.7 0.6 57.4 161.4 0.6 6.7 3.2c3.7 1.7 8.7 5 11.2 7.3 5.6 5.2 11.2 16 12.1 23.5l0.7 5.5h5.5c4.4 0 5.8 0.5 7.8 2.5l2.5 2.4v70.2l-5 5-43-0.6v16.2c0 15.1 0.1 16.3 1.8 16.3 4.8 0 11.3 3.4 15.5 8 7 7.8 8.5 16.6 4.3 25.5-1.2 2.8-4 6.5-6.1 8.3l-3.7 3.3 2.3 1.7c1.3 0.9 5.5 4.5 9.2 8.1 37.2 35.6 31.3 95.8-12.1 124.2-24.9 16.3-57.8 17-83.7 1.7-8.1-4.8-19.8-15.7-25.2-23.5-2-2.9-4-5.3-4.3-5.3-0.4 0-1.4 0.7-2.1 1.7-0.8 0.9-3.6 2.7-6.4 3.9-4.3 2.1-6.6 2.4-16.8 2.4-11.2 0-11.9-0.1-14.2-2.5-2.4-2.3-2.5-2.9-2.5-16v-13.5h-129.5l-2.7 8.8c-12.2 39.5-55 63-95.8 52.6-25.8-6.5-47.5-27-55.6-52.4l-2.9-9h-14.3c-14 0-14.3 0-16.9-2.6-2.6-2.6-2.6-2.6-2-14.8 2.8-54.8 29-96.9 75.9-122.1l8.3-4.5h-79.6l-2.4-2.5c-2.5-2.4-2.5-2.6-2.5-21.5 0-18.9 0-19.1 2.5-21.5 1.3-1.4 3.1-2.5 4-2.5 1.3 0 1.5-13 1.5-125.5v-125.6l2.5-2.4zm43.1 16h-32v112h112v-112h-32v21.5c0 28.6 1.9 26.5-24 26.5-25.9 0-24 2.1-24-26.5zm32 0h-16v32h16zm144.5 0.9c-9.2 2.4-17.4 9.1-21.4 17.6-1.9 3.8-2.5 6.8-2.5 12.5-0.2 13.1-0.3 13.1 14.8-1.8l13.3-13.2h15.1c8.4 0 15.2-0.4 15.2-0.8 0-2-9-9.7-13.9-12-5.7-2.6-15.3-3.7-20.6-2.3zm39.7 31.1h-28.7l-11.9 11.9c-13.4 13.4-13.3 13.2-4.3 17.2 4.1 1.9 6.9 2.4 13.2 2.3 7.2 0 8.7-0.3 14.3-3.3 3.5-1.9 7.4-4.8 8.8-6.4 3.8-4.5 7.1-11.7 7.9-17zm-64.2 49.3c-5.2 1.7-13.3 10.2-14.9 15.7-0.9 3.4-1.1 17.7-0.9 58.5l0.3 54 3.2 6.7c4.4 9.3 10 15.1 19.1 19.6l7.6 3.7 40 0.5c36.6 0.5 40.4 0.7 43.9 2.4 4.9 2.4 11 9.5 12.5 14.4 0.9 2.8 1.2 19.4 1.2 57.6v53.6h5.5c5.4 0 5.5 0 7.6-4.3 2.9-5.7 7.2-11.9 13.6-19.9l5.4-6.6-0.3-49.4-0.3-49.3-3.2-6.7c-4.4-9.3-10-15.1-19.1-19.6l-7.5-3.7-43.2-1-6.7-3.2c-9.3-4.3-15.1-10-19.6-19.1l-3.7-7.6-0.6-57.6h16.1v25.6c0 17.2 0.4 27 1.2 29.8 1.6 5.5 9.9 13.8 15.4 15.4 3 0.9 18 1.2 55.1 1.2h51.1l-1.4-3.8c-0.7-2-1.3-5.7-1.3-8.2 0-2.5 0.6-6.2 1.3-8.3l1.4-3.7h-93.9l-2.4-2.5-2.5-2.4v-31.2c0-21.5-0.4-32.4-1.2-35.3-1.6-5.5-9.9-13.8-15.4-15.4-5.4-1.6-58.3-1.5-63.4 0.1zm-152 46.7h-32v112h112v-112h-32v21.5c0 28.6 1.9 26.5-24 26.5-25.9 0-24 2.1-24-26.5zm32 0h-16v32h16zm319.5 40.9c-4.5 2-7 6-7 11.2 0 4.2 0.5 5.3 3.3 8.1 2.8 2.8 3.9 3.3 8.2 3.3 4.3 0 5.4-0.5 8.2-3.3 2.8-2.8 3.3-3.9 3.3-8.2 0-4.2-0.5-5.4-3.1-8.1-3.3-3.3-9.2-4.6-12.9-3zm40.8-0.9h-11.1l1.5 4.2c3.1 8.8-0.6 22-7.9 28.4-3 2.6-7.9 5.2-13 6.8-1.7 0.5-1.8 3.7-1.8 49.2v48.7l5.3-0.7c2.8-0.3 10-0.6 16-0.6h10.7v-39.6l-4.6-4.9c-2.6-2.6-6-7.8-7.8-11.4-2.8-6-3.1-7.5-3.1-16.1 0-8.6 0.3-10.1 3.2-16.2 4.3-9.2 10.1-15.1 18.9-19.4 6.3-3.1 8.5-3.7 16.3-4.2 10.1-0.5 10-0.4 7.9-7.6-1.6-5.5-9.9-13.8-15.4-15.4-2.3-0.7-9.1-1.2-15.1-1.2zm-48.3 40h-24c-23 0-24 0.1-23.1 1.8 0.5 1 1.7 2.4 2.5 3.1 2.3 1.9 7.3 11 9.8 17.8 2.1 5.5 2.2 7.7 2.8 49.5l0.5 43.8 3-2.1c4.8-3.2 17.6-9.5 23.3-11.3l5.2-1.8zm96 0l-14.2 0.1c-7.9 0.1-15.9 0.6-17.8 1.2-1.9 0.6-5.8 3.4-8.5 6.2-7.1 7-9.1 14.5-6.3 23.9 1.6 5.5 9.9 13.8 15.4 15.4 2.4 0.7 10 1.2 17.8 1.2h13.6zm-336 48h-144v16h144zm139.1 0h-123.1v13.5c0 13.1 0.1 13.7 2.5 16l2.4 2.5h51.2c37.2 0 52.3-0.3 55.3-1.2 5.5-1.6 13.8-9.9 15.4-15.4 1.9-6.4 1.5-10.2-1.3-12.9zm-140 32.1c-34.9 1.9-65 11-89.1 27.2-9.8 6.5-25.3 22.1-32 32.1-11.7 17.5-19 38.7-21.5 62.3l-0.6 6.3h303.8l0.7-8.4c0.4-4.5 1.5-11.7 2.5-16l1.8-7.6h-47.8l-2.4-2.5-2.5-2.4v-75.1h-45.6c-32.1 0-46.8-0.3-49.6-1.2-4.8-1.4-12.1-7.6-13.8-11.8-1-2.3-1.8-3-3.9-2.9zm144.7 7.9c-0.2 0-2.1 1.2-4.3 2.5-2.2 1.4-5.7 3-7.7 3.7l-3.8 1.1v64.7h16v-36c0-19.8-0.1-36-0.2-36zm163.3 24l-22.3 0.1c-27.8 0.1-36.7 1.6-52.7 8.6-20 8.9-39.4 28.8-48.2 49.4-6.2 14.6-7.2 20.2-7.7 46.1l-0.4 23.8h5.5c3.9 0 6.2-0.5 7.8-1.9 2.3-1.9 2.4-2.4 3-22.8 0.8-26.3 3.2-35.9 12.9-50.6 11.2-17.3 26.7-28.3 48-34.4 4-1.2 12.3-1.8 30.3-2.2 24.6-0.6 24.9-0.6 26.8-3 2.6-3.2 2.4-7.7-0.6-10.6zm-64.1 39.2c-21 10.5-35 33.2-35 56.8 0 27.5 18.8 52.8 45.5 61.3 9.9 3.1 27.1 3.1 37 0 19.9-6.3 36.5-22.9 42.8-42.8 3.1-9.9 3.1-27.1 0-37-6.9-21.7-26.2-39.5-47.8-44-14.7-3.1-28.8-1.2-42.5 5.7zm-327.5 72.8h-25.4l1 3.2c2.3 8.4 8.5 18.4 16 25.9 24.9 25.1 64.8 25.1 89.9-0.1 7.4-7.4 13.6-17.4 15.9-25.8l1-3.2h-25.4l-2.4 4.5c-3.3 6.2-9.9 12.1-17.9 15.8-6.1 2.9-7.6 3.2-16.2 3.2-8.6 0-10.1-0.3-16.2-3.2-8-3.7-14.6-9.6-17.9-15.8zm54 0.1h-35l3.3 2.8c7.8 6.7 20.6 6.7 28.4 0z"/><path fill-rule="evenodd" d="m40 96h32v16h-32zm0 128h32v16h-32zm394.2 168.4c14.8 0.7 26.8 8.8 33.6 22.4 3.5 7.2 3.7 8.1 3.7 17.2 0 9.1-0.2 10-3.7 17.2-4.5 9.1-10.3 14.7-19.6 19.1-6.1 2.9-7.6 3.2-16.2 3.2-8.6 0-10.1-0.3-16.2-3.2-9.3-4.4-15.1-10-19.6-19.1-3.5-7.2-3.7-8.1-3.7-17.1 0-8.7 0.3-10.2 3.2-16.3 1.7-3.7 5-8.7 7.2-11.1 4.4-4.7 13.4-10.1 19.7-11.7 2.2-0.5 7.4-0.8 11.6-0.6zm-18.7 23.1c-5.2 5.1-7.5 10.2-7.5 16.5 0 12.4 11.6 24 24 24 12.4 0 24-11.6 24-24 0-9.2-8-20.2-16.6-22.8-9.4-2.7-16.9-0.8-23.9 6.3z"/></svg>