<svg version="1.0" xmlns="http://www.w3.org/2000/svg" width="682.667" height="682.667" viewBox="0 0 512 512"><path d="M10.5 2.5 8 4.9v125.6C8 243 7.8 256 6.5 256c-.9 0-2.7 1.1-4 2.5C0 260.9 0 261.1 0 280s0 19.1 2.5 21.5l2.4 2.5h79.6l-8.3 4.5C29.3 333.7 3.1 375.8.3 430.6c-.6 12.2-.6 12.2 2 14.8 2.6 2.6 2.9 2.6 16.9 2.6h14.3l2.9 9c8.1 25.4 29.8 45.9 55.6 52.4 40.8 10.4 83.6-13.1 95.8-52.6l2.7-8.8H320v13.5c0 13.1.1 13.7 2.5 16 2.3 2.4 3 2.5 14.2 2.5 10.2 0 12.5-.3 16.8-2.4 2.8-1.2 5.6-3 6.4-3.9.7-1 1.7-1.7 2.1-1.7.3 0 2.3 2.4 4.3 5.3 5.4 7.8 17.1 18.7 25.2 23.5 25.9 15.3 58.8 14.6 83.7-1.7 43.4-28.4 49.3-88.6 12.1-124.2-3.7-3.6-7.9-7.2-9.2-8.1l-2.3-1.7 3.7-3.3c2.1-1.8 4.9-5.5 6.1-8.3 4.2-8.9 2.7-17.7-4.3-25.5-4.2-4.6-10.7-8-15.5-8-1.7 0-1.8-1.2-1.8-16.3v-16.2l21.5.3 21.5.3 2.5-2.5 2.5-2.5v-70.2l-2.5-2.4c-2-2-3.4-2.5-7.8-2.5h-5.5l-.7-5.5c-.9-7.5-6.5-18.3-12.1-23.5-2.5-2.3-7.5-5.6-11.2-7.3l-6.7-3.2-80.7-.3-80.7-.3-.3-28.7-.3-28.7-3.2-6.7c-4-8.5-11.4-16.1-19.1-19.5-3.1-1.4-5.9-2.7-6.1-2.9-.1-.1 1.1-2 2.8-4.1 4.4-5.5 8.2-14.6 9.5-22.5l1-6.8H312V32h-26.5l-3.3-6.4c-6-11.5-17.7-20.7-30.9-24.1-34-8.9-66.7 23.8-57.8 57.8 1.8 6.8 5.4 14.2 9.1 18.6 1.4 1.8 2.5 3.3 2.3 3.5-.2.2-3 1.5-6.1 2.9-7.7 3.4-15.1 11-19.1 19.5l-3.2 6.7v58c0 53.9.1 58.4 1.9 63.5 2.2 6.5 7.8 17.1 10.1 19 .9.7 2.1 2.2 2.6 3.2.9 1.7 0 1.8-19.1 1.8h-20V4.9l-2.5-2.4-2.4-2.5H12.9l-2.4 2.5zm45.5 35C56 66.1 54.1 64 80 64s24 2.1 24-26.5V16h32v112H24V16h32v21.5zM88 32v16H72V16h16v16zm165.1-12.8c4.9 2.3 13.9 10 13.9 12 0 .4-6.8.8-15.2.8h-15.1l-13.3 13.2c-15.1 14.9-15 14.9-14.8 1.8 0-5.7.6-8.7 2.5-12.5 4-8.5 12.2-15.2 21.4-17.6 5.3-1.4 14.9-.3 20.6 2.3zm18.4 33.5c-.8 5.3-4.1 12.5-7.9 17-1.4 1.6-5.3 4.5-8.8 6.4-5.6 3-7.1 3.3-14.3 3.3-6.3.1-9.1-.4-13.2-2.3-9-4-9.1-3.8 4.3-17.2L243.5 48H272.2l-.7 4.7zm-.1 44.5c5.5 1.6 13.8 9.9 15.4 15.4.8 2.9 1.2 13.8 1.2 35.3v31.2l2.5 2.4 2.4 2.5h93.9l-1.4 3.7c-.7 2.1-1.3 5.8-1.3 8.3 0 2.5.6 6.2 1.3 8.2l1.4 3.8h-51.1c-37.1 0-52.1-.3-55.1-1.2-5.5-1.6-13.8-9.9-15.4-15.4-.8-2.8-1.2-12.6-1.2-29.8V136h-16.1l.3 28.8.3 28.8 3.7 7.6c4.5 9.1 10.3 14.8 19.6 19.1l6.7 3.2 21.6.5 21.6.5 7.5 3.7c9.1 4.5 14.7 10.3 19.1 19.6l3.2 6.7.3 49.3.3 49.4-5.4 6.6c-6.4 8-10.7 14.2-13.6 19.9-2.1 4.3-2.2 4.3-7.6 4.3H320v-53.6c0-38.2-.3-54.8-1.2-57.6-1.5-4.9-7.6-12-12.5-14.4-3.5-1.7-7.3-1.9-43.9-2.4l-40-.5-7.6-3.7c-9.1-4.5-14.7-10.3-19.1-19.6l-3.2-6.7-.3-54c-.2-40.8 0-55.1.9-58.5 1.6-5.5 9.7-14 14.9-15.7 5.1-1.6 58-1.7 63.4-.1zM56 165.5c0 28.6-1.9 26.5 24 26.5s24 2.1 24-26.5V144h32v112H24V144h32v21.5zm32-5.5v16H72v-32h16v16zm332.4 27.9c2.6 2.7 3.1 3.9 3.1 8.1 0 4.3-.5 5.4-3.3 8.2-2.8 2.8-3.9 3.3-8.2 3.3-4.3 0-5.4-.5-8.2-3.3-2.8-2.8-3.3-3.9-3.3-8.1 0-5.2 2.5-9.2 7-11.2 3.7-1.6 9.6-.3 12.9 3zm43-2.7c5.5 1.6 13.8 9.9 15.4 15.4 2.1 7.2 2.2 7.1-7.9 7.6-7.8.5-10 1.1-16.3 4.2-8.8 4.3-14.6 10.2-18.9 19.4-2.9 6.1-3.2 7.6-3.2 16.2s.3 10.1 3.1 16.1c1.8 3.6 5.2 8.8 7.8 11.4l4.6 4.9V320h-10.7c-6 0-13.2.3-16 .6l-5.3.7v-48.7c0-45.5.1-48.7 1.8-49.2 5.1-1.6 10-4.2 13-6.8 7.3-6.4 11-19.6 7.9-28.4l-1.5-4.2h11.1c6 0 12.8.5 15.1 1.2zM400 274.4v50.4l-5.2 1.8c-5.7 1.8-18.5 8.1-23.3 11.3l-3 2.1-.5-43.8c-.6-41.8-.7-44-2.8-49.5-2.5-6.8-7.5-15.9-9.8-17.8-.8-.7-2-2.1-2.5-3.1-.9-1.7.1-1.8 23.1-1.8h24v50.4zm96-26.4v24h-13.6c-7.8 0-15.4-.5-17.8-1.2-5.5-1.6-13.8-9.9-15.4-15.4-2.8-9.4-.8-16.9 6.3-23.9 2.7-2.8 6.6-5.6 8.5-6.2 1.9-.6 9.9-1.1 17.8-1.2l14.2-.1v24zm-336 32v8H16v-16h144v8zm141.5-5.5c2.8 2.7 3.2 6.5 1.3 12.9-1.6 5.5-9.9 13.8-15.4 15.4-3 .9-18.1 1.2-55.3 1.2h-51.2l-2.4-2.5c-2.4-2.3-2.5-2.9-2.5-16V272h123.1l2.4 2.5zM163 307c1.7 4.2 9 10.4 13.8 11.8 2.8.9 17.5 1.2 49.6 1.2H272v75.1l2.5 2.4 2.4 2.5h47.8l-1.8 7.6c-1 4.3-2.1 11.5-2.5 16l-.7 8.4H15.9l.6-6.3c2.5-23.6 9.8-44.8 21.5-62.3 6.7-10 22.2-25.6 32-32.1 24.1-16.2 54.2-25.3 89.1-27.2 2.1-.1 2.9.6 3.9 2.9zm141 41v36h-16V319.3l3.8-1.1c2-.7 5.5-2.3 7.7-3.7 2.2-1.3 4.1-2.5 4.3-2.5.1 0 .2 16.2.2 36zm165.5-9.5c3 2.9 3.2 7.4.6 10.6-1.9 2.4-2.2 2.4-26.8 3-18 .4-26.3 1-30.3 2.2-21.3 6.1-36.8 17.1-48 34.4-9.7 14.7-12.1 24.3-12.9 50.6-.6 20.4-.7 20.9-3 22.8-1.6 1.4-3.9 1.9-7.8 1.9h-5.5l.4-23.8c.5-25.9 1.5-31.5 7.7-46.1 8.8-20.6 28.2-40.5 48.2-49.4 16-7 24.9-8.5 52.7-8.6l22.3-.1 2.4 2.5zm-24 31c21.6 4.5 40.9 22.3 47.8 44 3.1 9.9 3.1 27.1 0 37-6.3 19.9-22.9 36.5-42.8 42.8-9.9 3.1-27.1 3.1-37 0-26.7-8.5-45.5-33.8-45.5-61.3 0-23.6 14-46.3 35-56.8 13.7-6.9 27.8-8.8 42.5-5.7zm-367.6 83c3.3 6.2 9.9 12.1 17.9 15.8 6.1 2.9 7.6 3.2 16.2 3.2s10.1-.3 16.2-3.2c8-3.7 14.6-9.6 17.9-15.8l2.4-4.5h25.4l-1 3.2c-2.3 8.4-8.5 18.4-15.9 25.8-25.1 25.2-65 25.2-89.9.1-7.5-7.5-13.7-17.5-16-25.9l-1-3.2h25.4l2.4 4.5zm48.3-1.6c-7.8 6.7-20.6 6.7-28.4 0l-3.3-2.8h35l-3.3 2.8z"/><path d="M40 104v8h32V96H40v8zM40 232v8h32v-16H40v8zM422.6 393c-6.3 1.6-15.3 7-19.7 11.7-2.2 2.4-5.5 7.4-7.2 11.1-2.9 6.1-3.2 7.6-3.2 16.3 0 9 .2 9.9 3.7 17.1 4.5 9.1 10.3 14.7 19.6 19.1 6.1 2.9 7.6 3.2 16.2 3.2s10.1-.3 16.2-3.2c9.3-4.4 15.1-10 19.6-19.1 3.5-7.2 3.7-8.1 3.7-17.2s-.2-10-3.7-17.2c-6.8-13.6-18.8-21.7-33.6-22.4-4.2-.2-9.4.1-11.6.6zm16.8 16.2c8.6 2.6 16.6 13.6 16.6 22.8 0 12.4-11.6 24-24 24s-24-11.6-24-24c0-6.3 2.3-11.4 7.5-16.5 7-7.1 14.5-9 23.9-6.3z"/></svg>