<svg version="1.0" xmlns="http://www.w3.org/2000/svg" width="942.667" height="1014.667" viewBox="0 0 707 761"><path d="M330 10.1c-14.2 1.7-25.1 9.6-31.3 22.6-3 6.3-3.2 7.5-3.2 17.3 0 12.4 1.6 16.2 9.2 23 5.1 4.5 20.6 12.4 31.3 15.9 15.1 4.9 21.4 4.5 27.5-1.8 3.3-3.4 8.5-11.3 8.5-13 0-.4-3.3-1.7-7.2-3-10.6-3.4-20.7-8.9-22.9-12.5-1.1-1.7-1.9-5-1.9-7.3 0-5.1 0-5.1 20.6-5.5l15.1-.3-.9-4c-4.6-20.6-23.5-33.9-44.8-31.4zM381 21.5c0 .4 1.6 3.2 3.5 6.3 2.6 4.3 6 13.9 7 19.9 0 .1 5.4.9 12 1.8 54.1 7.4 106.9 31.4 152.2 69.3 21 17.5 32.1 29.5 48.4 52.4 26 36.3 44 74.7 54.3 115.3 3.1 12.5 7.6 42.6 8.7 59.2 3.2 48.3-7.9 102.6-29.8 145-14 27.1-38.2 60.1-57.7 78.5l-7.1 6.8h38l4.1-4.8c7.3-8.5 22.8-29.7 29.8-40.8 27.8-43.9 42.7-87.7 47.7-140.4 1.3-14.1.7-56.1-1.1-70-5.5-42.6-18.2-81.3-39.9-121.7-16.9-31.7-35.2-56.5-59.6-80.9C573.1 99 562.9 90.7 538 73.8c-36.3-24.5-82.4-42.3-129-49.7-15.3-2.4-28-3.6-28-2.6zM283.5 22.7c-5.8.8-30.4 8.3-47.1 14.4-17.7 6.3-51.9 22.4-63.9 30-12.3 7.7-24.8 16.7-31.3 22.4l-6.3 5.5 13.8.1c7.6 0 16.1.4 18.8.8 5 .9 5.1.8 17.5-6.6 26.7-15.9 67.1-33 88.5-37.4l6.1-1.2 1.2-7.3c.6-4 2.5-10.3 4.2-14 3.3-7.3 3.3-7.5 2.3-7.3-.5.1-2.1.4-3.8.6z"/><path d="M295.5 85.4c-9.2 4.5-17 13.4-21.7 24.8-5.6 13.5-16 41.2-21.6 57.3-4.7 13.6-5.5 17-5.5 23 .1 18.7 14.2 33.9 33.5 36.3 4.4.6 22.1.8 40.8.4l33-.5V305h37v-48.6c0-53.9.2-52.4-6.6-58.4-7.9-6.9-7.7-6.8-43.2-7.1-17.7-.2-32.2-.6-32.2-1 0-.3 2.5-6.8 5.6-14.4l5.6-13.7-14-13.4c-7.8-7.4-14.3-14.3-14.7-15.3-.6-1.9 2.1-10.1 3.4-10.1.3 0 1.2 1.2 1.8 2.8 1.3 2.8 39.7 40.5 44.6 43.7 2.7 1.7 4.5 1.8 30 1 15-.5 30.8-.8 35.2-.6 7 .2 8.5-.1 11.5-2.1 7.7-5.2 10.3-14.3 6-21.3-3.8-6.2-4.9-6.3-40.5-5.6l-31.9.7-8.8-8.7c-4.8-4.8-13.7-12.4-19.8-17-6-4.5-11-8.7-11-9.2s1.9-.7 4.4-.5c3.3.4 6.3 1.9 11.8 5.8 4 2.9 7.6 5.8 8.1 6.4.9 1.5 2-.3 5.3-8.6 1.5-3.7 2.4-7.3 2.1-8.1-.3-.8-2.1-1.8-3.9-2.2-4.3-.9-20.3-7.7-29.8-12.6-4.2-2.1-8-3.9-8.5-3.9-.6 0-3.2 1.1-6 2.4zM44.5 102c-1.5 1.7-1.6 2-.3 2 .9 0 1.9-.7 2.2-1.6 1-2.5.1-2.7-1.9-.4zM40.5 108.5c-1.9 2.4-1.3 6 1.8 9.3l2.1 2.2 106.5-.2 106.4-.3 1.2-5c.6-2.8 1.5-5.6 1.9-6.3.9-1.5 2.3-1.4-123.6-1.6-93.5-.1-94.6-.1-96.3 1.9zM52.3 127.9c-1.3 3.2-2.3 6.1-2.3 6.5 0 .4 1.7.6 3.7.4 3.6-.3 3.8-.5 4.5-4.8.5-2.8 1.6-5.1 3-6.2 2.3-1.7 2.3-1.8-2.2-1.8h-4.5l-2.2 5.9z"/><path d="M443.5 128.1c-7.3 1-16 3.2-18.5 4.8-1.2.8-.8 1.6 2.3 4.4 13.2 12.1 8.9 34.2-7.8 40l-3.5 1.2 8.6 15c4.7 8.3 11.1 19.9 14.2 25.8 4.8 9.5 5.6 11.6 6 18.1.6 9.9-.9 16.2-7.2 28.5-12.1 24.2-22.9 38.2-33.1 43-4.4 2.1-7.2 2.4-27.5 3.3-12.4.5-28.3.8-35.5.6-11.9-.3-13.5-.6-18.5-3.1-6.7-3.4-11.3-7.7-14.8-13.7-5.8-9.8-1.9-23.2 10.2-35.3l6.3-6.3-74.8.2-74.8.2-3.8 2.3c-11.8 7.1-23.8 18.8-32.1 31.2-7.1 10.6-7.1 10.4.1 11.1 3.4.3 13.6.8 22.7 1.2 20.5.7 40.8 3.6 52.4 7.5 8.5 2.8 20.9 9 22.2 11 .3.5 3.7 2.5 7.5 4.4 9.3 4.7 17.6 10 22.5 14.5 2.2 2 6.2 5 8.8 6.5l4.8 2.8 63.7-.2c69.8-.2 71.8-.4 83.2-6.2 7.6-3.8 15.7-11.9 21.4-21.3 2.2-3.7 8.5-13.1 14.1-21 20.3-28.7 25.1-37.1 27.9-49.1 2.3-9.7 1.9-15-1.5-21.1-7.7-13.7-28-41.3-33.6-45.7-1.3-1-2.4-2.7-2.4-3.8 0-1.6.7-1.9 4.3-2 5.2 0 13-1 13.7-1.6.8-.8.5-42.5-.3-45.6l-.7-2.7-9.8.1c-5.3.1-12.8.6-16.7 1zM45.3 136.8l-15.3.3v4.4c0 3.2.6 5.1 2 6.5 2 2 3.3 2 107.3 2h105.2l2-6.4 2-6.4-64-.7c-57.5-.6-93.4-.6-139.2.3zM35.3 154.2c-2.5 2.8-5.6 8.8-4.9 9.5 1.1 1.1 4.7-1 6-3.5 2-3.7 5.6-6.9 8.6-7.5 1.4-.2.2-.5-2.6-.6-4.1-.1-5.4.3-7.1 2.1zM34.9 166c-6 .3-10.2 1-11.3 1.9-2.2 1.8-2 6.1.5 9.1l2.1 2.5h209.2l1.7-6.8 1.7-6.7-71.2-.2c-115.9-.3-122.7-.3-132.7.2zM52.9 199.1C36.2 228.4 23.7 263.6 17.1 300c-4.5 24.4-5.5 36.2-5.5 60 .2 53.9 8.1 91.3 29.4 138 18.1 39.8 53.2 88.1 84.5 116.4 19.5 17.6 33.9 28.1 59 43.3 10.4 6.3 32.5 17.7 33.1 17.1.1-.2.4-6.3.5-13.6l.1-13.3-14.3-8.3c-29.4-16.8-48.6-31.2-69.4-52.1-27.3-27.3-53.5-64.3-69.1-97.3-13-27.7-20.1-51.4-26.1-87.7-2.5-15.5-2.5-59.4 0-77.9 6-43.2 17.2-78.9 35.5-113.1 3.2-6.1 7-12.8 8.3-15 1.4-2.2 2.9-4.6 3.3-5.3.7-1.1-1.9-1.3-13.9-1l-14.6.3-5 8.6z"/><path d="M180.8 232.2c-.2 7.2.1 13.2.5 13.5.5.3 32.2.3 70.5.2 38.3-.2 70.7 0 72 .4 2.1.8 2.2.6 2.2-4.5v-5.3h-25.7c-24.5 0-26.2-.1-32.6-2.3-7.3-2.6-15.6-7.7-19.7-12.1l-2.6-2.8H181.1l-.3 12.9zM95.7 224.8c-2.2 2.4-2.1 5.4.2 8.3 1.9 2.4 1.9 2.4 27.4 2.7 14 .2 28.9.1 33-.3l7.5-.7.5-4.1c1.1-8.1 2.8-7.7-34.2-7.7-30.5 0-32.9.1-34.4 1.8zM107 251.9c-1.5 2.9-1.2 5.6.9 8.2 1.9 2.4 2.1 2.4 22.3 2.4h20.3l2.4-4.8c3.8-7.7 3.7-7.7-22.5-7.7-21.1 0-22.4.1-23.4 1.9zM496.5 259.6c-3.9 9.8-5.5 12.6-12.9 22.9-21.7 30.3-23.8 33.6-24.9 40.2-2 11.4 1.8 23.4 11 34.7 6.7 8.3 15.4 14 26.4 17.3 4.9 1.5 8.9 3.1 8.9 3.5 0 1-6.4.4-14.5-1.4-10.2-2.2-92.3-1.9-90.9.3.3.5 2.3 1.8 4.5 3 2.2 1.1 5.7 3.6 7.9 5.5l3.8 3.5 47.9.5c26.3.3 48.9.5 50.3.6 1.4.1 22.8-.4 47.5-1 44.1-1.1 63-2.3 66.7-4.3 1.9-1 3.5-5.5 2.3-6.7-1.1-1.1-45.8-2.3-74.8-2-14.7.2-26.6-.1-26.4-.5.1-.5 2.7-1.8 5.7-3.1 20.1-8.1 33.4-29.3 31.7-50.6-.7-8.3-3.9-20.8-6.5-25.3-1.7-2.8-1.9-2.8-8.2-2.3-3.6.3-10.7.8-15.8 1.2l-9.3.6 5.1 5.4c6.1 6.4 9 12.6 9.7 20.4 1.1 12.2-5 22.8-16.3 28.5-18.4 9.2-40.7-4-42.2-24.9-.9-12.4 3.9-22.3 14.1-29.1 9.9-6.5 13.9-7.4 41.6-8.6 18.2-.8 25.5-.7 27 .1 4.6 2.4 2-2.4-5.1-9.4-14.2-14.1-30-20.8-52.9-22.3l-9.9-.6-1.5 3.9zM90.5 301c-11.6.3-21.6.9-22.2 1.3-1.8 1.2-1.6 7.3.3 9.1 1.3 1.4 4.8 1.6 22.7 1.6 11.7 0 22.2-.3 23.5-.6 2-.6 2.2-1.3 2.2-6.5 0-5.8 0-5.9-2.7-5.7-1.6.1-12.2.5-23.8.8z"/><path d="M509.6 308.1c-3.9 1.1-6.5 3.7-8.7 8.4-2.4 5.2-2.4 9.6 0 14.3 4.5 8.7 16.6 9.9 22.1 2.2 3-4.3 3.6-10 1.6-15.3-2.9-7.7-8.8-11.4-15-9.6zM154.6 311.1c-1.1 5.8-.6 19 1 25.3 4.9 19 19.1 33.4 38.7 39.1 3.1.9 5.7 2.1 5.7 2.6 0 1.2-1.8 1.2-12.7-.7-8-1.4-16.9-1.6-59.7-1.3-53.2.4-53.6.5-53.6 5 0 1.1.8 2.7 1.8 3.7 2.8 2.8 24 4.1 81.9 5.1 27.1.5 49.6 1.1 50 1.4.4.3 9.6-.1 20.3-.9 13.3-1 34.3-1.4 65.7-1.3l46.2.2 3.5-3.1c1.9-1.7 6.4-4.7 10-6.7 3.6-2 6.6-3.8 6.6-3.9 0-.2-64 .2-109.7.7-14.5.1-26.3-.1-26.3-.5 0-.5 1.2-1.3 2.8-1.9 11.4-4.2 22.9-14 28.2-24l3.3-6.2-2.9-2.4c-1.6-1.3-6.4-4.5-10.7-7.3l-7.7-4.9-2.8 6.2c-5.4 11.7-14.8 18.1-26.7 18.1-11.3 0-20.6-5.7-25.6-15.9-2.6-5.2-3.1-7.5-3-13.2 0-3.7.5-8.3 1-10.2.6-1.9 1-3.6.8-3.7-.3-.3-21.4-2.4-23.7-2.4-1.2 0-2 1.1-2.4 3.1z"/><path d="M198.4 313.7c-1.8 1.3-4.4 7-4.4 9.8 0 5.8 6.1 13.7 11.7 15.1 6 1.6 14.7-6 16-13.8l.5-3.6-7.4-3.7c-7.5-3.7-14.3-5.3-16.4-3.8zM72 328.1c-1.6 2.8-.5 6.5 2.4 8.4 1.9 1.3 6.7 1.5 31.7 1.3l29.4-.3.3-5.8.3-5.7h-31.5c-31 0-31.5 0-32.6 2.1zM369.4 388.1c-13.9 7.2-19.4 14.6-20.2 26.6l-.5 7.5-16.6-.7-16.6-.7v40.7l63.2.1 63.1.1v-20.5l.1-20.5-16.3.6-16.3.7-.5-7.8c-.4-6.9-.9-8.6-4.2-14-4.2-7-10-11.6-17-13.7-7.5-2.2-11.7-1.9-18.2 1.6z"/><path d="M280.5 428c-21.1.4-24.4.7-27.5 2.4-5.9 3.2-10 6.7-13.1 11.3-6.3 9.1-5.9 0-6.2 146.7l-.2 134.1 2.9 5.8c3.3 6.5 10.1 13.3 16.7 16.9l4.4 2.3 121.5.3c136.9.3 126.4.9 136-7.5 3.4-3.1 6.1-6.8 8.7-12.1l3.8-7.6V451.5l-3.4-6.3c-1.9-3.5-5.6-8.2-8.2-10.6-7.5-6.8-11.5-7.6-36.4-7.6-11.7 0-22.7.3-24.4.6l-3.1.6v21.5l25.5.5c14 .2 25.8.8 26.2 1.2.9.9 1.7 265.8.8 269.3-.3 1.5-1.7 2.5-4.3 3.2-5.1 1.5-234.3 1.5-239.4 0-2.6-.7-4-1.7-4.3-3.2-.3-1.2-.5-61.5-.3-133.9l.3-131.7 2.3-2.3c2.2-2.2 2.9-2.3 24.8-2.6l22.5-.3-.7-11.2c-.4-6.2-.7-11.2-.8-11.2 0 0-10.9.2-24.1.5z"/><path d="M334.4 473.2c-14.8 11.4-32.6 29.4-34.7 35-.4 1-.8 1-2.3.1-5.4-3.6-7.7-4.4-8.7-3.4-1.8 1.8-2.9 1.3-1.7-.8.5-1.1 1-3.1 1-4.5 0-2.5.1-2.6 7.1-2.6h7l5.5-5.2c5.2-4.9 5.4-5.3 3.2-5.8-1.3-.3-9.6-.4-18.6-.2l-16.2.4.2 24.6.3 24.7 24.8-.1c13.7 0 25.2-.5 25.7-1s1.2-9.2 1.6-19.4l.6-18.5-5.7 5.6c-5.9 5.8-7.4 9.3-7.5 17.9v3.5l-5.5-.3c-4.7-.3-6.1 0-8.8 2.1-3 2.3-3.4 2.3-5.7.9-3.2-2.1-17.4-14.2-17.8-15.3-.2-.5.5-1.2 1.5-1.5 1-.3 2.6-1 3.6-1.5 2.4-1.3 3.4-.4 1.8 1.5-1 1.2.1 2.5 5.9 7.3 3.9 3.2 7.4 5.9 7.8 6 .4.1 3.9-3.4 7.7-7.7 3.9-4.4 11.4-12.8 16.8-18.7C338.1 480 343 474 343 472.4c0-2.2-5.3-1.7-8.6.8zM348.3 512l-.1 8 14.1.2c7.8.1 37.7.2 66.4.3H481v-7.6c0-6.1-.3-7.8-1.6-8.3-.9-.3-30.7-.6-66.2-.6h-64.7l-.2 8zM338.4 531.9c-6.3 4.6-36 34.4-36.8 36.9-.6 1.7-1.3 2.2-2.4 1.7-6.7-2.8-7.5-2.8-8.9-1-2.5 3.5-1.5 5.9 4.4 11l5.6 4.9 3.1-3.8c3-3.8 8.2-9.5 29.1-32.1 11.5-12.4 13.5-15.1 13.5-18.3 0-3.1-2.8-2.9-7.6.7z"/><path d="M276 575.1v25.1l25.2-.6c13.8-.3 25.6-1 26.1-1.5s1.1-9.4 1.4-19.7l.5-18.9-5.8 5.7-5.8 5.7-.6 8.3-.5 8.3-3.5-.3c-1.9-.1-5.8.3-8.7 1.1-4.2 1.1-5.5 1.1-7.5.1-1.2-.7-3.7-1.3-5.3-1.4-2.8 0-3.2-.5-4.4-4.7-.8-2.5-2.2-5.4-3.3-6.5-1.4-1.4-1.5-1.8-.3-1.8 1.9 0 3.3-2.7 4.1-7.9l.7-4.1h6.8c6.2 0 7.1-.3 10.4-3.1 1.9-1.7 4.5-4.4 5.6-6l2-2.9H276v25.1zM376 561.1c-10.2.4-20.6.7-23.2.8l-4.7.1.2 8 .2 8h132.6l-.3-7.7-.3-7.8-4-.6c-6-1-79.2-1.5-100.5-.8z"/><path d="M342.3 593.7c-3.1.6-36.9 32.8-40 38-1.4 2.4-2.9 4.3-3.4 4.3s-2.9-1.6-5.5-3.5c-2.5-1.9-5.1-3.5-5.8-3.5-.9 0-1.2-.9-.8-2.6.4-2.5.7-2.6 4.8-2 2.4.3 5.5.8 6.9 1.2 2 .5 3.5-.4 8.5-5.2 3.3-3.1 6-6.1 6-6.6 0-.4-8.3-.8-18.5-.8H276v10.5c0 5.8.1 10.5.3 10.5.2 0 2.1-.9 4.3-1.9 2.1-1.1 4-1.8 4.2-1.7.1.2-.2 1.4-.7 2.8-.8 2.2-.1 3.2 7 10.3l8 7.8 2.6-2.4c1.4-1.3 3.7-4.3 5.2-6.6 1.4-2.3 9.4-11.3 17.7-20 16.7-17.5 21.4-23.5 21.4-27 0-1.2-.3-2.2-.7-2.2-.5.1-1.8.4-3 .6zM365.3 619.7l-17.3.3v16.5l66.5-.3 66.5-.2v-7.4c0-5.5-.4-7.5-1.4-7.9-1.9-.7-91.6-1.5-114.3-1z"/><path d="M322.8 629.8c-6.1 6.3-6.8 7.9-6.8 15.6v6.6h-5.7c-4.1 0-6.5.6-8.2 1.9-2.4 1.8-2.5 1.8-6.5-1-2.3-1.5-7-5.7-10.5-9.3-3.6-3.6-6.8-6.6-7.1-6.6-1.3 0-2 5.9-2 15.5v9.2l25.6.7c14.2.3 25.9.4 26.2.2.4-.5.3-36.8-.2-37.3-.1-.1-2.3 1.9-4.8 4.5z"/></svg>