<svg version="1.0" xmlns="http://www.w3.org/2000/svg" width="100pt" height="100pt" viewBox="0 0 100 100"><path d="M3.4 1.8C.3 3.8 0 7.2 0 38.8 0 78.6-1.1 76 15.1 76c6 0 10.9.3 10.9.6 0 .4-1 2.3-2.1 4.4-3.7 6.6-3 7 13.7 7h14.8l2.7 3.2c2.5 3 3 3.2 4.9 2 2.8-1.7 7.4.4 7.8 3.6.3 2 .9 2.2 5.8 2.2 5 0 5.4-.2 5.4-2.4 0-3.1 5.2-5.5 7.5-3.6 1.3 1.1 2.1.8 5-2 3.5-3.4 4.3-5.8 2.5-7.6-1.6-1.6 1-7.3 3.5-7.6 1.8-.3 2-1 2-6.3s-.2-6-2-6.3c-2.5-.3-5.1-6-3.5-7.6 1.6-1.6 1.2-4.1-1-6.1-1.9-1.7-2-3.1-2-23.2 0-20-.1-21.4-2-23.3-1.9-1.9-3.3-2-43.2-2-22.7 0-41.8.4-42.4.8zm83.4 3.4c.8.8 1.2 6.7 1.2 20.2 0 16.1-.2 19.2-1.6 20.7-1.5 1.7-1.9 1.7-4.5.3-2-1-2.9-2.2-2.9-3.9 0-2.2-.4-2.5-4-2.5h-4V26.9c0-7.2-.5-13.9-1-15-1-1.8-2.4-1.9-23.9-1.9-18.2 0-23.1.3-24 1.4-.8.9-1.1 8.1-.9 23.7l.3 22.4 15.3.3c15.1.2 15.3.3 15 2.4-.2 1.4-1.3 2.5-2.8 2.9-1.4.4-12.3.7-24.2.8L3 64V35.6c0-24.5.2-28.7 1.6-30C5.9 4.2 11.1 4 45.9 4c29.5 0 40 .3 40.9 1.2zM37 19.4c.3 3.3 1 6.1 1.6 6.3.6.2 2.5-.8 4.2-2.2l3-2.5 3.1 2.6c4.3 3.6 6.1 2 6.1-5.3v-5.4l6.3.3 6.2.3.3 15.6.2 15.6-2.9 1.2c-2.3 1-3.3 1-4.9 0-1.9-1.2-2.5-.9-5.6 2.6-1.9 2.2-3.5 4.6-3.6 5.2 0 1-3.4 1.3-13.5 1.3H24V12.9l6.3.3 6.2.3.5 5.9zM52 17c0 4.6-.5 4.8-3.7 1.8L46 16.6l-3 2.2-3 2.3V13h12v4zm24 28.7c.1 2.5 8.9 6.6 10.8 5.1 2-1.7 5.1 1.6 3.6 3.9-1.5 2.5 2.2 12.3 4.7 12.3 3 0 2.5 4.8-.6 6-1.4.5-2.5 1.7-2.5 2.7-.1 1-.7 2.9-1.4 4.3-1 1.8-1.1 3-.4 4.4.8 1.4.5 2.3-1.1 3.9-1.2 1.2-2.1 1.6-2.1.9 0-1.8-2.5-1.5-7 .8-2.6 1.3-4 2.7-4 4 0 1.5-.7 2-2.5 2s-2.5-.5-2.5-2c0-2.7-8.6-6.7-11.1-5.1-2.4 1.4-5.7-2.2-4-4.3 1.8-2.1-1.7-11.6-4.1-11.6-2.5 0-2.5-5.6 0-6.2 2.5-.7 5.7-10.4 4.1-12.4-.9-1.1-.8-1.8.6-3.4 1.6-1.8 2-1.9 3.3-.6 1.3 1.3 2.1 1.2 6.4-1 2.6-1.3 4.8-3.1 4.8-3.9 0-2.2 5-2 5 .2zM46.5 70v2.5l-18 .3c-9.9.2-19.4 0-21.2-.3-3-.5-4.9-2.8-3.7-4.6.3-.5 9.4-.8 21.7-.7l21.2.3V70zm5.5 8.6C54.1 84 54.1 84 39.5 84H26l2-4 2-4h10.5c10.4 0 10.6 0 11.5 2.6z"/><path d="M29.2 40.2c-1.4 1.4-1.6 6.7-.3 8.6.5.9 2.7 1.2 7.2 1l6.4-.3.3-3.8c.2-2.1-.2-4.5-.9-5.3-1.4-1.7-11-1.9-12.7-.2zM40 44.5c0 1.1-1.2 1.5-4.5 1.5s-4.5-.4-4.5-1.5 1.2-1.5 4.5-1.5 4.5.4 4.5 1.5zM67 54.2c-14.2 7.2-10.8 30.4 4.8 32.5C82.3 88.1 91 76.3 88 64.8c-1.4-5.3-6.2-10.5-11-11.8-4.8-1.3-5-1.3-10 1.2zm12.6 3.7c4.6 2.8 7.1 9.8 5.5 15.3-2 6.4-6 9.8-11.5 9.8-3.9 0-5.2-.6-8.4-3.4-3.5-3.2-3.7-3.8-3.7-9.4 0-4.6.5-6.7 2.1-8.9 4.1-5.5 10.4-6.8 16-3.4z"/><path d="M72.1 67.7c-.7 3.2-1.5 6.6-1.7 7.5-.4 1.2 0 1.8 1 1.8 1.5 0 3-4 4.2-11.3.5-2.9.3-3.7-.8-3.7-1 0-1.9 1.9-2.7 5.7zM64.7 65.8c-3.4 3.5-3.4 4.2.3 7.7 3.7 3.5 6.3 2.3 3.1-1.6-1.8-2.3-1.8-2.4 0-4.7 1.7-2.3 1.8-4.2 0-4.2-.4 0-1.9 1.3-3.4 2.8zM77.5 64c-.4.6 0 1.9.9 2.9 2 2.2 2 3.5.1 5.1-1.8 1.5-2 4-.2 4 1.3 0 5.7-5.2 5.7-6.8 0-.4-1.3-2.1-2.9-3.6-1.9-1.9-3.1-2.4-3.6-1.6z"/></svg>