<svg version="1.0" xmlns="http://www.w3.org/2000/svg" width="765.333" height="985.333" viewBox="0 0 574 739"><path d="M275 38.7c-33.5 2.3-61.5 8.4-86.6 18.8-43.7 18.3-76.4 43.7-104.6 81.2-25.6 34.1-41.1 72.4-47 116.3-.7 5.5-1.2 19-1.2 32 .1 36 5 61.8 18.2 95.6 19.2 49.4 55.3 111.1 99 169.2 8.5 11.4 17.2 22.7 19.2 25.2 25.5 31.5 36.2 44.1 49.3 58 20.2 21.6 46.2 47.7 56 56.4l7.7 6.8 10.7-9.8c35.9-33.1 67.8-66.7 91.2-95.8 32.2-40.2 57-74.9 76.7-107.3 19.1-31.6 24.1-40.6 35.6-64.8 24.1-50.7 33.3-85 34.5-127.5 1.2-44.5-9.3-89.9-28.9-124.5-32.5-57.4-78.7-95.9-140.3-117.2-16-5.5-41.8-10.4-64.8-12.2-12.4-1.1-15-1.1-24.7-.4zM306.8 75c30.9 3.3 64 14.3 88.1 29.3 50.1 31.2 84.5 83.1 94.7 143.2 2.8 16.3 2.3 45.1-1 63.8-3 17.2-8.7 35.4-15.1 48.6-10.1 20.7-34.1 53.1-48.1 64.7-13.6 11.4-35 25.7-47 31.5-40.2 19.1-73.9 26.3-108.4 23-18.2-1.8-26.4-3.6-46.1-10.1-28-9.3-43.3-17.2-66.1-34.2-20.6-15.3-34.6-30.1-48.7-51-13.4-20-22.5-41.8-27.7-66.2-3.5-16.3-4.5-52-2-69.1 2-14 6.7-32.7 10.7-43 4.5-11.5 14.3-30.7 20.3-40 10.2-15.7 28-34.9 44.1-47.7C181 96.8 219.8 81 259 75.5c11.7-1.6 34.8-1.8 47.8-.5z"/><path d="M274.1 111.2c.1 8.4.2 18.3.1 22l-.2 6.8h-24.2c-13.4 0-31.9.5-41.2 1l-17 1.1-4.3-4.3c-2.4-2.4-5.4-5.8-6.6-7.5-1.2-1.8-2.5-3.2-2.9-3-1.7.5-20.8 19-20.8 20.1 0 .7 2 3.1 4.4 5.5 4.4 4.3 4.4 4.4 2.4 6-1.9 1.6-2 2.8-2.1 40.1l-.2 38.5-29.1-.3-29-.3-1.3 12.1c-.7 6.7-1 12.4-.6 12.8.4.4 13.9.8 30 1l29.3.3.4 3c.3 1.6.2 14.8 0 29.4l-.5 26.5h-27.8c-17.5 0-27.9.4-27.9 1 0 .5 1.2 4.5 2.6 8.7 3.1 9.4 6.9 15.7 9 14.9 3-1.2 23.3-1.8 33.7-1.1l10.7.7V372c0 28 .2 27-5.6 27-2.8 0-3.1 1.9-.6 4.9 2.1 2.5 28.4 23.1 29.5 23.1.4 0 1.2-1.1 1.6-2.3.9-2.3 1.5-2.4 14.7-3 17.4-.9 38.5-.9 58.7 0l15.7.6V457h25v-55.8c0-30.7-.3-56.1-.6-56.4-.3-.3-3.4.9-6.8 2.7-4 2.1-8.6 3.5-12.4 4l-6.2.7.7 22.3.6 22.3-32.4.6c-17.8.3-37.7.5-44.1.3l-11.8-.2v-35c0-19.3.4-35.6.9-36.4.6-.9.5-2.1-.1-3.1-.7-1.1-.8-7.6-.2-20.1.7-13.7.6-20-.3-24.6-1.1-5.1-1-7.5.2-13.9 1.6-8.5 3.6-12.9 8.9-19.9 2-2.6 3.6-5 3.6-5.5 0-1.3-3.7-2.2-7.8-1.8l-3.7.3-.7-8.5c-.8-11.4-1-43.9-.2-48l.7-3.2 18.7 18.7c18 18 18.7 18.6 21.4 17.5 5.2-1.9 18.9-1.2 26.1 1.4 11.4 4.1 9.1.8-19.4-28.4l-22-22.5 19.7-.3c10.8-.1 24.7.1 30.7.5l11 .8.3 26.9.2 26.9 3.6 4.8 3.6 4.9 4.6-3.2c2.5-1.8 7-5.6 10-8.3l5.5-5.1-1.1-5.1c-.8-3.5-.9-20-.5-53.4.3-26.6.3-50.5-.1-53.2l-.7-4.7h-26.2l.4 15.2zM344.6 106.7c-.9.9-.7 56.6.2 58.1.6.9 1.7.8 4.8-.7 5-2.4 14.3-4.2 18.6-3.4l3.4.5 1.3-13.8c.9-10.5 1-15.6.1-20.9-1.8-11.8-1.5-11.4-13.2-14.6-3.9-1.1-8.7-2.8-10.8-3.9-2.1-1-4-1.6-4.4-1.3z"/><path d="M363.5 184.6c-1.6.9-21 19.8-43 42-22.1 22.2-40.6 40.4-41.3 40.4-.7 0-1.2-.4-1.2-.9s-2.8-3.6-6.2-6.9c-3.5-3.2-10.4-9.8-15.5-14.5-9.1-8.7-9.1-8.7-14.5-8.7-3.4 0-6.4.7-8.3 1.9-4.9 3-22.9 20.6-24.9 24.3-1.8 3.3-1.8 3.6-.1 7.1.9 2 6.7 9 12.9 15.4 12.9 13.6 46.6 43.9 51.3 46.1 5.4 2.6 9.8-.2 25.8-16.4 7.7-7.8 23.7-23.3 35.5-34.5 38.7-36.8 60.5-58.1 63.3-62.2 3.7-5.4 3.7-10.8-.1-16.8-3.6-5.6-11.7-13.1-17-15.8-4.9-2.5-12.4-2.7-16.7-.5zM408.3 239.6c-3.4 4.9-10.3 12.5-15.5 17-2.9 2.6-5.7 5-6.2 5.5-.6.5-.6 1.3 0 2.1 1.1 1.5.7 66.8-.4 66.8-.4 0-8.5-7.7-18-17-9.6-9.4-17.8-17-18.3-17-.4 0-1.6 1.5-2.5 3.2-.9 1.8-4.8 6.4-8.7 10.1l-6.9 6.8 3 2.3c4.6 3.3 60.4 58.5 71.8 70.8l9.8 10.7 7.1-6.7c3.9-3.7 8.7-7.9 10.6-9.4l3.4-2.7-5.5-5.4c-3-2.9-8.8-8.8-12.9-13l-7.3-7.7.7-47.1.8-47.2 27.5.6 27.5.6-.8-8.2c-.5-4.5-.9-10.2-1.1-12.7l-.2-4.5-28-.3-28.1-.2-1.8 2.6z"/></svg>