<svg version="1.2" xmlns="http://www.w3.org/2000/svg" viewBox="0 0 512 512" width="100" height="100"><style>.a{fill:#fff}</style><path fill-rule="evenodd" class="a" d="M49.3-.5C34.5-.6 22.3.2 11 11A40.8 40.8 0 0 0-.5 41.2v267.6l-.1 6.1.1 6V354.9C-.6 368.4 1.4 379 11 389c9.9 9.5 20.4 11.6 33.8 11.5h4.6l12.6-.1h13.3l25.3-.1 29-.1 59.9-.2h2.5l-.3 8.2-.1 3.4-.2 3.3-.1 3.3c-.2 5.8-.6 11.5-3.3 16.8a24.6 24.6 0 0 1-17.3 11.3c-3.6.5-7.1 1-10.7 1.7a31.3 31.3 0 0 0-18.9 13l-1.1 2c-4.5 7.1-4.6 14.2-4.5 22.4V500.1c-.1 3.7-.2 6.9 2 10.1 3.1 2.3 3.1 2.3 9.1 2.3H331.2q3.2.1 6.4 0H362.7c4.6.1 8 .4 11.8-2.3 1.8-2.7 2-4.8 2-8v-2.3l-.1-4.8v-12.4l-.1-2.4a34 34 0 0 0-6.7-21.3c-6-7.7-14.1-10.1-23.3-11.6-7-1.1-12.4-2.2-17.9-7-7.2-7.1-7.6-16.1-7.9-25.7l-.1-3.3-.4-11.4 59.5.2 29 .1 25.4.1h17.9l4.4.1h8.8c14.1.1 25.4-1.4 36-11.5a40.8 40.8 0 0 0 11.5-30.2V45.1c.1-13.5-1.9-24.1-11.5-34.1C490.5 1 479.3-.6 465.3-.5H110.8l-8-.1-8.1.1H49.3zm106.8 470.3c12.1-6.7 12.1-6.7 26.5-6.2h51.6l6.1.1h96.2c7.1.1 13.8.7 19.2 5.7 5.2 12.5 5.2 12.5 4.3 26.6H152c0-10.6-1.4-17.6 4.1-26.3zM16 336.1h480c0 17.7 3.1 29.9-9 42-14 6.7-14 6.7-29.9 6.3l-5.2-.1-14.3.1-15.7-.1h-329l-15.8-.1H47.5c-10.7 0-17.8-1.5-25.5-9.1-7.5-18.4-7.5-18.4-6-39zm7.4-312.4c14.4-8.3 14.4-8.3 31.5-7.9h19.5l15.7.1h329l15.8.1H464.5c9.6 0 16.6 1 23.9 7.5 7.1 7.1 7.8 15.5 7.9 25.1l-.1 3.2V136.6l-.1 44.1-.1 139.4H16l-.1-139.6v-129c-.1-10.8 0-19.4 7.5-27.8zM208 400.1h96c.4 12.3-1 25 2 37l5 11H201l6-15z"/><path class="a" d="m139.8 79.4 6.9-.1 18.3.1H305.3l17.9.1h18.3c5.9 0 5.9 0 9 2.4 1.6 2.3 2 3.4 2 6.1v2c-.8 3-2 4.1-4.5 6l-2.2.2-2.2.2-2.2.1h-34.2l-22 .1h-34.8l-62.2.1h-41.8c-24.9-.2-24.9-.2-46.3 11.4a43 43 0 0 0-10.4 31.8 37.3 37.3 0 0 0 13.1 25.8c9.9 8.1 21.8 9.5 34.1 9.4h30.7l21.1.1h10.9l49.1.1h73.1c21-.1 37.2 4.6 52.9 19.3 14.2 14.7 17.9 31.8 17.6 51.5A47.4 47.4 0 0 1 388 265l-1.1 2.6a64.4 64.4 0 0 1-28.2 29.7l-1.8 1c-9.5 5-19.7 6.1-30.3 6.1h-40l-19.4.1H220.3c-3.1-.7-4.3-2.1-6.3-4.5-.5-2-.5-2-.5-4v-2c.8-3.1 1.9-4.1 4.5-6 3.4-.6 6.9-.5 10.3-.5H242l7.3-.1h19.2l30.7-.1h10.7c19.9-.1 36.9-.6 52-15.2a48.2 48.2 0 0 0 12.4-36.6 44.7 44.7 0 0 0-15.6-30.8c-11.8-9.9-24.9-11.9-39.8-11.8H277.8l-5.2-.1h-16.1l-48.8-.1H141l-1.5-.1H138l-1.5.1H135c-16.5 0-29.8-2-43-12.7l-2.5-1.9a51.5 51.5 0 0 1-17.7-33.3c-.6-17.2.9-31 12.2-44.8l2.4-3a44 44 0 0 1 8.5-7.6l3-2.2c13.3-7.8 26.9-7.9 41.9-7.8z"/><path fill-rule="evenodd" class="a" d="M81.3 351.5c-4.9 0-8.5 1.4-9.8 6.5v2c0 2 0 2 .5 4 2.1 2.5 3.3 3.8 6.5 4.5h120.2c2.8 0 2.8 0 5.3-.5 2.3-1.9 3.8-3.1 4.5-6v-2c0-2 0-2-.5-4-2.1-2.5-3.3-3.8-6.5-4.5H84.6zM452.9 38.7c-22-13-54.2-9.1-71.1 10.8L380 52a52.1 52.1 0 0 0-12 25 80.5 80.5 0 0 0 19 61c7.9 9.6 23.9 29.5 37 30.9 10.8-1.3 10.8-1.3 31.8-25.4l2.2-2.5 1.1-1.3 1.1-1.3 1.1-1.2 1.2-1.3A79.4 79.4 0 0 0 480 77a55.9 55.9 0 0 0-17.5-31.2L460 44l-1.8-1.4-1.7-1.3-1.8-1.3-1.8-1.3zm-60.7 25.5A39.7 39.7 0 0 1 452 60a40.4 40.4 0 0 1 11.3 31.1c-.5 18.4-13 34.2-25.7 46.5L435 140c-3.9 3.5-7.3 6.8-12 9-3.9-2.8-7.1-6-10.5-9.4L410 137c-11.3-11.5-21.5-24-25-40a43.3 43.3 0 0 1 7.2-32.8zM139.1 207.7c-5.1 0-10.4-1-13.1 4.1l-.9 2.3-1 2.7-1.1 2.9-2.4 6.3-4 10.6-7.2 19-3.8 9.8-1.3 3.4-1.3 3.4-1.3 3.5-1.2 3.4c-1.7 4.2-3.3 8.5-4.5 12.9-.7 3.8-.8 6.8 1.4 10.1 3.2 2.3 3.2 2.3 9.1 2.4h80.3c3.1 0 6.1.1 9.2-.5 3.4-2.6 4.8-5.3 6.3-9.3l.8-2.1 2.7-7.2 1.9-5.1 4-10.7 1.4-3.7 1.4-3.6 1.4-3.7 1.3-3.6 1.2-3 1.1-2.9 1.1-3 1.2-3 2.2-5.7.8-2.1.8-2 .7-2.1.8-2.1 1-2.5c1.1-2.9 2.2-5.7 2.9-8.6-.1-3.6-.5-5.3-2.5-8.2-3.2-2.3-3.2-2.3-9.1-2.4l-2.7.1h-28.5l-17.2.1h-19.9l-9.2.1zm.9 16.2h14l-.6 1.7-.7 1.7-.6 1.7-.6 1.7-1 2.7c-1.3 3.5-2.6 7-3.5 10.5-.5 3.5-.9 6.7 1.1 9.7 1.9 1.3 1.9 1.3 5.1 1.7h4l4.3.1 6.7-.1h1.2l1.1.1h2.2l2.1-.1c4 0 4 0 7.2-.4 2.3-1.4 2.3-1.4 4.3-5.9l1.4-3.5.5-1.4.6-1.5.6-1.4.5-1.4.4-1 .4-1.1.4-1 .3-1 2.3-5.7 2.3-6.1h14c-2.3 7.2-4.9 14.3-7.5 21.3L200 252c-4.5 12.1-9.2 24-14 35.9h-70c3.7-10.3 7.4-20.6 11.3-30.9l1-2.4.8-2.1.7-2 .8-2.1.8-2.1 2.2-5.6 1.6-4.2 1.6-4.2 1.6-4.2 1.6-4.2zm32 0h6c-.7 3.3-.7 3.3-2.2 6.5l-.8 2.1-.8 1.9-.7 1.8-.8 1.9-.7 1.8h-5c-.2-3-.2-3 1.1-6.1l1.4-3.5.6-1.6.6-1.6.7-1.6.6-1.6z"/><path fill-rule="evenodd" class="a" d="M79 271.5c-6.5-.1-13.5-1.1-15.5 6.5v2c0 2.7.4 3.9 1.8 6.2 3.4 2.3 3.4 2.3 10.8 2.2l3-.1c3.7 0 7.3 0 10.9-.3 2.7-1.4 2.7-1.4 5-7-.1-3.1-.7-4.6-2.4-7.1-3.3-2.4-3.3-2.4-10.6-2.4h-3zm-16.5-24c-6.3-.1-13-1-15 6.5v2a9 9 0 0 0 1.9 6.1c3.2 2.4 3.2 2.4 10.2 2.4l3-.1H69l10-.1h6.5l3.2-.1h5.8q2.3 0 4.5-.2c2.7-1.4 2.7-1.4 5-7-.1-3.1-.7-4.6-2.4-7.1-3.2-2.4-3.2-2.4-10.1-2.5l-3 .1H65.6zm373-182a28 28 0 0 0-25.6 1.9c-5.8 5-9.5 9.2-10.2 17-.2 9.4 1 14.8 7.4 21.7 6.2 6 12.1 6.3 20.6 6.2 7.2-.7 11.5-4.3 16.3-9.3 5.1-6.4 4.8-14.2 4-22-2-6.5-6.7-12-12.5-15.5zm-16.9 17.1c3.1-2.1 4.7-2.2 8.4-1.6 2.5 1.5 2.5 1.5 4 4 .6 3.7.5 5.3-1.6 8.4-3.1 2.1-4.7 2.2-8.4 1.6-2.5-1.5-2.5-1.5-4-4-.6-3.7-.5-5.3 1.6-8.4zM43 223.5c-5.5 0-9.9.5-11.5 6.5v2c0 2 0 2 .5 4 2.3 3 3.5 3.9 7.2 4.5H43l6.7-.1h14.7l12.9-.1 12.5-.1h11.4l6.8-.2c2-1 2-1 3.7-3.2 1.7-3.5 1.5-5.1.3-8.8-2.2-3-3.4-3.9-7.2-4.5H101l-6.6-.1-4.8.1H66.9l-10.1-.1-4.8.1-1.7-.1h-5.2zm-1.5 128c-4.9.1-8.6 1.4-10 6.6v2c0 2 0 2 .5 4 2.1 2.6 3.3 3.8 6.6 4.5H54.5c2.9 0 2.9 0 5.5-.5 2.3-1.9 3.8-3.1 4.6-6l-.1-2c.1-2 .1-2-.5-4-2.1-2.6-3.3-3.9-6.6-4.5l-2.9-.1h-3.2l-3.3.1-3.3-.1z"/></svg>