<svg version="1.2" xmlns="http://www.w3.org/2000/svg" viewBox="0 0 512 499" width="100" height="97"><style>.a{fill:#fff}</style><path fill-rule="evenodd" class="a" d="M142.6.5c-6.5-.1-11.1-.1-11.9 7.3l.2 2.9v3l.1 2.3-8-.3h-3.4c-6.6-.3-12.1-.4-18.2 2.6-5.5 3-9.4 6.8-11.4 12.8L89 34l-21.7-.1-11.1-.1h-15c-8-.1-16.2-.9-23.3 3.5L16 39l-2.5 2.3c-7 7.9-7 15.3-7 25.3v64.9l.1 40 .1 40.1v258q-.2 2 0 4 .2 2.1.6 4 .5 2 1.3 3.9.7 1.9 1.8 3.6l1.7 2 1.7 2q1.9 1.7 4.2 3 2.2 1.3 4.7 2.1 2.4.8 5 1.2 2.5.3 5.1.1h31.7l28.2-.1 28.3-.1 28.2-.1h5.2l37.8-.2h47.2l11.6-.1h11.5l11.6-.1h36.4c5.9-.1 11.5-.2 17.3 1.2l1.9.4 1.8.4 1.9.2 1.9.2h37.3l23.8.1 23.8-.1h55.7q3.2 0 6.4-.6 3.2-.7 6.2-2 2.9-1.3 5.6-3.1 2.6-1.9 4.8-4.3a39.1 39.1 0 0 0 6.6-23.3V401.5l-.1-16.7-.1-16.8v-30a27 27 0 0 0-8-19.8c-7.9-7.6-16.7-9.7-27.5-9.7H464l-30.2.1-30.3.1-30.2.1-30.2.2H341l.1-94.2V60.6a28 28 0 0 0-6.6-19.3c-7.1-6.6-14.2-7.6-23.6-7.6H299l-12 .1-11.9.1-11.9.1H261a27.8 27.8 0 0 0-7-12.1c-6.9-6.5-6.9-6.5-23.6-6l-3.4.1.2-2.3v-3c.1-3 .1-5.1-1.2-7.8-2.5-2.4-2.5-2.4-8.1-2.4h-72.7zm183 327.9v.1c4.9-5 10.3-7 17.3-7l2.4.2h13.4l5.5.1 5.4.1 5.4.1.3 25.1.1 12.9.2 12.5v4.7l.1 7v2.1c0 3.9-.5 5.9 2.3 8.7 3.8.4 6.1.6 9.3-1.6l2.7-2.4 7.1-6.1 1.8-1.7 1.8-1.5 1.7-1.4 1.8-1.2 1.8-1.1 2-1 7 5.9 1.3 1 1.2 1 1.3 1.1 1.2 1 1.9 1.7 1.9 1.6 1.9 1.7 2 1.6c3.6 2.2 6.1 2 10.3 1.4l.4-2 .4-2.1.2-2 .2-2.1v-5.2l.1-1.5v-3.2l.1-4.1v-4l.1-4.1V357.5l.1-3.1v-3l.1-3.1.3-23.8V322h4.7l4.7-.1h4.6l4.7-.1h10.5c8.5-.1 13.4 1.1 19.8 7.2 3.5 7.2 3.5 7.2 3.5 15.4v114.3c.1 7.8.6 14.1-4.5 20.3-5.8 5.6-12.3 5.7-20.1 5.6h-15.5l-20.2-.1h-20.3l-20.2-.2-20.2-.1h-30.7c-4-.1-7.1 0-10.5-2.4l-1.8-1.4-1.8-1.4c-4.8-5.6-5-11.3-5-18.3V431.8l.1-12.9-.1-12.9V341.6c0-5.2 1.1-8.7 3.9-13.2zM23 50c3-2 5.4-2.9 9-3.3h6.7l3.8.1h28.4l5.7.1h5.7l5.7.1v2.4l.3 3.2q.1 2.5.6 4.9.5 2.4 1.4 4.7.9 2.3 2.1 4.4 1.3 2.1 2.9 4c6.4 6 13.7 6.8 22.1 6.8H230c7.3 0 13.5.3 20-3.4q2.3-1.4 4.2-3.3 2-1.9 3.5-4.1 1.5-2.3 2.5-4.8 1-2.4 1.5-5.1l.4-3.5.5-3.5.4-2.7h6.8l6.8-.1h6.8l6.8-.1h22.2c5.2-.1 8.7.5 12.7 4.1 2.3 3.8 2.4 6.2 2.5 10.5v20.4l.1 19.4v63l.1 18.9.1 19 .1 18.9v80.6c0 2.8 0 5.5-.3 8.3-2.4 4-2.4 4-6.7 6.2-2 .9-2 .9-4 2.8l-1.4 1.9c-5.1 6.8-6 14.7-6 23v28l-.1 15.2v30.6l.1 15.2v33.9l.2 3.5.6 3.4.8 3.4q.5 1.7 1.2 3.3l.6 1.7-106.6.1h-28.5l-14.3.1H31.8c-3.7 0-4.6 0-7.8-2.2a18 18 0 0 1-4.5-9.4v-130l.1-42V62.1c0-5 .4-8.1 3.4-12.1zm121-36h70c.4 4.4 0 9 2 13 3 1 3 1 5.2 1.2l2.6.1 5.7.2 2.9.2h2.8c3.6.1 6.4.2 9.4 2.6 3.9 4.1 5.1 7.1 5 12.8v2.5c-.1 5.5.1 10-3.6 14.4-4.7 4.3-8.7 4.5-14.9 4.5h-26.5l-18-.1H115.5c-4.5 0-6.9-.8-10.5-3.4a16.7 16.7 0 0 1-4.5-12.7l.1-2.4a26 26 0 0 1 1.6-11.7 17 17 0 0 1 11.1-6.8h3.5l3.9-.1h4l2-.1h5.9c3.4-.1 6.1-.1 9.4-1.2l1-2zm244 308h38v53c-1.3.2-1.3.2-3-1.8-4.7-4.4-9-8.6-15-11.2-3.8-.2-5.6 1.3-8.3 3.7-5.7 4.8-5.7 4.8-11.7 9.3z"/><path class="a" d="M141 419.7h12.5l11.4-.1h22.8l11.4.1 17.4.1h34.9l17.4-.1h13.5c2.7.3 2.7.3 4.6 1.6 1.8 2.7 1.5 4.6 1.1 7.7-2.1 2.8-3.3 3.9-6.8 4.5H137.7c-3.5-.6-4.7-1.7-6.8-4.5 0-3.6 0-3.6 1-7 3.5-2.3 4.9-2.3 9-2.3zm0-90h34.2l17.1-.1 17.1-.1h42.8l8.6.1 8.6-.1h11.8c3.5.6 4.7 1.7 6.8 4.5.4 3.1.7 5-1.2 7.7-2.6 1.9-4.6 1.7-7.8 1.7h-82.5l-13.8.1h-44.9c-3.5-.6-4.7-1.6-6.8-4.5 0-3.6 0-3.6 1-7 3.5-2.3 4.9-2.3 9-2.3zm-1-177h12.5l11.5-.1h23l11.5.1 17.5.1h35.1l17.5-.1h13.7c2.7.3 2.7.3 4.6 1.6 1.8 2.7 1.5 4.6 1.1 7.7-2.1 2.8-3.3 3.9-6.8 4.5H244l-11.8.1h-35.5l-12.2.1H160.2l-12.2-.1c-12 .1-12 .1-15.4-3-1.6-2.6-1.6-2.6-1.5-5.8 1.7-5.2 3.8-5 8.9-5zm0 90h12.5l11.5-.1h23l11.5.1 17.5.1h35.1l17.5-.1h13.7c2.7.3 2.7.3 4.6 1.6 1.7 2.6 1.5 4.6 1.1 7.7l-1 1.2-1.2 1.1-1.4 1-1.4.7-5.8.2H246l-20.5.1-20.6.2h-20.5l-20.6.1H148c-12 .2-12 .2-15.3-3-1.6-2.6-1.6-2.6-1.5-5.8 1.7-5.2 3.8-5 8.9-5zM62.7 223c4.8 1.6 7.3 4.6 10.7 8.2l2 2 1.2 1.2 1.1 1.2 1.2 1.2L80 238c4.8-2.2 8-5.9 11.4-9.7a15 15 0 0 1 7.8-5.3c2.8 0 2.8 0 5.7 1.5 2.1 2.5 2.1 2.5 2.2 5.7-1.5 5.2-4.3 7.7-8.2 11.2l-2 2-1.2 1.2-1.2 1.1-1.3 1.2L92 248c2.2 4.8 5.9 7.9 9.7 11.3a15 15 0 0 1 5.3 8.4c0 3.3 0 3.3-1.5 5.8-2.5 1.5-2.5 1.5-5.7 1.5-5.2-1.4-7.7-4.2-11.2-8l-2-2-1.2-1.2-1.1-1.3-1.2-1.2L82 260c-4.8 2.2-7.9 5.9-11.3 9.7-2.8 3-4.3 4.2-8.4 5.3-3.3 0-3.3 0-5.8-2-2-3.8-1.8-5-.5-9l1.6-2 1.8-1.8 1.7-1.9 1.9-1.7 2-2 1.2-1.2 1.3-1.1 1.2-1.2L70 250c-2.2-4.8-5.9-8-9.7-11.4l-1.8-1.6q-.8-.9-1.4-1.9-.7-1-1.2-2.1-.6-1.1-.9-2.2c0-2.8 0-2.8 2-5.7 3-2.1 3-2.1 5.7-2.2zm-1.5 177.4c5.4 1 8 3.9 11.8 7.7l1.7 1.8 1.8 1.7 1.7 1.8 1.8 1.7c4-1.6 6.7-4.5 9.6-7.6 6.1-6.3 6.1-6.3 10.8-6.7 3.6.3 3.6.3 5.5 2 1.3 2.7 1.4 4.3 1.1 7.3-1.4 2-1.4 2-3.3 3.8l-2 2-2.2 2-2.2 2.1-1.3 1.3-1.3 1.2-1.4 1.3L92 425c2.2 4.8 5.9 7.9 9.7 11.3 3 2.9 4.2 4.3 5.2 8.4.1 3.3.1 3.3-.9 5.7-2 1.6-2 1.6-5.1 2.2-5.7-.9-8-4-11.8-8.1l-2.1-2.2-1.3-1.3-1.2-1.3-1.3-1.4L82 437c-3 1.3-4.9 2.7-7 5l-1.7 1.8-.8.9-.9.9-.8 1-.8.9c-4.2 4.4-4.2 4.4-8.3 5-2.7-.5-2.7-.5-5.1-2.1-1.6-2.4-1.6-2.4-1.8-5.1 2.7-7.4 9.7-13 15.2-18.3-1.9-4.9-6-8-9.7-11.4l-1.8-1.6q-.8-.9-1.4-1.9-.7-1-1.2-2.1-.5-1-.8-2.2c-.1-2.8-.1-2.8.9-5.2 2-1.6 2-1.6 5.2-2.3zm49.1-268.9c2.7.6 2.7.6 5.7 2.6 1.1 2.6 1.1 2.6 1 6-1.3 1.8-1.3 1.8-3.1 3.8l-2 2.1-1.9 2.1-1.6 1.8L95 164l-2.7 2.9-1.8 1.9-1.9 1.9-1.8 1.8-1.9 1.9-2.9 3-1 1.1-1 1.1-1.1 1-1 1.1-2.4 2.4c-3 2.3-4.8 3-8.5 2.9-5.7-3.4-8.7-9.1-12.2-14.6l-.8-1.3-.9-1.2-.8-1.3-.9-1.2-2-3.4-2-3-.9-2.4q-.4-1.2-.6-2.5l-.1-2.5.2-2.6c2-2.3 3.4-2.9 6.4-3.6 6.8 1.6 11.4 11.5 15 17C69 167 69 167 69 169c9.6-8 18.8-17 27-26.5 8.6-10 8.6-10 14.3-11zm0 177c2.7.6 2.7.6 5.1 2.8 1.6 2.8 1.6 2.8 1.4 5.2-.9 2.9-1.8 4.2-3.8 6.4l-2 2-2 2.2-2 2.1-14 14.3-1.3 1.3-1.3 1.3-1.2 1.3-1.3 1.3-1.9 1.9-1.8 1.9-1.9 1.9-1.9 1.9-2.3 2.4c-5.3 5.2-5.3 5.2-9.5 6-5-1.2-7.4-5.2-10.1-9.3l-.6-1.1-.7-1.1-.6-1.1-.6-1.1-2.5-4-1.2-2.1-1-1.5-.9-1.4-1.1-1.4-1-1.4c-3-4.3-3.1-6.2-2.3-11.3 2.1-2.1 2.1-2.1 5-3 3.4.5 5.4 1.3 7.6 3.9 1.7 2.3 3.2 4.8 4.8 7.2l1.6 2.6 1 1.6 1 1.5 1 1.6 1 1.6c3-1.4 5.1-3 7.5-5.3l2-2.1 2.1-2.2 4.5-4.7 3.5-3.6 3.5-3.5 3.5-3.6 3.5-3.6 2.1-2.3c5-5 5-5 9.1-5.7zm307.8 142.3h46.5c2.4.3 2.4.3 4.2 1.6 1.8 2.6 1.5 4.6 1.2 7.7-2 3-2 3-5 4l-1.2.1h-1.2l-1.3.1h-4.2l-7.7.1-7.7.1-7.7.1h-10.9c-7.3 0-7.3 0-11.3-2.8-1.8-2.7-1.8-2.7-1.7-5.9 1.6-4.8 3.3-5 8-5z"/></svg>