<svg version="1.2" xmlns="http://www.w3.org/2000/svg" viewBox="0 0 512 512" width="100" height="100"><style>.a{fill:#fff}</style><path fill-rule="evenodd" class="a" d="M313 0c-10.9-1.7-10.9-1.7-23.9 16.9l-3.5 5-1.8 2.6-2.4 3.5-2.5 3.5-2.4 3.5-2.5 3.5-3.7 5.4-1.7 2.4-1.5 2.2L266 50l-.3-9.4-.1-3.8-.1-3.8-.1-3.6c-.2-5.8-.8-9.4-4.5-14-3-2.5-4.6-3-8.5-3h-30.1l-15.8.1-26.5.1-37.8.1h-32.6l-18.4.1H75.4c-5.2.1-8-.1-12 3.6-3 3.6-3 3.6-3 11.7l.1 3.1v7.6l.1 2.5v6.9l.2 13.3v4l.1 1.2v1.1L61 69c1.4 2.9 1.4 2.9 6 5 3.8 0 5.4-.4 8.2-3 2.1-3.5 2.3-5.5 2.3-9.5l-.1-2.5-.1-8-.1-5.6-.1-8L77 29h20v137H77v-25.4l.1-13V101l-.1-7c-1-3.1-1.3-4.2-4-6-4.3-.5-6.6-1.1-10.1 1.6-2.1 2.7-2.4 4.4-2.4 7.8v6.8l.1 7.7v21.9l.1 13.7v19.1c-.4 3.6-.4 3.6-3.6 5.7-3.1 1.7-3.1 1.7-5.5 3.9l-2.2 2.4a32.3 32.3 0 0 0-8.9 23v67.8l.1 9V336l.1 40.3v51.8c0 10.8 2.5 19.4 9.9 27.7 10.4 9.5 22.8 11.4 36.4 11.5l3.7-.1h35.4l3.4-.1c3.3 0 5.4-.1 8.5-1.1 2.7-1.9 2.7-1.9 3.9-6.4.1-3.6.1-3.6-1.5-6.3-2.4-2.3-2.4-2.3-5.2-2.9H132l-3.6-.1h-16.5l-15.1-.1-6.1-.1h-7.6c-7.6 0-15-1.1-20.7-6.6-4.9-6.3-5.6-13.8-5.7-21.5l.1-2.6-.1-8.8.1-6.4V231.9l.1-6.6v-12c-.1-9.5 0-17.4 6.6-24.9 5.7-5.4 11.8-5.9 19.3-5.9h81.1l50 .1H310.2l13.9.1h79.1a21 21 0 0 1 15.4 5.8c6 10.1 6 10.1 6 22.2v4.2l.1 11 .1 11.5.2 24.6-21.2-.1h-10.9l-10.6-.1h-4.1c-4.7 0-9.5-.1-14.2.2a57 57 0 0 0-37 23 58.2 58.2 0 0 0-8.6 42.7 56.4 56.4 0 0 0 22 33.1l2.6 1.7c9 6.2 19.3 8 30.1 8l6-.1 10.8-.1 11.1-.1 21.7-.2h2.3l-.2 22.8-.1 11.7-.1 11.3-.1 4.4v4.2l-.1 4c0 3.9-.3 6.3-1.9 9.9L421 441c-.9 2.2-.9 2.2-2 4a48.4 48.4 0 0 1-24.5 5.4h-23.1l-10.7.1H349c-3.8 0-5.4 0-8.3 2.4-2.4 3-2.4 3-1.7 10.1 2.9 2.9 5.7 3.9 9.7 4.2h3l3.5.1 3.7-.1h31.7c15.8 0 29.6-.6 41.5-12.3 8-9.5 9.5-19.6 9.3-31.7v-4.4l-.1-11.7-.1-12.1-.2-23.5V369c7.4 0 12.8-4.2 18.1-9.1 10.8-10.9 12.5-22.9 12.4-37.7l-.1-8.7c.1-11.8.3-23-5.5-33.7a38.1 38.1 0 0 0-22.5-16.3l-2.4-.5v-24l.1-12.2v-25.1c0-9.6-2.9-16.9-9.4-24a39.6 39.6 0 0 0-29-12.2l-2.8.1-9.4.1-6.5.1-17.3.2H365v-7.7c.1-4.4.1-8.8-.7-13.1A48.6 48.6 0 0 0 342 115a51.1 51.1 0 0 0-37.5-2l-2.5 1-2.7 1a87.8 87.8 0 0 0-45.3 46l-1 5h-47l7.7-11.5 1.5-2.1 1.6-2.3 3.5-5 1.9-2.7 9.1-12.9 3.4-5 21-30 1.8-2.5.9-1.2.9-1.3.8-1.2.9-1.3 14.2-20.2 2.8-4 2.7-4 2.8-4 2.7-4 3-4.3 3-4.3 3-4.2 3-4.3 1.7-2.4c3.3-4.5 6.6-9 10.1-13.3 8.5 6.2 17.1 12.3 25.7 18.3l3.2 2.2 3.2 2.3 3.2 2.2 10.7 7.5 27.5 19.2 2.5 1.8 5 3.5 12.5 8.7 4.9 3.5 2.4 1.7 3.3 2.3 3.3 2.3 3.3 2.3 3.3 2.3 3.1 2.1 6.1 4.2c6.8 4.7 13.4 9.5 19.8 14.6l-10.4 14.8-1.2 1.8-1.3 1.8-1.3 1.8-1.2 1.8-1.3 1.8-2.2 3c-1.8 2.6-1.8 2.6-3.1 5.2-.3 3.9-.6 6.1 1.6 9.4 3.3 2.1 5.6 2 9.4 1.6 3-1.5 3-1.5 9.7-11.4 2.9-4.2 5.7-8.5 8.9-12.7l1.5-2 3-3.8c4-5.1 6.3-9.6 6.9-16.1-1.2-6.3-1.2-6.3-10.4-12.6l-2-1.4-2.1-1.3-2-1.4-2-1.4-7.5-5.3-15.5-10.9-5-3.4-2.5-1.8-27.5-19.3-1.9-1.3-1.8-1.3-1.9-1.3L388 52l-20.3-14.2-17.8-12.4-3.2-2.1-3.1-2.2-3.1-2.2-3.1-2.2-9.3-6.7-4.1-3c-3.5-2.6-7-5.2-11-7zm27.5 293.8c10.7-12.6 22.6-16.4 38.8-16.3h14.4l12.6.1h23.5c7.7 0 13.9 2.1 19.5 7.5 6.4 12.2 6.4 12.2 6.2 26.3l-.1 8 .1 1.3v2.6l-.1 1.3v2.5c.1 9.1-1.9 15.1-8.4 21.9-7.4 6-15.7 6.2-24.9 6.3H386c-11.7 0-23.2-.1-33.7-5.8A43.1 43.1 0 0 1 334 323c-.8-10.7.1-20.2 6.5-29.2zM149 29h100v47l-15.1 21.3-3.4 4.9-1.9 2.6-8.9 12.7-1.7 2.5-8.8 12.6-1.8 2.5-3.6 5.1c-3.4 4.8-6.7 9.1-8.8 14.6-.7 2.2-.7 2.2-2.1 4.5-9.7 11-9.7 11-43.9 6.7zm-36 0h20v137h-20zm166.7 120.7c10.6-12.7 25.2-22.7 42.1-23.1 8.7.3 14.1 3.3 20.2 9.4 6.9 8.4 7.8 18.4 7 29-2.8 1.4-2.8 1.4-6.1 1.1h-42.4L270 166l.8-1.6 1.1-2.2c2.2-4.5 4.8-8.5 7.8-12.5z"/><path fill-rule="evenodd" class="a" d="M300.6 351.8c-33.8-29.4-88.5-29.5-121.3 1.9L177 356a92 92 0 0 0-27 54c-1.7 25.6 3.7 50.8 20.8 70.7 16.8 17.7 37.7 30.6 62.7 31.6 27.8.6 51.5-6.2 71.9-25.6 19.1-20 27.2-44 26.8-71.3a88.5 88.5 0 0 0-27.1-59.5L303 354zM184 371.6a78.3 78.3 0 0 1 59.7-25.8l2.3.2c13.9.9 27.3 6.1 38.8 13.9a80.5 80.5 0 0 1 30.7 49.3 78.2 78.2 0 0 1-13.8 57.2 78.6 78.6 0 0 1-49.6 29.6c-21.5 3-41.3-3-58.7-15.9a77.7 77.7 0 0 1-27.6-51.4 79.1 79.1 0 0 1 18.2-57.1z"/><path class="a" d="M246 371c2.4 1.4 2.4 1.4 4 4 .3 3.4.2 6.6 0 10l2.7-.2 3.5-.1 3.6-.2c3.2.5 3.2.5 5.6 2.8 1.9 3.3 2.2 5 1.6 8.7a17 17 0 0 1-6 5l-6.4.2-3.9.1-6.2.1-5.9.1-3.6.1c-3 .2-3 .2-4.9 1.7-1.4 1.8-1.4 1.8-.9 4.8l.8 2.9c3.7 1.8 8.3 1.4 12.4 1.5 8.9.4 16 2.1 22.6 8.5a23.4 23.4 0 0 1 5 17 27 27 0 0 1-10 17c-3.2 1.7-6.3 3-10 3l.2 2c.3 7.3.3 7.3-2.3 10.7-3.8 1.7-5.9 1.4-9.9.3a12.2 12.2 0 0 1-4-5v-8l-2.9.1-3.8.2-3.7.1c-4.2-.5-5.8-1.4-8.6-4.4-.6-3.4-.6-3.4 0-7 2.6-3.3 4.1-4.8 8.3-5.6H241.4l5.6.1c3.1-.2 3.1-.2 5-2.3 1.3-2.3 1.3-2.3.4-5.4L251 431c-2.8-.9-4.5-1.1-7.4-1.2H241l-1.3-.1h-4c-7-.3-12.6-1.7-17.7-6.6-4.5-6.5-7-12.1-6-20.1a24.1 24.1 0 0 1 9.9-15.3c4.1-2.2 7.3-3.2 12.1-2.7l-.2-3.7c0-3.9.7-6.2 3.2-9.3 3.1-1.5 5.6-1.3 9-1zm144-79c3.3 2.2 5.9 4.1 7 8-.1 3.7-.2 6.1-2.6 8.9a14.6 14.6 0 0 1-9.4 1.1c-1.8-1.1-1.8-1.1-3.5-2.5a11.2 11.2 0 0 0-7.1-3c-4.5.7-6.9 2.1-10.2 5.2A15.9 15.9 0 0 0 363 320c1.7 3.9 3.2 5.4 7 7 3.1.5 5.9.5 9 0l1.3-1 1.2-1 1.3-1 1.2-1a13 13 0 0 1 10.5 1.6c2.1 3.4 2.1 5.5 1.5 9.4-2.4 4.6-6.4 6.9-10.9 9.1a38.7 38.7 0 0 1-22.6-.2A32.7 32.7 0 0 1 346 323c-.9-10.4.2-17.7 6.5-26 9.9-11.1 24.9-11.7 37.5-5zM331 39c3.2 1.6 6 3.6 8.8 5.8l2.3 1.6c8.5 6.2 8.5 6.2 9.4 11.5-.7 4.2-2.1 5.6-5.5 8.1-3.9.5-5.5.3-8.8-1.9l-2.9-2.3c-4.2-3.2-4.2-3.2-9.2-3.4-2.8 1.1-2.8 1.1-5.5 2.5-2.9 1.2-4.2 1.1-7.3.7-2.2-.3-2.2-.3-4.3.4a52 52 0 0 0-6.2 8.4C300 73 299 74 296 75c-3-.2-5.2-.5-7.8-2.1-1.9-3-2.7-5.4-2.2-8.9 1.9-4 4.4-7.5 7-11l2-2.7c4.6-6.1 4.6-6.1 7-7.3 5.3-.3 5.3-.3 8.1 1.1 1.9 1.1 1.9 1.1 4.3.8a16 16 0 0 0 6.7-4.8c3.2-1.8 6.4-1.8 9.9-1.1zm74.8 53.6c4.3.8 7.5 3.6 11 6.2l2.3 1.7c6.9 5.1 6.9 5.1 8.9 7.5.4 5 .2 7.6-2 12 .2 5 1.5 6.7 5 10 1 2.3 1 2.3 1 5-3.3 8.6-9.5 19-18 23-3.5-.1-5.2-.3-7.9-2.6-1.7-3.6-1.7-5.5-1.1-9.4q1.8-2.5 3.7-4.8c2.7-3.5 2.7-3.5 3.1-7.7l-.4-1.3-.5-1.3-.5-1.2-.5-1.2c-1.8-4.8-1.5-9.7.1-14.5l-2-.6c-4.4-2-9.8-5-12-9.4-.4-3.7-.2-5.6 1.5-8.9 2.9-2.4 4.6-2.6 8.3-2.5z"/></svg>