<svg xmlns="http://www.w3.org/2000/svg" viewBox="0 0 297 297"><path d="M225.656 77.674c21.414 0 38.837-17.422 38.837-38.837S247.07 0 225.656 0 186.82 17.422 186.82 38.837s17.421 38.837 38.836 38.837zm0-60.855c12.14 0 22.018 9.878 22.018 22.018s-9.878 22.018-22.018 22.018-22.017-9.878-22.017-22.018 9.876-22.018 22.017-22.018zM270.577 194.311c-13.621 31.839-44.341 54.195-80.55 56.439l14.699-14.7a8.41 8.41 0 0 0-11.893-11.893l-29.243 29.244a8.41 8.41 0 0 0 0 11.893l29.243 29.243A8.387 8.387 0 0 0 198.78 297a8.41 8.41 0 0 0 5.947-14.356L189.7 267.618c53.241-2.636 101.018-42.65 104.726-94.915.819-11.542.215-46.283.215-46.283 0-16.58-10.288-31.241-26.017-36.483-.064-.021-10.928-3.355-10.928-3.355a8.408 8.408 0 0 0-10.368 5.159l-14.031 38.496s-3.547-21.974-3.841-22.459c.017-.029.039-.054.056-.083l7.453-12.909a4.453 4.453 0 0 0-3.856-6.678h-14.906a4.452 4.452 0 0 0-3.856 6.678l7.453 12.909c.017.029.038.055.056.083-.294.485-3.841 22.459-3.841 22.459l-14.03-38.496c-1.532-4.204-6.091-6.477-10.368-5.159 0 0-10.864 3.334-10.928 3.355a38.405 38.405 0 0 0-26.296 36.483v59.482a8.41 8.41 0 0 0 8.409 8.409h105.775zm-97.366-16.818V126.42a21.61 21.61 0 0 1 14.707-20.499l2.998-.92 26.421 72.491h-44.126zm104.511-9.146c0 5.272-6.892 9.146-12.459 9.146h-31.289l26.422-72.491 2.998.92c8.802 2.975 14.328 11.2 14.328 20.499v41.926zM71.7 219.894c14.654 0 26.576-11.922 26.576-26.576 0-14.653-11.922-26.576-26.576-26.576-14.653 0-26.576 11.922-26.576 26.576.001 14.653 11.923 26.576 26.576 26.576zm0-36.333c5.38 0 9.758 4.377 9.758 9.757s-4.378 9.757-9.758 9.757c-5.38 0-9.757-4.377-9.757-9.757s4.377-9.757 9.757-9.757z"/><path d="M115.635 19.452a8.41 8.41 0 0 0-11.893 11.893l15.023 15.022C60.585 49.174 14.081 95.965 13.562 158.778l-10.29 17.823a8.41 8.41 0 0 0 3.078 11.487l9.058 5.23-9.058 5.23a8.41 8.41 0 0 0-3.078 11.487l19.737 34.185c2.322 4.023 7.464 5.398 11.487 3.078l9.058-5.23v10.459a8.41 8.41 0 0 0 8.409 8.409h39.473a8.41 8.41 0 0 0 8.409-8.409v-10.459l9.058 5.23a8.41 8.41 0 0 0 11.487-3.078l19.736-34.185a8.41 8.41 0 0 0-3.078-11.487l-9.059-5.23 9.059-5.23a8.41 8.41 0 0 0 3.078-11.487l-19.736-34.185a8.41 8.41 0 0 0-11.487-3.078l-9.058 5.23v-10.46a8.41 8.41 0 0 0-8.409-8.409H51.964a8.41 8.41 0 0 0-8.409 8.409v10.46l-9.058-5.23a8.384 8.384 0 0 0-2.284-.902c8.265-41.08 43.409-72.543 86.229-75.196l-14.7 14.699a8.41 8.41 0 1 0 11.894 11.893l29.244-29.244a8.413 8.413 0 0 0 0-11.894l-29.245-29.242zM47.759 166.416a8.409 8.409 0 0 0 12.614-7.283v-16.617h22.655v16.617a8.41 8.41 0 0 0 12.614 7.283l14.39-8.308 11.327 19.619-14.39 8.308a8.409 8.409 0 0 0 0 14.566l14.39 8.308-11.327 19.619-14.39-8.308a8.409 8.409 0 0 0-12.614 7.283v16.616H60.373v-16.616a8.41 8.41 0 0 0-12.614-7.283l-14.39 8.308-11.328-19.619 14.39-8.308a8.409 8.409 0 0 0 0-14.566l-14.39-8.308 11.328-19.619 14.39 8.308z"/></svg>