<svg version="1.2" xmlns="http://www.w3.org/2000/svg" viewBox="0 0 512 512" fill="none"><path  d="M244.5-.5h22q7.3 2.2 13 7.5 19.5-3.5 33 11 19.1 2.6 25.5 20.5 21.4 8.9 23 32 4.1 3.7 6 9 1.8 13.9 2 28 11 7 12 20 1 30.5 0 61-3.9 26.4-30.5 29.5l-16 1q-11.8 17.8-29.5 29.5-1.2 8.3 2 16 2.3 1.6 4.5-.5 6.5-1 13 0l22 13q70.3 20.1 96 88.5 15 1.2 30 1.5 16.8 4.8 21.5 21.5 1 18.5 0 37-6.5 7.4-14 1-1.9-17.9-2-36-2.7-4.8-7.5-7.5-215-1-430 0-4.8 2.7-7.5 7.5-1 48.5 0 97 3.1 7.7 11.5 8.5 211 1 422 0 8.4-.8 11.5-8.5l1-33q4-8.4 12.5-4.5 1.8 1.4 2.5 3.5 1 18.5 0 37-4.4 15.7-19.5 21h-438q-15.1-5.3-19.5-21-1.5-53.1 1-106 5.3-11.3 16.5-16.5 16.9-1.6 34-2.5 13.3-37.4 44-62.5 16.4-1.4 9.5 13.5-24.6 20.1-36.5 49.5 170 1 340 0-23.1-54.6-79.5-72.5L301.5 338q-10.8 6.3-22 1-11.8-10-24-19.5-12.2 9.5-24 19.5-11.3 5.4-22-1L165 293.5q-7.2 2.7-14.5 5.5-16.6 2.4-10-13 11.4-6 24-9l22-13q8.3-1.5 16 1.5 3.4-3.5 4-8.5-1.2-4.6-1.5-9.5-35-22.5-40.5-64-18.7 3.1-30.5-11-3.7-5.4-4-12-1.3-19.6 1-39 2.7-9.2 11-14l1-24q1.5-7.6 7-13 1.5-23.1 23-32 6.4-17.9 25.5-20.5 13.5-14.5 33-11 5.7-5.3 13-7.5zm3 16.5q-5.6 4.1-12 7-17.1-4.7-28 9-8.3 2.3-16 6-3.3 4.9-5.5 10.5l-17 13q-3.1 7.2-4 15-2.4 4.9-6 9-1 13.5 0 27 21.8 2.1 20.5 24 5 .6 8.5-3l1-44q4.4-24.9 30-25 18.2 2.8 36.5 5 18.3-2.2 36.5-5 25.6.1 30 25l1 44q3.5 3.6 8.5 3-1.3-21.9 20.5-24 1-13.5 0-27-3.6-4.1-6-9-.9-7.8-4-15l-17-13q-2.2-5.6-5.5-10.5-7.7-3.7-16-6-10.9-13.7-28-9-6.4-2.9-12-7-4.6-.5-9-1.5-3.2 1.2-7 1.5zM205 91.5l-1 45q-6.3 16.8-24.5 16-.4 16.6 1.5 33 5.2 26.2 25.5 43.5 46.9 33.8 95 2-24.6 1.9-29-22 .8-16.8 17-21 14.5-1 29 0 5.6 1.4 9.5 5.5 4.7-20.2 3.5-41-15.9.7-23.5-13-1.9-23.9-2-48-2.3-11-13.5-12-10.4 2.5-21 4.5-27.4 3.2-54-4.5-10.3 1.5-12.5 12zm-59 37q-.3 7.8-.5 15.5-.2 9.4 1.5 18.5 6.7 6.9 16.5 5 .5-18.5-1-37-8.3-1.3-15-6-.9 1.9-1.5 4zm202.5 2q-1.5 18.5-1 37 9.8 1.9 16.5-5 2.4-16.9 1-34-.3-2.7-2.5-4-6 5-14 6zm12 52.5q-7 .7-14 .5-.7 9.3-4 18l4 1q20.1-1.6 18-21-1.7 1.2-4 1.5zm-67 31q10.5 1 21 0 7.3-4.2 1-10-11.5-.7-23-.5-8.1 5.7 1 10.5zm-76 60q18.4 13.1 38 24.5 19.6-11.4 38-24.5-4.3-8.3-5.5-17.5-32.7 12-65.5 0-.5 9.3-5 17.5zm-35 11q-1.4 1.1-.5 2.5l37.5 37.5q2.7.8 5-1l17-15-44-28q-3.3-1.8-7-1.5-3.3 3.5-8 5.5zm87 24 17 15q2.3 1.8 5 1l37.5-37.5q.9-1.4-.5-2.5-4.4-1.9-8-5-2.5-.7-5-.5-22.6 15.1-46 29.5z"/><path d="M97.5 395.5q9.1-1.2 14.5 6 3.7 8.4 6.5 17 11.2 0 22 2.5 9.5 7.8 3.5 18.5-7.3 6.3-14.5 12.5 5.4 12.4 2.5 25.5-5.8 6.8-14.5 4.5-8.4-4.6-16.5-9.5-7.4 5.3-15.5 9.5-14.7 3.1-17-11.5 1.4-8.9 4-17.5L58 438.5q-5.5-12.6 6.5-18.5 9.6-.9 19-2.5 3.8-8.5 7.5-17 2.9-3.1 6.5-5zm3.5 60q7.4 1.6 13.5 6l1-1q-3.4-8.4-.5-17 4.3-4.8 9.5-8.5-7.8-.2-15-3-5.6-5.9-8.5-13.5-2.4 7.5-7.5 13.5-7.3 2.6-15 3 5.3 4.8 9.5 10.5.9 2.5 1.5 5-1.7 5.4-2 11 6-4.4 13.5-6zM200.5 395.5q8.2-1.2 13.5 5 3.9 8.4 7.5 17 11.1 1.5 22 3.5 9.3 7.9 3.5 18.5-7.5 6.3-14.5 13 4.2 10.7 3.5 22-6 11.8-18.5 6.5-6.6-4.4-13.5-8.5-7.8 4.8-15.5 9.5-14.8 3.1-17-11.5 1.4-9.1 4-18-8-7.3-15.5-15-4-12.2 7.5-17.5 9.6-.9 19-2.5 3.8-8.5 7.5-17 2.9-3.1 6.5-5zm-20 39.5q6.3 4.2 10.5 10.5.9 8.7-1 17 4.1-2.9 8.5-5.5 11.2-3.1 19.5 5.5-1.8-8.3-1-17 4.2-6.3 10.5-10.5-9 .1-17-4-3.7-6.7-7-13.5-3 19.6-23 17.5zM303.5 395.5q8.1-1.1 13.5 5 3.9 8.4 7.5 17 11.1 1.5 22 3.5 7.8 6.8 4.5 16.5-7.5 7.7-15.5 15 3.7 10.7 3.5 22-5.1 10.4-16.5 7.5-7.8-4.8-15.5-9.5-7.9 5.4-16.5 9.5-14.7 2.7-16-12 1.2-8.9 4-17.5-7-6.7-14.5-13-5.8-10.6 3.5-18.5 10.9-2 22-3.5 3.6-8.6 7.5-17 2.7-3.5 6.5-5zm-3 35.5q-8 4.1-17 4 6.3 4.2 10.5 10.5.8 8.7-1 17 4.1-2.9 8.5-5.5 11.2-3.1 19.5 5.5-1.9-8.3-1-17 4.2-6.3 10.5-10.5-9.1.1-17-4-4.2-6.5-7-13.5-2 7.2-6 13.5zM406.5 395.5q8.1-1.1 13.5 5 3.8 8.5 7.5 17 9.4 1.6 19 2.5 12 5.9 6.5 18.5L438.5 453q2.6 8.6 4 17.5-2.3 14.6-17 11.5-7.8-4.8-15.5-9.5-8.1 4.9-16.5 9.5-14.6 3.2-16-11.5.8-9.6 4-18.5-7.3-6.3-14.5-12.5-6-10.7 3.5-18.5 10.8-2.5 22-2.5 2.8-8.6 6.5-17 3.2-4 7.5-6zm15 55q.8-3 1.5-6l9.5-9.5q-7.7-.4-15-3-5.1-6-7.5-13.5l-5 10q-7.7 7.2-18.5 6.5 5.2 3.7 9.5 8.5 2.9 8.6-.5 17l1 1q6.1-4.4 13.5-6 7.4 1.6 13.5 6-.3-5.6-2-11z"/></svg>