<svg version="1.2" xmlns="http://www.w3.org/2000/svg" viewBox="0 0 512 512"><path fill-rule="evenodd" d="M277 5.7c4.1 2.2 13 9.2 24.4 19.4 11.2 9.9 18.7 15.9 20 15.9 1.2-.1 15.6-1.1 32.2-2.4 22-1.7 31.6-2.1 36-1.4 13.9 2.1 26.8 11.6 32.9 24.2 2.4 5 5.2 14.6 9.5 32.6 3.4 14 6.2 25.5 6.3 25.6.1 0 12.6 7.5 27.7 16.5 18.8 11.2 29.1 18 32.7 21.5 10 9.9 14.9 24.7 12.5 38.2-.7 4.2-5.2 16.6-12.1 33.4l-10.9 26.6 10.4 25.4c5.8 13.9 11.2 27.8 12 30.8 2.7 10.3 1.1 22.2-4.3 32.2-4.7 8.7-12.2 14.5-41 31.7l-27.2 16.3-6.1 25.7c-3.4 14.2-7.5 28.4-9.1 31.9-3.7 8.1-12.3 16.9-20.4 20.6-10.6 5-14.7 5.2-50.3 2.5l-32-2.4-19 16.7c-11.8 10.3-21.4 17.9-24.9 19.7-14.6 7.3-31.6 6.4-44.8-2.5-2.7-1.8-12.8-10.2-22.3-18.6l-17.4-15.3-32 2.4c-35.7 2.8-40.3 2.5-50.6-2.5-7.8-3.8-16.5-12.7-20.1-20.6-1.6-3.5-5.7-17.8-9.1-32.1l-6.3-25.8-27.1-16.2c-28.7-17.1-36.2-22.8-40.9-31.5-5.4-10-7-21.9-4.3-32.2.8-3 6.2-16.9 12-30.8l10.4-25.4-10.7-26.1c-5.9-14.4-11.3-28.3-11.9-30.9-3.6-14.1 1.3-30.5 12.2-41.2 4.4-4.4 22.7-15.9 52.4-33.1 3.4-2 3.7-2.6 13.1-32.5 5.5-17.4 10.8-32.2 12.3-34.5 3.2-4.9 11.1-12.5 15.8-15.2 10.7-6.2 16.6-6.6 57.7-3.3l27.3 2.2 2.9-2.4c1.6-1.3 10.3-8.8 19.3-16.8 16.7-14.7 22.3-18.4 31.3-20.6C256.3-1.2 266.6.2 277 5.7zm-27.5 26c-1.6.9-8.4 6.4-15 12.2-6.6 5.9-15.9 14.1-20.6 18.3-4.8 4.3-10.2 8.1-12 8.6-2.3.6-14.4 0-38.4-1.8-21.1-1.6-36.1-2.4-37.9-1.9-4.2 1.2-7.4 3.6-9 6.7-.8 1.5-5.8 16.7-11.1 33.7-5.7 18.2-10.7 32.2-12 34-1.4 1.9-12.3 8.9-28.6 18.5-14.5 8.5-27.6 16.6-29.2 17.9-3.3 2.8-5.7 7.7-5.7 11.6 0 1.4 5.6 16.2 12.5 32.9S55 254.1 55 255.9c0 1.7-5.5 16.2-12.2 32.3-13.4 32.3-14.5 36.7-10.2 42.5 1.2 1.6 12.7 9.1 27.5 18 32 19 36.9 22.2 39.1 25.3 1 1.4 4.9 15.7 8.8 32 3.9 16.2 7.8 30.6 8.7 32q3.6 5.5 9 6.6c1.8.3 18.9-.6 38.1-2.1 31.4-2.4 35.2-2.5 38.4-1.2 1.9.8 13 9.8 24.7 20 15.2 13.4 22.2 19 25.1 19.8 7.3 2.2 10 .6 33.3-19.9 11.7-10.4 22.8-19.4 24.5-20.1 2.7-1.1 8.4-.9 38.2 1.4 19.3 1.5 36.5 2.4 38.4 2.1 4-.8 9.1-5.6 10.5-9.9.5-1.8 4-15.7 7.6-31 5.1-21.1 7.3-28.5 9-30.5 1.3-1.5 16.1-11 33.1-21.2 18.3-11 31.6-19.6 32.8-21.3 4.3-5.9 3.2-10.3-10.2-42.5-6.7-16.1-12.2-30.6-12.2-32.3 0-1.8 5.6-16.8 12.5-33.5S482 191 482 189.6c0-3.5-1.7-7.7-4.3-10.4-1.2-1.3-16-10.7-32.8-20.8-17.2-10.3-31.4-19.4-32.3-20.8-.8-1.4-4.7-15.6-8.6-31.6-3.8-16-7.7-30.4-8.5-32-1.7-3.3-4.8-5.7-9.1-6.9-1.8-.5-16.8.3-37.9 1.9-23.9 1.8-36.1 2.4-38.3 1.8-2.2-.6-10.4-7.2-23.3-18.6-11-9.7-21.8-18.7-24.1-20-4.9-2.6-9.1-2.8-13.3-.5z"/><path fill-rule="evenodd" d="M335.8 111.7c44.9 26 74.4 67.6 82.9 117.3 2.1 12.1 2.3 39.2.4 51.5-2.9 19.3-11 42.2-20.7 58.5-25.7 43.2-66.9 71.3-117.4 80.2-11 1.9-41.2 1.6-52.7-.5-69.9-13-121.9-65.1-135-135-2.3-12.8-2.3-42.6 0-55.4 6.5-34.6 21.8-64.2 45.7-88.3 26.5-26.7 61.3-43.6 98.7-47.9 32.5-3.8 70.7 3.8 98.1 19.6zm-93.8 9.9c-32.2 4-58.7 16.9-81.5 39.8-19.8 19.9-31.3 41.5-37.2 69.6-2.4 11.8-2.4 38.2 0 50 5.9 28.1 17.9 50.6 37.6 70.1 20.5 20.3 44.1 32.7 72.9 38.1 10.1 1.9 36.9 1.6 47.1-.5 19.4-4.2 34.2-10.2 49.3-20.3 29.3-19.5 49.4-48.6 57.5-83.7 2.3-9.8 2.7-13.3 2.7-28.7 0-15.3-.4-18.9-2.6-28.6-6.5-27.7-19.4-50.4-39.5-69.4-18.6-17.7-40.6-29-66.8-34.5-7.7-1.6-32.2-2.8-39.5-1.9z"/><path d="M324.5 197.6c-1.6.9-21.1 19.7-43.2 41.7L241 279.5l-25.2-25.2c-13.9-13.8-26.7-25.8-28.5-26.7-12.2-6.1-25.8 7.5-19.7 19.7 2.2 4.4 62 64.4 66.6 66.8 4.7 2.4 8.9 2.4 13.6 0 5.5-2.9 94.8-92.7 96.7-97.3 2-4.8 1.9-7.4-.4-12.5-3.3-7.1-12.6-10.3-19.6-6.7z"/></svg>