<svg version="1.2" xmlns="http://www.w3.org/2000/svg" viewBox="0 0 512 512"><path d="M286.5-.5h10q2.9 2.1 5.5 5 3.6 7.4 7.5 14.5 10.9.8 21 5 7 8.2 1.5 17.5l-11 11q1.7 10.9 1 22-5.5 9.9-16.5 6.5-7.1-3.2-13.5-7.5-38.1 22.4-30-21-8.2-6.7-13-16-1.9-10.3 7.5-14.5 8.5-1.7 17-3 3.9-7.1 7.5-14.5 2.6-2.9 5.5-5zm-3 33.5q-6.9 2.2-14 3.5 14.3 9.7 8.5 26 13.5-10 27 0 .2-5.6-1.5-11 1-2.4 1.5-5 4-5.2 8.5-10-7.8-1.4-15-4.5-3.7-5.7-7-11.5-2.7 7.1-8 12.5zM138.5 36.5q17-.2 34 .5 8.1 3.1 9.5 11.5.3 9.5 1.5 19 3.4 1.8 7 3 7.8-7.5 16-14.5 7.3-3.2 14 1 12.9 11.9 23.5 25.5 1.5 6.9-2 13L228.5 109q2.4 3.5 3.5 7.5 12.2.9 24.5 2.5 5.7 3.7 6.5 10.5 1 14.5 0 29-1.4 8.6-9.5 11.5l-21 1q-1.6 4.2-4 8 8.9 7.9 15.5 17.5 1.3 6.2-1 12L220.5 231q-8 5-16 0-6.8-7-14-13.5-3.4 1.8-7 3-1 11.6-2.5 23-2.4 5.9-8.5 7.5-18.6 1.4-37-1-3.6-2.5-5.5-6.5-1.5-11.4-2.5-23-3.6-1.2-7-3-7.8 7.5-16 14.5-7.2 3.1-14-1-12.3-11.8-23.5-24.5-1.6-7.4 2-14L82.5 179q-2.4-3.5-3.5-7.5-12.2-.9-24.5-2.5-5.7-3.7-6.5-10.5-1-14.5 0-29 1.5-8.5 9.5-11.5l21-1q1.6-4.2 4-8-8.9-7.9-15.5-17.5-1.2-6.1 1-12L90.5 57q6.7-4.2 14-1 8.2 7 16 14.5 3.6-1.2 7-3 1-11.6 2.5-23 3.1-5.4 8.5-8zm5.5 38q-1.7 3.2-4.5 5.5l-16 7q-6.4 1.4-12-2-6.3-6.5-13-12.5-7.7 7-15 14.5 7.8 7.3 14.5 15.5 1 5.5 0 11-2.8 5.9-5 12-2.8 5.3-8.5 7.5-10.5.7-21 .5v21q10-.2 20 .5 5.3 1 8.5 5.5 2.4 7.2 6 14 1 5.5 0 11-6.7 8.2-14.5 15.5l14 14q1 1 2 0l12-12q5.1-3.1 11-2l13 5q5.7 2.2 8.5 7.5.7 11 .5 22h22q-.2-10.5.5-21 1-4 4.5-6.5 8.3-3.9 17-7 5.9-1.1 11 2 6.3 6.5 13 12.5 7.7-7 15-14.5-7.8-7.3-14.5-15.5-1-5.5 0-11 3.3-5.7 5-12 3-6 9.5-7.5 10-.7 20-.5v-21q-10.5.2-21-.5-4.6-1.6-7.5-5.5l-6-14q-1-5.5 0-11 6.7-8.2 14.5-15.5l-14-14q-1-1-2 0l-12 12q-7.2 4.3-15 1-9.3-3.1-16.5-9.5-2.2-11.8-1.5-24h-22q.2 11-.5 22zm9.5 63q7.2-.4 9 6.5-2 8-10 6-7.6-6.8 1-12.5z"/><path d="M152.5 92.5q33.9.3 49.5 30 2.6 12.9-10.5 11.5-6.6-10.6-16-19-27.6-15.1-48.5 8.5-14.1 23.5 3 45 24.1 21 49.5 1.5l12-16q13.9-1.6 10.5 11.5-14.4 28.4-46.5 30-47.4-4.2-51-51.5 3.8-44.9 48-51.5zM353.5 104.5q12.3-2.5 18.5 8 3.7 9 8.5 17.5l25 5q11.9 7.8 5.5 20.5l-16 16q2.1 14.4 2 29-6.6 11.7-19.5 7.5-8.9-5.3-18.5-9.5-11.2 5.5-22.5 10.5-15.2 1.3-17-14 2.5-11.7 3.5-23.5-10.6-8.1-18-19-3.4-14.5 10.5-18.5 10.6-1.5 21-3.5 5.6-9.8 10.5-20 3.1-3.4 6.5-6zm24 67.5q1.1-2.6 1.5-5.5 6.6-9.6 15.5-17.5-12.4-1-24-5-6.7-9.6-11.5-20.5-4.9 8.3-9 17l-4.5 4.5q-11 2.4-22 4.5 9 7.3 15.5 17 .5 12.7-2 25 7.4-4.8 15.5-8.5 6.5-3 13 0 7.1 4.6 15 7.5-.6-9.4-3-18.5z"/><path fill-rule="evenodd" class="a" d="M150.5 121.5q24.8-1.7 28 23-7.1 30.3-36 18.5-19.4-18-1-37 4.4-2.7 9-4.5zm3 16q-8.6 5.7-1 12.5 8 2 10-6-1.8-6.9-9-6.5zM359.5 511.5h-153q-29.9-4.9-57.5-18 .5 12.5-10.5 18h-83q-7.1-3.4-9.5-11-1-75 0-150 2.3-8.3 10.5-10.5 40.5-1 81 0 7.6 2.1 10.5 9.5.7 8 .5 16 31.5.3 63-.5-32-46.5-5.5-96.5 36.2-53.2 99.5-38.5 49.2 17.2 60 68-.1 7.9-8 8.5-3.9-.1-6.5-3-15.3-61.5-78.5-60.5-44.3 7.3-59.5 49.5-11.1 42.4 20.5 72.5l54 1q12.8 1.6 21 11.5 31.4-14.6 40.5-48 5.7-6.5 13-2 4.4 5.7 1 12-13 36.5-48 53-.5 27-26.5 33.5l-50 1q-1.8.6-3 2 33.5 1 67 0l5-3 67-67q16.5-10.1 34-1.5 28.3-13.3 44.5 13 2.6 6.2 3 13 17 19.3 3 41-12.3 12.8-25.5 24.5-13.9 2.4-10.5-11.5l23-23q9.4-18.7-11-23-4.7-.3-8.5 2.5l-66 66q-6.5 5.5-15 7-54.5 1-109 0-13.1-3.6-17.5-16.5-1-12 0-24 3.9-12.4 16.5-15.5 27.1-.1 54-2 14.7-8.8 5-23-3.6-2.8-8-4-69-.8-138-.5-.5 47.5 1 95 28.1 13.6 59 18.5 70.5 2.4 141 1 10.7-.6 20-6 16-14.5 31-30 15.7-4.3 11.5 11.5L383.5 500q-11.1 7.9-24 11.5zm-298-16h71v-140h-71v140zm288-56.5q-6.3 4.6-14 6-50.5.3-101 1.5 1.8 3 5 4.5 52 1 104 0l6-3 67-67q9-6 20-6-6.2-7.5-16-5.5-36.1 33.9-71 69.5zm35-67-57 57q5.9 1.1 11-2l57-57q-3-.7-6-.5-2.3 1.4-5 2.5z"/><path fill-rule="evenodd" class="a" d="M314.5 285.5q16.3-.7 9.5 14-22.3 22.8-45.5 44.5-4.2 1.1-8-1-18.3-17.8-35.5-36.5-.7-12.3 11.5-9.5 14.7 13.5 29 27.5 20-19 39-39z"/></svg>