<svg version="1.2" xmlns="http://www.w3.org/2000/svg" viewBox="0 0 512 512"><path d="M236.4 22C145.6 28.6 69.6 80.1 29 162.5 8.7 203.8-.2 244.4 1.3 289.9c1 30.5 5.8 54.6 16.3 81.9 15.1 39.2 42 75.8 75.4 102.8 10.7 8.6 29 21.6 30 21.2 2.3-.9 60.5-52.3 60.4-53.3-.2-1.4-25.5-31.3-26.6-31.4-.6-.1-22.8 18.7-34.3 29-2 1.8-2.2 1.6-10.5-5.7-34.6-30.3-57.7-72.4-66.1-119.9-3-17-3.2-48.1-.6-65 9.5-60.2 40.7-112.6 86.9-146.3 37.3-27.2 83.3-40.7 132.3-38.9 80.2 3 147 47.1 182.1 120.2 31.3 65.1 29.4 138.8-5.1 198.8-9.3 16.2-17.6 26.9-33.7 43.1l-15.7 15.9-6.3-5.5C363 417 355.9 411 355.2 411.1c-.4 0-6.7 7.1-14.1 15.6-9.4 11-13.1 16-12.5 16.9 1.1 1.4 59.2 51.8 60.4 52.2.4.2 5.9-3.3 12.2-7.8 61.3-43.9 97.1-100.6 107.3-170.1 2.3-15.1 3-44.1 1.6-59.5C499.3 143.7 420.7 51.1 314 27.6c-23.2-5.1-54.1-7.3-77.6-5.6z"/><path d="m138.5 160-15 15 45.7 45.8 45.7 45.7-1 5.4c-2.2 11.7 2.6 25.8 12.2 35.4 16.8 16.8 43 16.7 60-.2 20.6-20.7 14.7-54.7-11.9-67.8-7.4-3.7-7.9-3.8-19-3.9h-11.3l-45.2-45.2-45.2-45.2z"/></svg>